# Blender v2.80 (sub 39) OBJ File: 'Coffee Table.blend'
# www.blender.org
mtllib Coffee Table.mtl
o Coffee_Table
v 0.000000 0.299659 -1.122420
v -0.429532 0.299659 -1.036981
v -0.793671 0.299659 -0.793671
v -1.036981 0.299659 -0.429532
v -1.122420 0.299659 0.000000
v -1.036981 0.299659 0.429532
v -0.793671 0.299659 0.793671
v -0.429532 0.299659 1.036981
v -0.000000 0.299659 1.122420
v 0.429531 0.299659 1.036981
v 0.793671 0.299659 0.793671
v 1.036981 0.299659 0.429532
v 1.122420 0.299659 -0.000000
v 1.036981 0.299659 -0.429532
v 0.793670 0.299659 -0.793671
v 0.429531 0.299659 -1.036981
v 0.000000 0.388271 -1.102461
v -0.421894 0.388271 -1.018541
v -0.779558 0.388271 -0.779558
v -1.018541 0.388271 -0.421894
v -1.102461 0.388271 0.000000
v -1.018541 0.388271 0.421894
v -0.779558 0.388271 0.779558
v -0.421894 0.388271 1.018541
v -0.000000 0.388271 1.102461
v 0.421893 0.388271 1.018541
v 0.779557 0.388271 0.779558
v 1.018541 0.388271 0.421894
v 1.102461 0.388271 -0.000000
v 1.018541 0.388271 -0.421894
v 0.779557 0.388271 -0.779558
v 0.421893 0.388271 -1.018541
v 0.343454 0.299659 -0.343455
v 0.448745 0.299659 -0.185876
v 0.485718 0.299659 -0.000000
v 0.448745 0.299659 0.185876
v 0.343454 0.299659 0.343455
v 0.185876 0.299659 0.448745
v -0.000000 0.299659 0.485718
v -0.185876 0.299659 0.448745
v -0.343455 0.299659 0.343455
v -0.448745 0.299659 0.185876
v -0.485718 0.299659 0.000000
v -0.448745 0.299659 -0.185876
v -0.343455 0.299659 -0.343455
v -0.185876 0.299659 -0.448745
v -0.000000 0.299659 -0.485718
v 0.185876 0.299659 -0.448745
v -0.000000 0.299659 0.000000
v 0.000000 0.000000 -0.793656
v -0.044699 0.000000 -0.775141
v -0.063214 0.000000 -0.730442
v -0.044699 0.000000 -0.685743
v 0.000000 0.000000 -0.667228
v 0.044699 0.000000 -0.685743
v 0.063214 0.000000 -0.730442
v 0.044699 0.000000 -0.775141
v 0.000000 0.314323 -0.793656
v -0.044699 0.314323 -0.775141
v -0.063214 0.314323 -0.730442
v -0.044699 0.314323 -0.685743
v 0.000000 0.314323 -0.667228
v 0.044699 0.314323 -0.685743
v 0.063214 0.314323 -0.730442
v 0.044699 0.314323 -0.775141
v 0.620506 0.000000 -0.494837
v 0.578161 0.000000 -0.518240
v 0.531670 0.000000 -0.504846
v 0.508266 0.000000 -0.462501
v 0.521660 0.000000 -0.416010
v 0.564005 0.000000 -0.392607
v 0.610496 0.000000 -0.406001
v 0.633899 0.000000 -0.448346
v 0.620506 0.314323 -0.494837
v 0.578161 0.314323 -0.518240
v 0.531670 0.314323 -0.504846
v 0.508266 0.314323 -0.462501
v 0.521660 0.314323 -0.416010
v 0.564005 0.314323 -0.392607
v 0.610496 0.314323 -0.406001
v 0.633899 0.314323 -0.448346
v 0.773758 0.000000 0.176605
v 0.765653 0.000000 0.128907
v 0.726195 0.000000 0.100910
v 0.678497 0.000000 0.109014
v 0.650500 0.000000 0.148472
v 0.658604 0.000000 0.196171
v 0.698062 0.000000 0.224168
v 0.745761 0.000000 0.216064
v 0.773758 0.314323 0.176605
v 0.765653 0.314323 0.128907
v 0.726195 0.314323 0.100910
v 0.678497 0.314323 0.109014
v 0.650500 0.314323 0.148472
v 0.658604 0.314323 0.196171
v 0.698062 0.314323 0.224168
v 0.745761 0.314323 0.216064
v 0.344355 0.000000 0.715060
v 0.376594 0.000000 0.678984
v 0.373881 0.000000 0.630678
v 0.337805 0.000000 0.598439
v 0.289500 0.000000 0.601152
v 0.257260 0.000000 0.637228
v 0.259973 0.000000 0.685533
v 0.296049 0.000000 0.717773
v 0.344355 0.314323 0.715060
v 0.376594 0.314323 0.678984
v 0.373881 0.314323 0.630678
v 0.337805 0.314323 0.598439
v 0.289500 0.314323 0.601152
v 0.257260 0.314323 0.637228
v 0.259973 0.314323 0.685533
v 0.296049 0.314323 0.717773
v -0.344355 0.000000 0.715060
v -0.296049 0.000000 0.717772
v -0.259973 0.000000 0.685533
v -0.257261 0.000000 0.637228
v -0.289500 0.000000 0.601152
v -0.337805 0.000000 0.598439
v -0.373881 0.000000 0.630678
v -0.376594 0.000000 0.678984
v -0.344355 0.314323 0.715060
v -0.296049 0.314323 0.717772
v -0.259973 0.314323 0.685533
v -0.257261 0.314323 0.637228
v -0.289500 0.314323 0.601152
v -0.337805 0.314323 0.598439
v -0.373881 0.314323 0.630678
v -0.376594 0.314323 0.678984
v -0.773758 0.000000 0.176605
v -0.745761 0.000000 0.216063
v -0.698062 0.000000 0.224168
v -0.658604 0.000000 0.196171
v -0.650500 0.000000 0.148472
v -0.678497 0.000000 0.109014
v -0.726195 0.000000 0.100910
v -0.765653 0.000000 0.128907
v -0.773758 0.314323 0.176605
v -0.745761 0.314323 0.216063
v -0.698062 0.314323 0.224168
v -0.658604 0.314323 0.196171
v -0.650500 0.314323 0.148472
v -0.678497 0.314323 0.109014
v -0.726195 0.314323 0.100910
v -0.765653 0.314323 0.128907
v -0.620506 0.000000 -0.494837
v -0.633899 0.000000 -0.448346
v -0.610496 0.000000 -0.406001
v -0.564005 0.000000 -0.392607
v -0.521660 0.000000 -0.416010
v -0.508266 0.000000 -0.462501
v -0.531670 0.000000 -0.504846
v -0.578161 0.000000 -0.518240
v -0.620506 0.314323 -0.494837
v -0.633899 0.314323 -0.448346
v -0.610496 0.314323 -0.406001
v -0.564005 0.314323 -0.392607
v -0.521660 0.314323 -0.416010
v -0.508266 0.314323 -0.462501
v -0.531670 0.314323 -0.504846
v -0.578161 0.314323 -0.518240
v 0.000000 0.000000 -0.793656
v -0.044699 0.000000 -0.775141
v -0.063214 0.000000 -0.730442
v -0.044699 0.000000 -0.685743
v 0.000000 0.000000 -0.667229
v 0.044699 0.000000 -0.685743
v 0.063214 0.000000 -0.730443
v 0.044699 0.000000 -0.775141
v 0.000000 0.314323 -0.793656
v -0.044699 0.314323 -0.775141
v -0.063214 0.314323 -0.730442
v -0.044699 0.314323 -0.685743
v 0.000000 0.314323 -0.667229
v 0.044699 0.314323 -0.685743
v 0.063214 0.314323 -0.730443
v 0.044699 0.314323 -0.775141
v -0.429532 0.388271 -1.036981
v 0.000000 0.388271 -1.122420
v -0.793671 0.388271 -0.793671
v -1.036981 0.388271 -0.429532
v -1.122420 0.388271 0.000000
v -1.036981 0.388271 0.429532
v -0.793671 0.388271 0.793671
v -0.429532 0.388271 1.036981
v -0.000000 0.388271 1.122420
v 0.429531 0.388271 1.036981
v 0.793671 0.388271 0.793671
v 1.036981 0.388271 0.429532
v 1.122420 0.388271 -0.000000
v 1.036981 0.388271 -0.429532
v 0.793670 0.388271 -0.793671
v 0.429531 0.388271 -1.036981
v -0.164891 0.406399 -0.398082
v -0.000000 0.406399 -0.430881
v -0.304679 0.406399 -0.304679
v -0.398082 0.406399 -0.164891
v -0.430881 0.406399 -0.000000
v -0.398082 0.406399 0.164891
v -0.304679 0.406399 0.304679
v -0.164891 0.406399 0.398082
v -0.000000 0.406399 0.430881
v 0.164891 0.406399 0.398082
v 0.304679 0.406399 0.304679
v 0.398082 0.406399 0.164891
v 0.430881 0.406399 -0.000000
v 0.398082 0.406399 -0.164891
v 0.304679 0.406399 -0.304679
v 0.164891 0.406399 -0.398082
v -0.000000 0.406399 -0.000000
v 1.018541 0.406399 0.421894
v -1.102461 0.406399 0.000000
v 1.102461 0.406399 -0.000000
v -1.018541 0.406399 0.421894
v 1.018541 0.406399 -0.421894
v -0.779557 0.406399 0.779557
v 0.779557 0.406399 -0.779558
v -0.421893 0.406399 1.018541
v 0.421893 0.406399 -1.018541
v -0.000000 0.406399 1.102461
v -0.421893 0.406399 -1.018541
v 0.421893 0.406399 1.018541
v -0.779557 0.406399 -0.779558
v 0.779557 0.406399 0.779558
v -1.018541 0.406399 -0.421894
v 0.000000 0.406399 -1.102461
v 0.842411 0.406399 0.348938
v -0.911819 0.406399 0.000000
v 0.911819 0.406399 -0.000000
v -0.842411 0.406399 0.348938
v 0.842410 0.406399 -0.348938
v -0.644753 0.406399 0.644753
v 0.644753 0.406399 -0.644753
v -0.348938 0.406399 0.842411
v 0.348937 0.406399 -0.842411
v -0.000000 0.406399 0.911819
v -0.348938 0.406399 -0.842411
v 0.348938 0.406399 0.842411
v -0.644753 0.406399 -0.644753
v 0.644753 0.406399 0.644753
v -0.842411 0.406399 -0.348938
v 0.000000 0.406399 -0.911819
vt 0.565398 0.755762
vt 0.545094 0.755762
vt 0.545094 0.656346
vt 0.565398 0.656346
vt 0.524790 0.848368
vt 0.504485 0.848368
vt 0.504485 0.759042
vt 0.524790 0.759042
vt 0.565398 0.846525
vt 0.545094 0.846525
vt 0.545094 0.565695
vt 0.524790 0.565695
vt 0.524790 0.491109
vt 0.545094 0.491109
vt 0.585702 0.563413
vt 0.565398 0.563413
vt 0.565398 0.491109
vt 0.585702 0.491109
vt 0.545094 0.659780
vt 0.524790 0.659780
vt 0.585702 0.656347
vt 0.565398 0.656347
vt 0.545094 0.759042
vt 0.524790 0.759042
vt 0.585702 0.846525
vt 0.565398 0.846525
vt 0.565398 0.755762
vt 0.585702 0.755762
vt 0.545094 0.848368
vt 0.524790 0.848368
vt 0.524790 0.565695
vt 0.504485 0.565695
vt 0.504485 0.491109
vt 0.524790 0.491109
vt 0.565398 0.563413
vt 0.545094 0.563413
vt 0.545094 0.491109
vt 0.565398 0.491109
vt 0.524790 0.659780
vt 0.504485 0.659780
vt 0.778938 0.491109
vt 0.778938 0.562127
vt 0.776010 0.562127
vt 0.776010 0.491109
vt 0.395127 0.038060
vt 0.314075 0.158285
vt 0.273955 0.141815
vt 0.302417 0.000000
vt 0.202069 0.500000
vt 0.230530 0.358185
vt 0.273955 0.358185
vt 0.302417 0.500000
vt 0.230530 0.141815
vt 0.202068 0.000000
vt 0.314075 0.341715
vt 0.395127 0.461940
vt 0.190411 0.158285
vt 0.109359 0.038060
vt 0.344781 0.311282
vt 0.466084 0.391614
vt 0.159705 0.188718
vt 0.038402 0.108387
vt 0.361399 0.271519
vt 0.504485 0.299728
vt 0.000000 0.200272
vt 0.143087 0.228481
vt 0.143087 0.271519
vt 0.000000 0.299728
vt 0.361399 0.228481
vt 0.504485 0.200272
vt 0.159705 0.311282
vt 0.038402 0.391614
vt 0.344781 0.188718
vt 0.466084 0.108386
vt 0.190411 0.341715
vt 0.109359 0.461940
vt 0.252243 0.250000
vt 0.667425 0.705254
vt 0.667425 0.633872
vt 0.676463 0.633872
vt 0.676463 0.705254
vt 0.747670 0.491109
vt 0.747670 0.562491
vt 0.738856 0.562491
vt 0.738856 0.491109
vt 0.747517 0.633872
vt 0.747517 0.705254
vt 0.738703 0.705254
vt 0.738703 0.633872
vt 0.728011 0.562491
vt 0.728011 0.633872
vt 0.718973 0.633872
vt 0.718973 0.562491
vt 0.708043 0.633872
vt 0.708043 0.562491
vt 0.687393 0.633872
vt 0.687393 0.705254
vt 0.727869 0.562491
vt 0.727869 0.491109
vt 0.727716 0.705254
vt 0.727716 0.633872
vt 0.678103 0.491109
vt 0.678103 0.562491
vt 0.667449 0.562491
vt 0.667449 0.491109
vt 0.698531 0.562491
vt 0.698531 0.633872
vt 0.687779 0.633872
vt 0.687779 0.562491
vt 0.698556 0.491109
vt 0.698556 0.562491
vt 0.687803 0.562491
vt 0.687803 0.491109
vt 0.677125 0.633872
vt 0.677125 0.562491
vt 0.687779 0.562491
vt 0.687779 0.633872
vt 0.687803 0.491109
vt 0.708043 0.562491
vt 0.708043 0.633872
vt 0.708067 0.491109
vt 0.708067 0.562491
vt 0.667425 0.633872
vt 0.667425 0.562491
vt 0.585702 0.633872
vt 0.585702 0.562491
vt 0.595792 0.562491
vt 0.595792 0.633872
vt 0.626646 0.562491
vt 0.626646 0.633872
vt 0.616556 0.633872
vt 0.616556 0.562491
vt 0.585702 0.562491
vt 0.585702 0.491109
vt 0.595942 0.491109
vt 0.595942 0.562491
vt 0.626670 0.491109
vt 0.626670 0.562491
vt 0.616430 0.562491
vt 0.616430 0.491109
vt 0.606186 0.562491
vt 0.606186 0.491109
vt 0.606174 0.562491
vt 0.606174 0.633872
vt 0.606174 0.633872
vt 0.606174 0.562491
vt 0.606186 0.491109
vt 0.606186 0.562491
vt 0.636552 0.491109
vt 0.636552 0.562491
vt 0.626670 0.562491
vt 0.626670 0.491109
vt 0.637186 0.633872
vt 0.637186 0.562491
vt 0.647068 0.562491
vt 0.647068 0.633872
vt 0.657719 0.633872
vt 0.657719 0.562491
vt 0.667425 0.562491
vt 0.667425 0.633872
vt 0.656798 0.491109
vt 0.656798 0.562491
vt 0.647093 0.562491
vt 0.647093 0.491109
vt 0.626646 0.633872
vt 0.626646 0.562491
vt 0.667449 0.491109
vt 0.585702 0.705254
vt 0.585702 0.633872
vt 0.596561 0.633872
vt 0.596561 0.705254
vt 0.647068 0.705254
vt 0.647068 0.633872
vt 0.657997 0.633872
vt 0.657997 0.705254
vt 0.627096 0.705254
vt 0.627096 0.633872
vt 0.638024 0.633872
vt 0.638024 0.705254
vt 0.626646 0.633872
vt 0.626646 0.705254
vt 0.615787 0.705254
vt 0.615787 0.633872
vt 0.606530 0.705254
vt 0.606530 0.633872
vt 0.605818 0.633872
vt 0.605818 0.705254
vt 0.667041 0.633872
vt 0.667041 0.705254
vt 0.647068 0.633872
vt 0.647068 0.705254
vt 0.756186 0.491109
vt 0.756186 0.562491
vt 0.747670 0.562491
vt 0.747670 0.491109
vt 0.758881 0.633872
vt 0.758881 0.562491
vt 0.767151 0.562491
vt 0.767151 0.633872
vt 0.593972 0.705254
vt 0.593972 0.776635
vt 0.585702 0.776635
vt 0.585702 0.705254
vt 0.756033 0.633872
vt 0.756033 0.705254
vt 0.747517 0.705254
vt 0.747517 0.633872
vt 0.767227 0.491109
vt 0.767227 0.562491
vt 0.747813 0.633872
vt 0.747813 0.562491
vt 0.605040 0.705254
vt 0.605040 0.776635
vt 0.767074 0.633872
vt 0.767074 0.705254
vt 0.635358 0.776635
vt 0.635358 0.705254
vt 0.646427 0.705254
vt 0.646427 0.776635
vt 0.617599 0.705254
vt 0.617599 0.776635
vt 0.606530 0.776635
vt 0.606530 0.705254
vt 0.655075 0.776635
vt 0.655075 0.705254
vt 0.666158 0.705254
vt 0.666158 0.776635
vt 0.675431 0.776635
vt 0.675431 0.705254
vt 0.686514 0.705254
vt 0.686514 0.776635
vt 0.627096 0.776635
vt 0.627096 0.705254
vt 0.625861 0.705254
vt 0.625861 0.776635
vt 0.647068 0.776635
vt 0.647068 0.705254
vt 0.667425 0.776635
vt 0.667425 0.705254
vt 0.707747 0.705254
vt 0.707747 0.633872
vt 0.716785 0.633872
vt 0.716785 0.705254
vt 0.727869 0.491109
vt 0.727869 0.562491
vt 0.719054 0.562491
vt 0.719054 0.491109
vt 0.728011 0.633872
vt 0.728011 0.562491
vt 0.736826 0.562491
vt 0.736826 0.633872
vt 0.687779 0.705254
vt 0.687779 0.633872
vt 0.696817 0.633872
vt 0.696817 0.705254
vt 0.727716 0.633872
vt 0.727716 0.705254
vt 0.708067 0.562491
vt 0.708067 0.491109
vt 0.747813 0.562491
vt 0.747813 0.633872
vt 0.773082 0.491109
vt 0.773082 0.564368
vt 0.770154 0.564368
vt 0.770154 0.491109
vt 0.773082 0.580257
vt 0.773082 0.491109
vt 0.776010 0.580257
vt 0.767227 0.578847
vt 0.767227 0.491109
vt 0.770154 0.578847
vt 0.773082 0.677905
vt 0.776010 0.677905
vt 0.767227 0.676343
vt 0.770154 0.676343
vt 0.773082 0.769187
vt 0.776010 0.769187
vt 0.767227 0.768755
vt 0.770154 0.768755
vt 0.773082 0.840205
vt 0.776010 0.840205
vt 0.767227 0.842015
vt 0.770154 0.842015
vt 0.773082 0.754277
vt 0.773082 0.842015
vt 0.770155 0.842015
vt 0.770155 0.754277
vt 0.778938 0.653408
vt 0.778938 0.751056
vt 0.776010 0.751056
vt 0.776010 0.653408
vt 0.778938 0.840205
vt 0.776010 0.840205
vt 0.773082 0.656781
vt 0.770154 0.656781
vt 0.202961 0.995555
vt 0.301525 0.995554
vt 0.302417 1.000000
vt 0.202069 1.000000
vt 0.111899 0.958171
vt 0.109359 0.961940
vt 0.042204 0.889095
vt 0.038402 0.891614
vt 0.004485 0.798844
vt 0.000000 0.799728
vt 0.004485 0.701156
vt 0.000000 0.700272
vt 0.042204 0.610905
vt 0.038402 0.608386
vt 0.111899 0.541829
vt 0.109359 0.538060
vt 0.202961 0.504446
vt 0.202068 0.500000
vt 0.301525 0.504446
vt 0.302417 0.500000
vt 0.392586 0.541829
vt 0.395127 0.538060
vt 0.462281 0.610905
vt 0.466084 0.608386
vt 0.500000 0.701156
vt 0.504485 0.700272
vt 0.500000 0.798844
vt 0.504485 0.799728
vt 0.462281 0.889095
vt 0.466084 0.891614
vt 0.392586 0.958171
vt 0.395127 0.961940
vt 0.717971 0.074792
vt 0.732982 0.149583
vt 0.697392 0.164194
vt 0.654645 0.100789
vt 0.834333 0.299918
vt 0.752243 0.245554
vt 0.849075 0.264644
vt 0.849075 0.226465
vt 0.670152 0.191191
vt 0.655410 0.226465
vt 0.807094 0.326915
vt 0.771504 0.341526
vt 0.732982 0.341526
vt 0.771504 0.149583
vt 0.697392 0.326915
vt 0.807094 0.164194
vt 0.670152 0.299918
vt 0.834333 0.191191
vt 0.655410 0.264644
vt 0.717971 0.416317
vt 0.786514 0.416317
vt 0.786514 0.074792
vt 0.654646 0.390320
vt 0.849840 0.100789
vt 0.606178 0.342284
vt 0.898307 0.148825
vt 0.579948 0.279521
vt 0.924538 0.211588
vt 0.579948 0.211588
vt 0.898307 0.342284
vt 0.924538 0.279521
vt 1.000000 0.196711
vt 1.000000 0.294398
vt 0.606178 0.148825
vt 0.849840 0.390320
vt 0.542204 0.106459
vt 0.611899 0.037384
vt 0.892586 0.453725
vt 0.801525 0.491109
vt 0.962281 0.384650
vt 0.504485 0.196711
vt 0.504485 0.294398
vt 0.962281 0.106459
vt 0.542204 0.384650
vt 0.892586 0.037383
vt 0.611900 0.453726
vt 0.801525 0.000000
vt 0.702961 0.491109
vt 0.702961 0.000000
vn 0.9808 0.0000 0.1951
vn -0.9808 0.0000 0.1951
vn 0.9808 0.0000 -0.1951
vn -0.8315 0.0000 0.5556
vn 0.8315 0.0000 -0.5556
vn -0.5556 0.0000 0.8315
vn 0.5556 0.0000 -0.8315
vn -0.1951 0.0000 0.9808
vn -0.1951 0.0000 -0.9808
vn 0.1951 0.0000 -0.9808
vn 0.1951 0.0000 0.9808
vn -0.5556 0.0000 -0.8315
vn 0.5556 0.0000 0.8315
vn -0.8315 0.0000 -0.5556
vn 0.8315 0.0000 0.5556
vn -0.9808 0.0000 -0.1951
vn 0.0000 -1.0000 0.0000
vn 0.9239 0.0000 -0.3827
vn 0.3827 0.0000 0.9239
vn -0.9239 0.0000 0.3827
vn -0.3827 0.0000 -0.9239
vn 0.3827 0.0000 -0.9239
vn 0.9239 0.0000 0.3827
vn -0.3827 0.0000 0.9239
vn -0.9239 0.0000 -0.3827
vn 0.8752 0.0000 0.4837
vn -0.4837 0.0000 0.8752
vn -0.8752 0.0000 -0.4837
vn 0.4837 0.0000 -0.8752
vn 0.9609 0.0000 -0.2768
vn 0.2768 0.0000 0.9609
vn -0.9609 0.0000 0.2768
vn -0.2768 0.0000 -0.9609
vn 0.1675 0.0000 0.9859
vn -0.9859 0.0000 0.1675
vn -0.1675 0.0000 -0.9859
vn 0.9859 0.0000 -0.1675
vn 0.8156 0.0000 0.5787
vn -0.5787 0.0000 0.8156
vn -0.8156 0.0000 -0.5787
vn 0.5787 0.0000 -0.8156
vn -0.6663 0.0000 0.7456
vn -0.7456 0.0000 -0.6663
vn 0.6663 0.0000 -0.7456
vn 0.7456 0.0000 0.6663
vn 0.0561 0.0000 0.9984
vn -0.9984 0.0000 0.0561
vn -0.0561 0.0000 -0.9984
vn 0.9984 0.0000 -0.0561
vn -0.9984 0.0000 -0.0561
vn 0.0561 0.0000 -0.9984
vn 0.9984 0.0000 0.0561
vn -0.0561 0.0000 0.9984
vn -0.7456 0.0000 0.6663
vn -0.6663 0.0000 -0.7456
vn 0.7456 0.0000 -0.6663
vn 0.6663 0.0000 0.7456
vn -0.5787 0.0000 -0.8156
vn 0.8156 0.0000 -0.5787
vn 0.5787 0.0000 0.8156
vn -0.8156 0.0000 0.5787
vn -0.9859 0.0000 -0.1675
vn 0.1675 0.0000 -0.9859
vn 0.9859 0.0000 0.1675
vn -0.1675 0.0000 0.9859
vn 0.2768 0.0000 -0.9609
vn 0.9609 0.0000 0.2768
vn -0.2768 0.0000 0.9609
vn -0.9609 0.0000 -0.2768
vn -0.4837 0.0000 -0.8752
vn 0.8752 0.0000 -0.4837
vn 0.4837 0.0000 0.8752
vn -0.8752 0.0000 0.4837
vn 0.0000 1.0000 0.0000
usemtl Coffee_Table
s off
f 13/1/1 190/2/1 189/3/1 12/4/1
f 6/5/2 183/6/2 182/7/2 5/8/2
f 14/9/3 191/10/3 190/2/3 13/1/3
f 7/11/4 184/12/4 183/13/4 6/14/4
f 15/15/5 192/16/5 191/17/5 14/18/5
f 8/19/6 185/20/6 184/12/6 7/11/6
f 16/21/7 193/22/7 192/16/7 15/15/7
f 9/23/8 186/24/8 185/20/8 8/19/8
f 2/25/9 178/26/9 179/27/9 1/28/9
f 1/28/10 179/27/10 193/22/10 16/21/10
f 10/29/11 187/30/11 186/24/11 9/23/11
f 3/31/12 180/32/12 178/33/12 2/34/12
f 11/35/13 188/36/13 187/37/13 10/38/13
f 4/39/14 181/40/14 180/32/14 3/31/14
f 12/4/15 189/3/15 188/36/15 11/35/15
f 5/8/16 182/7/16 181/40/16 4/39/16
f 30/41/5 31/42/5 217/43/5 215/44/5
f 12/45/17 36/46/17 35/47/17 13/48/17
f 5/49/17 43/50/17 42/51/17 6/52/17
f 13/48/17 35/47/17 34/53/17 14/54/17
f 6/52/17 42/51/17 41/55/17 7/56/17
f 14/54/17 34/53/17 33/57/17 15/58/17
f 7/56/17 41/55/17 40/59/17 8/60/17
f 15/58/17 33/57/17 48/61/17 16/62/17
f 8/60/17 40/59/17 39/63/17 9/64/17
f 1/65/17 47/66/17 46/67/17 2/68/17
f 16/62/17 48/61/17 47/66/17 1/65/17
f 9/64/17 39/63/17 38/69/17 10/70/17
f 2/68/17 46/67/17 45/71/17 3/72/17
f 10/70/17 38/69/17 37/73/17 11/74/17
f 3/72/17 45/71/17 44/75/17 4/76/17
f 11/74/17 37/73/17 36/46/17 12/45/17
f 4/76/17 44/75/17 43/50/17 5/49/17
f 36/46/17 49/77/17 35/47/17
f 44/75/17 49/77/17 43/50/17
f 37/73/17 49/77/17 36/46/17
f 45/71/17 49/77/17 44/75/17
f 38/69/17 49/77/17 37/73/17
f 48/61/17 49/77/17 47/66/17
f 46/67/17 49/77/17 45/71/17
f 39/63/17 49/77/17 38/69/17
f 47/66/17 49/77/17 46/67/17
f 40/59/17 49/77/17 39/63/17
f 33/57/17 49/77/17 48/61/17
f 41/55/17 49/77/17 40/59/17
f 34/53/17 49/77/17 33/57/17
f 42/51/17 49/77/17 41/55/17
f 35/47/17 49/77/17 34/53/17
f 43/50/17 49/77/17 42/51/17
f 57/78/18 65/79/18 64/80/18 56/81/18
f 55/82/19 63/83/19 62/84/19 54/85/19
f 53/86/20 61/87/20 60/88/20 52/89/20
f 51/90/21 59/91/21 58/92/21 50/93/21
f 50/93/22 58/92/22 65/94/22 57/95/22
f 56/81/23 64/80/23 63/96/23 55/97/23
f 54/85/24 62/84/24 61/98/24 53/99/24
f 52/89/25 60/88/25 59/100/25 51/101/25
f 73/102/26 81/103/26 80/104/26 72/105/26
f 71/106/27 79/107/27 78/108/27 70/109/27
f 69/110/28 77/111/28 76/112/28 68/113/28
f 67/114/29 75/115/29 74/116/29 66/117/29
f 66/118/30 74/116/30 81/103/30 73/102/30
f 72/119/31 80/120/31 79/107/31 71/106/31
f 70/121/32 78/122/32 77/111/32 69/110/32
f 68/123/33 76/124/33 75/115/33 67/114/33
f 89/125/34 97/126/34 96/127/34 88/128/34
f 87/129/35 95/130/35 94/131/35 86/132/35
f 85/133/36 93/134/36 92/135/36 84/136/36
f 83/137/37 91/138/37 90/139/37 82/140/37
f 82/140/38 90/139/38 97/141/38 89/142/38
f 88/128/39 96/127/39 95/143/39 87/144/39
f 86/132/40 94/131/40 93/145/40 85/146/40
f 84/136/41 92/135/41 91/147/41 83/148/41
f 105/149/42 113/150/42 112/151/42 104/152/42
f 103/153/43 111/154/43 110/155/43 102/156/43
f 101/157/44 109/158/44 108/159/44 100/160/44
f 99/161/45 107/162/45 106/163/45 98/164/45
f 98/164/46 106/163/46 113/150/46 105/149/46
f 104/165/47 112/166/47 111/154/47 103/153/47
f 102/156/48 110/155/48 109/158/48 101/157/48
f 100/167/49 108/159/49 107/162/49 99/161/49
f 121/168/50 129/169/50 128/170/50 120/171/50
f 119/172/51 127/173/51 126/174/51 118/175/51
f 117/176/52 125/177/52 124/178/52 116/179/52
f 115/180/53 123/181/53 122/182/53 114/183/53
f 114/183/54 122/182/54 129/184/54 121/185/54
f 120/171/55 128/170/55 127/186/55 119/187/55
f 118/175/56 126/174/56 125/188/56 117/189/56
f 116/179/57 124/178/57 123/190/57 115/191/57
f 137/192/58 145/193/58 144/194/58 136/195/58
f 135/196/59 143/197/59 142/198/59 134/199/59
f 133/200/60 141/201/60 140/202/60 132/203/60
f 131/204/61 139/205/61 138/206/61 130/207/61
f 130/208/62 138/209/62 145/193/62 137/192/62
f 136/210/63 144/211/63 143/197/63 135/196/63
f 134/212/64 142/213/64 141/201/64 133/200/64
f 132/214/65 140/215/65 139/205/65 131/204/65
f 153/216/66 161/217/66 160/218/66 152/219/66
f 151/220/67 159/221/67 158/222/67 150/223/67
f 149/224/68 157/225/68 156/226/68 148/227/68
f 147/228/69 155/229/69 154/230/69 146/231/69
f 146/232/70 154/233/70 161/217/70 153/216/70
f 152/234/71 160/235/71 159/221/71 151/220/71
f 150/236/72 158/237/72 157/225/72 149/224/72
f 148/238/73 156/239/73 155/229/73 147/228/73
f 169/240/18 177/241/18 176/242/18 168/243/18
f 167/244/19 175/245/19 174/246/19 166/247/19
f 165/248/20 173/249/20 172/250/20 164/251/20
f 163/252/21 171/253/21 170/254/21 162/255/21
f 162/255/22 170/254/22 177/241/22 169/240/22
f 168/243/23 176/242/23 175/256/23 167/257/23
f 166/247/24 174/246/24 173/258/24 165/259/24
f 164/251/25 172/250/25 171/260/25 163/261/25
f 22/262/4 23/263/4 216/264/4 214/265/4
f 29/266/3 30/267/3 215/44/3 213/268/3
f 21/269/2 22/270/2 214/265/2 212/271/2
f 28/272/1 29/266/1 213/268/1 211/273/1
f 20/274/16 21/269/16 212/271/16 225/275/16
f 27/276/15 28/272/15 211/273/15 224/277/15
f 19/278/14 20/274/14 225/275/14 223/279/14
f 26/280/13 27/276/13 224/277/13 222/281/13
f 18/282/12 19/278/12 223/279/12 221/283/12
f 25/284/11 26/285/11 222/286/11 220/287/11
f 32/288/10 17/289/10 226/290/10 219/291/10
f 17/289/9 18/292/9 221/293/9 226/290/9
f 24/294/8 25/284/8 220/287/8 218/295/8
f 31/42/7 32/288/7 219/291/7 217/43/7
f 23/263/6 24/294/6 218/295/6 216/264/6
f 18/296/74 17/297/74 179/298/74 178/299/74
f 19/300/74 18/296/74 178/299/74 180/301/74
f 20/302/74 19/300/74 180/301/74 181/303/74
f 21/304/74 20/302/74 181/303/74 182/305/74
f 22/306/74 21/304/74 182/305/74 183/307/74
f 23/308/74 22/306/74 183/307/74 184/309/74
f 24/310/74 23/308/74 184/309/74 185/311/74
f 25/312/74 24/310/74 185/311/74 186/313/74
f 26/314/74 25/312/74 186/313/74 187/315/74
f 27/316/74 26/314/74 187/315/74 188/317/74
f 28/318/74 27/316/74 188/317/74 189/319/74
f 29/320/74 28/318/74 189/319/74 190/321/74
f 30/322/74 29/320/74 190/321/74 191/323/74
f 31/324/74 30/322/74 191/323/74 192/325/74
f 32/326/74 31/324/74 192/325/74 193/327/74
f 17/297/74 32/326/74 193/327/74 179/298/74
f 227/328/74 205/329/74 204/330/74 240/331/74
f 194/332/74 210/333/74 195/334/74
f 195/334/74 210/333/74 209/335/74
f 203/336/74 210/333/74 202/337/74
f 196/338/74 210/333/74 194/332/74
f 204/330/74 210/333/74 203/336/74
f 197/339/74 210/333/74 196/338/74
f 205/329/74 210/333/74 204/330/74
f 198/340/74 210/333/74 197/339/74
f 206/341/74 210/333/74 205/329/74
f 199/342/74 210/333/74 198/340/74
f 207/343/74 210/333/74 206/341/74
f 200/344/74 210/333/74 199/342/74
f 208/345/74 210/333/74 207/343/74
f 201/346/74 210/333/74 200/344/74
f 209/335/74 210/333/74 208/345/74
f 202/337/74 210/333/74 201/346/74
f 228/347/74 198/340/74 197/339/74 241/348/74
f 229/349/74 206/341/74 205/329/74 227/328/74
f 230/350/74 199/342/74 198/340/74 228/347/74
f 231/351/74 207/343/74 206/341/74 229/349/74
f 232/352/74 200/344/74 199/342/74 230/350/74
f 233/353/74 208/345/74 207/343/74 231/351/74
f 234/354/74 201/346/74 200/344/74 232/352/74
f 235/355/74 209/335/74 208/345/74 233/353/74
f 236/356/74 202/337/74 201/346/74 234/354/74
f 237/357/74 194/332/74 195/334/74 242/358/74
f 242/358/74 235/355/74 219/359/74 226/360/74
f 238/361/74 203/336/74 202/337/74 236/356/74
f 239/362/74 196/338/74 194/332/74 237/357/74
f 240/331/74 238/361/74 222/363/74 224/364/74
f 241/348/74 239/362/74 223/365/74 225/366/74
f 197/339/74 196/338/74 239/362/74 241/348/74
f 204/330/74 203/336/74 238/361/74 240/331/74
f 223/365/74 239/362/74 237/357/74 221/367/74
f 222/363/74 238/361/74 236/356/74 220/368/74
f 195/334/74 209/335/74 235/355/74 242/358/74
f 221/367/74 237/357/74 242/358/74 226/360/74
f 220/368/74 236/356/74 234/354/74 218/369/74
f 219/359/74 235/355/74 233/353/74 217/370/74
f 218/369/74 234/354/74 232/352/74 216/371/74
f 217/370/74 233/353/74 231/351/74 215/372/74
f 216/371/74 232/352/74 230/350/74 214/373/74
f 215/372/74 231/351/74 229/349/74 213/374/74
f 214/373/74 230/350/74 228/347/74 212/375/74
f 213/374/74 229/349/74 227/328/74 211/376/74
f 212/375/74 228/347/74 241/348/74 225/366/74
f 211/376/74 227/328/74 240/331/74 224/364/74
