solid 
facet normal -0.980785 -0.19509 -0
outer loop
vertex 4.5 0 -0.1049999967
vertex 4.5 0 0.1049999967
vertex 4.157457829 1.722075462 0.1049999967

endloop
endfacet
facet normal -0.9807853103 -0.1950903684 0
outer loop
vertex 4.157457829 1.722075462 0.1049999967
vertex 4.157457829 1.722075462 -0.1049999967
vertex 4.5 0 -0.1049999967

endloop
endfacet
facet normal 0 0 1
outer loop
vertex 0 0 -0.1049999967
vertex 4.5 0 -0.1049999967
vertex 4.157457829 1.722075462 -0.1049999967

endloop
endfacet
facet normal 0 -0 -1
outer loop
vertex 0 0 0.1049999967
vertex 4.157457829 1.722075462 0.1049999967
vertex 4.5 0 0.1049999967

endloop
endfacet
facet normal -0.831469655 -0.5555701852 -0
outer loop
vertex 4.157457829 1.722075462 -0.1049999967
vertex 4.157457829 1.722075462 0.1049999967
vertex 3.18198061 3.18198061 0.1049999967

endloop
endfacet
facet normal -0.831469655 -0.5555701852 0
outer loop
vertex 3.18198061 3.18198061 0.1049999967
vertex 3.18198061 3.18198061 -0.1049999967
vertex 4.157457829 1.722075462 -0.1049999967

endloop
endfacet
facet normal 0 0 1
outer loop
vertex 0 0 -0.1049999967
vertex 4.157457829 1.722075462 -0.1049999967
vertex 3.18198061 3.18198061 -0.1049999967

endloop
endfacet
facet normal 0 -0 -1
outer loop
vertex 0 0 0.1049999967
vertex 3.18198061 3.18198061 0.1049999967
vertex 4.157457829 1.722075462 0.1049999967

endloop
endfacet
facet normal -0.5555701852 -0.831469655 -0
outer loop
vertex 3.18198061 3.18198061 -0.1049999967
vertex 3.18198061 3.18198061 0.1049999967
vertex 1.722075462 4.157457829 0.1049999967

endloop
endfacet
facet normal -0.5555701852 -0.831469655 0
outer loop
vertex 1.722075462 4.157457829 0.1049999967
vertex 1.722075462 4.157457829 -0.1049999967
vertex 3.18198061 3.18198061 -0.1049999967

endloop
endfacet
facet normal 0 0 1
outer loop
vertex 0 0 -0.1049999967
vertex 3.18198061 3.18198061 -0.1049999967
vertex 1.722075462 4.157457829 -0.1049999967

endloop
endfacet
facet normal 0 -0 -1
outer loop
vertex 0 0 0.1049999967
vertex 1.722075462 4.157457829 0.1049999967
vertex 3.18198061 3.18198061 0.1049999967

endloop
endfacet
facet normal -0.1950903684 -0.9807853103 -0
outer loop
vertex 1.722075462 4.157457829 -0.1049999967
vertex 1.722075462 4.157457829 0.1049999967
vertex 2.755455352e-16 4.5 0.1049999967

endloop
endfacet
facet normal -0.1950903684 -0.9807853103 0
outer loop
vertex 2.755455352e-16 4.5 0.1049999967
vertex 2.755455352e-16 4.5 -0.1049999967
vertex 1.722075462 4.157457829 -0.1049999967

endloop
endfacet
facet normal 0 0 1
outer loop
vertex 0 0 -0.1049999967
vertex 1.722075462 4.157457829 -0.1049999967
vertex 2.755455352e-16 4.5 -0.1049999967

endloop
endfacet
facet normal 0 -0 -1
outer loop
vertex 0 0 0.1049999967
vertex 2.755455352e-16 4.5 0.1049999967
vertex 1.722075462 4.157457829 0.1049999967

endloop
endfacet
facet normal 0.1950903684 -0.9807853103 0
outer loop
vertex 2.755455352e-16 4.5 -0.1049999967
vertex 2.755455352e-16 4.5 0.1049999967
vertex -1.722075462 4.157457829 0.1049999967

endloop
endfacet
facet normal 0.1950903684 -0.9807853103 0
outer loop
vertex -1.722075462 4.157457829 0.1049999967
vertex -1.722075462 4.157457829 -0.1049999967
vertex 2.755455352e-16 4.5 -0.1049999967

endloop
endfacet
facet normal 0 0 1
outer loop
vertex 0 0 -0.1049999967
vertex 2.755455352e-16 4.5 -0.1049999967
vertex -1.722075462 4.157457829 -0.1049999967

endloop
endfacet
facet normal 0 0 -1
outer loop
vertex 0 0 0.1049999967
vertex -1.722075462 4.157457829 0.1049999967
vertex 2.755455352e-16 4.5 0.1049999967

endloop
endfacet
facet normal 0.5555701852 -0.831469655 0
outer loop
vertex -1.722075462 4.157457829 -0.1049999967
vertex -1.722075462 4.157457829 0.1049999967
vertex -3.18198061 3.18198061 0.1049999967

endloop
endfacet
facet normal 0.5555701852 -0.831469655 0
outer loop
vertex -3.18198061 3.18198061 0.1049999967
vertex -3.18198061 3.18198061 -0.1049999967
vertex -1.722075462 4.157457829 -0.1049999967

endloop
endfacet
facet normal 0 0 1
outer loop
vertex 0 0 -0.1049999967
vertex -1.722075462 4.157457829 -0.1049999967
vertex -3.18198061 3.18198061 -0.1049999967

endloop
endfacet
facet normal 0 0 -1
outer loop
vertex 0 0 0.1049999967
vertex -3.18198061 3.18198061 0.1049999967
vertex -1.722075462 4.157457829 0.1049999967

endloop
endfacet
facet normal 0.831469655 -0.5555701852 0
outer loop
vertex -3.18198061 3.18198061 -0.1049999967
vertex -3.18198061 3.18198061 0.1049999967
vertex -4.157457829 1.722075462 0.1049999967

endloop
endfacet
facet normal 0.831469655 -0.5555701852 0
outer loop
vertex -4.157457829 1.722075462 0.1049999967
vertex -4.157457829 1.722075462 -0.1049999967
vertex -3.18198061 3.18198061 -0.1049999967

endloop
endfacet
facet normal 0 0 1
outer loop
vertex 0 0 -0.1049999967
vertex -3.18198061 3.18198061 -0.1049999967
vertex -4.157457829 1.722075462 -0.1049999967

endloop
endfacet
facet normal 0 0 -1
outer loop
vertex 0 0 0.1049999967
vertex -4.157457829 1.722075462 0.1049999967
vertex -3.18198061 3.18198061 0.1049999967

endloop
endfacet
facet normal 0.9807853103 -0.1950903684 0
outer loop
vertex -4.157457829 1.722075462 -0.1049999967
vertex -4.157457829 1.722075462 0.1049999967
vertex -4.5 5.510910704e-16 0.1049999967

endloop
endfacet
facet normal 0.9807853103 -0.1950903684 0
outer loop
vertex -4.5 5.510910704e-16 0.1049999967
vertex -4.5 5.510910704e-16 -0.1049999967
vertex -4.157457829 1.722075462 -0.1049999967

endloop
endfacet
facet normal 0 0 1
outer loop
vertex 0 0 -0.1049999967
vertex -4.157457829 1.722075462 -0.1049999967
vertex -4.5 5.510910704e-16 -0.1049999967

endloop
endfacet
facet normal 0 0 -1
outer loop
vertex 0 0 0.1049999967
vertex -4.5 5.510910704e-16 0.1049999967
vertex -4.157457829 1.722075462 0.1049999967

endloop
endfacet
facet normal 0.9807853103 0.1950903684 0
outer loop
vertex -4.5 5.510910704e-16 -0.1049999967
vertex -4.5 5.510910704e-16 0.1049999967
vertex -4.157457829 -1.722075462 0.1049999967

endloop
endfacet
facet normal 0.9807853103 0.1950903684 -0
outer loop
vertex -4.157457829 -1.722075462 0.1049999967
vertex -4.157457829 -1.722075462 -0.1049999967
vertex -4.5 5.510910704e-16 -0.1049999967

endloop
endfacet
facet normal 0 0 1
outer loop
vertex 0 0 -0.1049999967
vertex -4.5 5.510910704e-16 -0.1049999967
vertex -4.157457829 -1.722075462 -0.1049999967

endloop
endfacet
facet normal 0 0 -1
outer loop
vertex 0 0 0.1049999967
vertex -4.157457829 -1.722075462 0.1049999967
vertex -4.5 5.510910704e-16 0.1049999967

endloop
endfacet
facet normal 0.831469655 0.5555701852 0
outer loop
vertex -4.157457829 -1.722075462 -0.1049999967
vertex -4.157457829 -1.722075462 0.1049999967
vertex -3.18198061 -3.18198061 0.1049999967

endloop
endfacet
facet normal 0.831469655 0.5555701852 -0
outer loop
vertex -3.18198061 -3.18198061 0.1049999967
vertex -3.18198061 -3.18198061 -0.1049999967
vertex -4.157457829 -1.722075462 -0.1049999967

endloop
endfacet
facet normal -0 0 1
outer loop
vertex 0 0 -0.1049999967
vertex -4.157457829 -1.722075462 -0.1049999967
vertex -3.18198061 -3.18198061 -0.1049999967

endloop
endfacet
facet normal 0 0 -1
outer loop
vertex 0 0 0.1049999967
vertex -3.18198061 -3.18198061 0.1049999967
vertex -4.157457829 -1.722075462 0.1049999967

endloop
endfacet
facet normal 0.5555701852 0.831469655 0
outer loop
vertex -3.18198061 -3.18198061 -0.1049999967
vertex -3.18198061 -3.18198061 0.1049999967
vertex -1.722075462 -4.157457829 0.1049999967

endloop
endfacet
facet normal 0.5555701852 0.831469655 -0
outer loop
vertex -1.722075462 -4.157457829 0.1049999967
vertex -1.722075462 -4.157457829 -0.1049999967
vertex -3.18198061 -3.18198061 -0.1049999967

endloop
endfacet
facet normal -0 0 1
outer loop
vertex 0 0 -0.1049999967
vertex -3.18198061 -3.18198061 -0.1049999967
vertex -1.722075462 -4.157457829 -0.1049999967

endloop
endfacet
facet normal 0 0 -1
outer loop
vertex 0 0 0.1049999967
vertex -1.722075462 -4.157457829 0.1049999967
vertex -3.18198061 -3.18198061 0.1049999967

endloop
endfacet
facet normal 0.1950903684 0.9807853103 0
outer loop
vertex -1.722075462 -4.157457829 -0.1049999967
vertex -1.722075462 -4.157457829 0.1049999967
vertex -8.266366056e-16 -4.5 0.1049999967

endloop
endfacet
facet normal 0.1950903684 0.9807853103 -0
outer loop
vertex -8.266366056e-16 -4.5 0.1049999967
vertex -8.266366056e-16 -4.5 -0.1049999967
vertex -1.722075462 -4.157457829 -0.1049999967

endloop
endfacet
facet normal -0 0 1
outer loop
vertex 0 0 -0.1049999967
vertex -1.722075462 -4.157457829 -0.1049999967
vertex -8.266366056e-16 -4.5 -0.1049999967

endloop
endfacet
facet normal 0 0 -1
outer loop
vertex 0 0 0.1049999967
vertex -8.266366056e-16 -4.5 0.1049999967
vertex -1.722075462 -4.157457829 0.1049999967

endloop
endfacet
facet normal -0.1950903684 0.9807853103 0
outer loop
vertex -8.266366056e-16 -4.5 -0.1049999967
vertex -8.266366056e-16 -4.5 0.1049999967
vertex 1.722075462 -4.157457829 0.1049999967

endloop
endfacet
facet normal -0.1950903684 0.9807853103 0
outer loop
vertex 1.722075462 -4.157457829 0.1049999967
vertex 1.722075462 -4.157457829 -0.1049999967
vertex -8.266366056e-16 -4.5 -0.1049999967

endloop
endfacet
facet normal 0 0 1
outer loop
vertex 0 0 -0.1049999967
vertex -8.266366056e-16 -4.5 -0.1049999967
vertex 1.722075462 -4.157457829 -0.1049999967

endloop
endfacet
facet normal -0 0 -1
outer loop
vertex 0 0 0.1049999967
vertex 1.722075462 -4.157457829 0.1049999967
vertex -8.266366056e-16 -4.5 0.1049999967

endloop
endfacet
facet normal -0.5555701852 0.831469655 0
outer loop
vertex 1.722075462 -4.157457829 -0.1049999967
vertex 1.722075462 -4.157457829 0.1049999967
vertex 3.18198061 -3.18198061 0.1049999967

endloop
endfacet
facet normal -0.5555701852 0.831469655 0
outer loop
vertex 3.18198061 -3.18198061 0.1049999967
vertex 3.18198061 -3.18198061 -0.1049999967
vertex 1.722075462 -4.157457829 -0.1049999967

endloop
endfacet
facet normal 0 -0 1
outer loop
vertex 0 0 -0.1049999967
vertex 1.722075462 -4.157457829 -0.1049999967
vertex 3.18198061 -3.18198061 -0.1049999967

endloop
endfacet
facet normal -0 0 -1
outer loop
vertex 0 0 0.1049999967
vertex 3.18198061 -3.18198061 0.1049999967
vertex 1.722075462 -4.157457829 0.1049999967

endloop
endfacet
facet normal -0.831469655 0.5555701852 0
outer loop
vertex 3.18198061 -3.18198061 -0.1049999967
vertex 3.18198061 -3.18198061 0.1049999967
vertex 4.157457829 -1.722075462 0.1049999967

endloop
endfacet
facet normal -0.831469655 0.5555701852 0
outer loop
vertex 4.157457829 -1.722075462 0.1049999967
vertex 4.157457829 -1.722075462 -0.1049999967
vertex 3.18198061 -3.18198061 -0.1049999967

endloop
endfacet
facet normal 0 -0 1
outer loop
vertex 0 0 -0.1049999967
vertex 3.18198061 -3.18198061 -0.1049999967
vertex 4.157457829 -1.722075462 -0.1049999967

endloop
endfacet
facet normal -0 0 -1
outer loop
vertex 0 0 0.1049999967
vertex 4.157457829 -1.722075462 0.1049999967
vertex 3.18198061 -3.18198061 0.1049999967

endloop
endfacet
facet normal -0.9807853103 0.1950903684 0
outer loop
vertex 4.157457829 -1.722075462 -0.1049999967
vertex 4.157457829 -1.722075462 0.1049999967
vertex 4.5 -1.102182141e-15 0.1049999967

endloop
endfacet
facet normal -0.9807853103 0.1950903684 0
outer loop
vertex 4.5 -1.102182141e-15 0.1049999967
vertex 4.5 -1.102182141e-15 -0.1049999967
vertex 4.157457829 -1.722075462 -0.1049999967

endloop
endfacet
facet normal 0 -0 1
outer loop
vertex 0 0 -0.1049999967
vertex 4.157457829 -1.722075462 -0.1049999967
vertex 4.5 -1.102182141e-15 -0.1049999967

endloop
endfacet
facet normal -0 0 -1
outer loop
vertex 0 0 0.1049999967
vertex 4.5 -1.102182141e-15 0.1049999967
vertex 4.157457829 -1.722075462 0.1049999967

endloop
endfacet
endsolid
