solid 
facet normal -0.980785 -0.19509 -0
outer loop
vertex 1.5 0 -0.1000000015
vertex 1.5 0 0.1000000015
vertex 1.385819316 0.5740251541 0.1000000015

endloop
endfacet
facet normal -0.9807852507 -0.195090279 0
outer loop
vertex 1.385819316 0.5740251541 0.1000000015
vertex 1.385819316 0.5740251541 -0.1000000015
vertex 1.5 0 -0.1000000015

endloop
endfacet
facet normal 0 0 1
outer loop
vertex 0 0 -0.1000000015
vertex 1.5 0 -0.1000000015
vertex 1.385819316 0.5740251541 -0.1000000015

endloop
endfacet
facet normal 0 -0 -1
outer loop
vertex 0 0 0.1000000015
vertex 1.385819316 0.5740251541 0.1000000015
vertex 1.5 0 0.1000000015

endloop
endfacet
facet normal -0.8314695358 -0.555570364 -0
outer loop
vertex 1.385819316 0.5740251541 -0.1000000015
vertex 1.385819316 0.5740251541 0.1000000015
vertex 1.060660124 1.060660124 0.1000000015

endloop
endfacet
facet normal -0.8314695358 -0.555570364 0
outer loop
vertex 1.060660124 1.060660124 0.1000000015
vertex 1.060660124 1.060660124 -0.1000000015
vertex 1.385819316 0.5740251541 -0.1000000015

endloop
endfacet
facet normal 0 0 1
outer loop
vertex 0 0 -0.1000000015
vertex 1.385819316 0.5740251541 -0.1000000015
vertex 1.060660124 1.060660124 -0.1000000015

endloop
endfacet
facet normal 0 -0 -1
outer loop
vertex 0 0 0.1000000015
vertex 1.060660124 1.060660124 0.1000000015
vertex 1.385819316 0.5740251541 0.1000000015

endloop
endfacet
facet normal -0.555570364 -0.8314695358 -0
outer loop
vertex 1.060660124 1.060660124 -0.1000000015
vertex 1.060660124 1.060660124 0.1000000015
vertex 0.5740251541 1.385819316 0.1000000015

endloop
endfacet
facet normal -0.555570364 -0.8314695358 0
outer loop
vertex 0.5740251541 1.385819316 0.1000000015
vertex 0.5740251541 1.385819316 -0.1000000015
vertex 1.060660124 1.060660124 -0.1000000015

endloop
endfacet
facet normal 0 0 1
outer loop
vertex 0 0 -0.1000000015
vertex 1.060660124 1.060660124 -0.1000000015
vertex 0.5740251541 1.385819316 -0.1000000015

endloop
endfacet
facet normal 0 -0 -1
outer loop
vertex 0 0 0.1000000015
vertex 0.5740251541 1.385819316 0.1000000015
vertex 1.060660124 1.060660124 0.1000000015

endloop
endfacet
facet normal -0.195090279 -0.9807852507 -0
outer loop
vertex 0.5740251541 1.385819316 -0.1000000015
vertex 0.5740251541 1.385819316 0.1000000015
vertex 9.184850733e-17 1.5 0.1000000015

endloop
endfacet
facet normal -0.195090279 -0.9807852507 0
outer loop
vertex 9.184850733e-17 1.5 0.1000000015
vertex 9.184850733e-17 1.5 -0.1000000015
vertex 0.5740251541 1.385819316 -0.1000000015

endloop
endfacet
facet normal 0 0 1
outer loop
vertex 0 0 -0.1000000015
vertex 0.5740251541 1.385819316 -0.1000000015
vertex 9.184850733e-17 1.5 -0.1000000015

endloop
endfacet
facet normal 0 -0 -1
outer loop
vertex 0 0 0.1000000015
vertex 9.184850733e-17 1.5 0.1000000015
vertex 0.5740251541 1.385819316 0.1000000015

endloop
endfacet
facet normal 0.195090279 -0.9807852507 0
outer loop
vertex 9.184850733e-17 1.5 -0.1000000015
vertex 9.184850733e-17 1.5 0.1000000015
vertex -0.5740251541 1.385819316 0.1000000015

endloop
endfacet
facet normal 0.195090279 -0.9807852507 0
outer loop
vertex -0.5740251541 1.385819316 0.1000000015
vertex -0.5740251541 1.385819316 -0.1000000015
vertex 9.184850733e-17 1.5 -0.1000000015

endloop
endfacet
facet normal 0 0 1
outer loop
vertex 0 0 -0.1000000015
vertex 9.184850733e-17 1.5 -0.1000000015
vertex -0.5740251541 1.385819316 -0.1000000015

endloop
endfacet
facet normal 0 0 -1
outer loop
vertex 0 0 0.1000000015
vertex -0.5740251541 1.385819316 0.1000000015
vertex 9.184850733e-17 1.5 0.1000000015

endloop
endfacet
facet normal 0.555570364 -0.8314695358 0
outer loop
vertex -0.5740251541 1.385819316 -0.1000000015
vertex -0.5740251541 1.385819316 0.1000000015
vertex -1.060660124 1.060660124 0.1000000015

endloop
endfacet
facet normal 0.555570364 -0.8314695358 0
outer loop
vertex -1.060660124 1.060660124 0.1000000015
vertex -1.060660124 1.060660124 -0.1000000015
vertex -0.5740251541 1.385819316 -0.1000000015

endloop
endfacet
facet normal 0 0 1
outer loop
vertex 0 0 -0.1000000015
vertex -0.5740251541 1.385819316 -0.1000000015
vertex -1.060660124 1.060660124 -0.1000000015

endloop
endfacet
facet normal 0 0 -1
outer loop
vertex 0 0 0.1000000015
vertex -1.060660124 1.060660124 0.1000000015
vertex -0.5740251541 1.385819316 0.1000000015

endloop
endfacet
facet normal 0.8314695358 -0.555570364 0
outer loop
vertex -1.060660124 1.060660124 -0.1000000015
vertex -1.060660124 1.060660124 0.1000000015
vertex -1.385819316 0.5740251541 0.1000000015

endloop
endfacet
facet normal 0.8314695358 -0.555570364 0
outer loop
vertex -1.385819316 0.5740251541 0.1000000015
vertex -1.385819316 0.5740251541 -0.1000000015
vertex -1.060660124 1.060660124 -0.1000000015

endloop
endfacet
facet normal 0 0 1
outer loop
vertex 0 0 -0.1000000015
vertex -1.060660124 1.060660124 -0.1000000015
vertex -1.385819316 0.5740251541 -0.1000000015

endloop
endfacet
facet normal 0 0 -1
outer loop
vertex 0 0 0.1000000015
vertex -1.385819316 0.5740251541 0.1000000015
vertex -1.060660124 1.060660124 0.1000000015

endloop
endfacet
facet normal 0.9807852507 -0.195090279 0
outer loop
vertex -1.385819316 0.5740251541 -0.1000000015
vertex -1.385819316 0.5740251541 0.1000000015
vertex -1.5 1.836970147e-16 0.1000000015

endloop
endfacet
facet normal 0.9807852507 -0.195090279 0
outer loop
vertex -1.5 1.836970147e-16 0.1000000015
vertex -1.5 1.836970147e-16 -0.1000000015
vertex -1.385819316 0.5740251541 -0.1000000015

endloop
endfacet
facet normal 0 0 1
outer loop
vertex 0 0 -0.1000000015
vertex -1.385819316 0.5740251541 -0.1000000015
vertex -1.5 1.836970147e-16 -0.1000000015

endloop
endfacet
facet normal 0 0 -1
outer loop
vertex 0 0 0.1000000015
vertex -1.5 1.836970147e-16 0.1000000015
vertex -1.385819316 0.5740251541 0.1000000015

endloop
endfacet
facet normal 0.9807852507 0.195090279 0
outer loop
vertex -1.5 1.836970147e-16 -0.1000000015
vertex -1.5 1.836970147e-16 0.1000000015
vertex -1.385819316 -0.5740251541 0.1000000015

endloop
endfacet
facet normal 0.9807852507 0.195090279 -0
outer loop
vertex -1.385819316 -0.5740251541 0.1000000015
vertex -1.385819316 -0.5740251541 -0.1000000015
vertex -1.5 1.836970147e-16 -0.1000000015

endloop
endfacet
facet normal 0 0 1
outer loop
vertex 0 0 -0.1000000015
vertex -1.5 1.836970147e-16 -0.1000000015
vertex -1.385819316 -0.5740251541 -0.1000000015

endloop
endfacet
facet normal 0 0 -1
outer loop
vertex 0 0 0.1000000015
vertex -1.385819316 -0.5740251541 0.1000000015
vertex -1.5 1.836970147e-16 0.1000000015

endloop
endfacet
facet normal 0.8314695358 0.555570364 0
outer loop
vertex -1.385819316 -0.5740251541 -0.1000000015
vertex -1.385819316 -0.5740251541 0.1000000015
vertex -1.060660124 -1.060660124 0.1000000015

endloop
endfacet
facet normal 0.8314695358 0.555570364 -0
outer loop
vertex -1.060660124 -1.060660124 0.1000000015
vertex -1.060660124 -1.060660124 -0.1000000015
vertex -1.385819316 -0.5740251541 -0.1000000015

endloop
endfacet
facet normal -0 0 1
outer loop
vertex 0 0 -0.1000000015
vertex -1.385819316 -0.5740251541 -0.1000000015
vertex -1.060660124 -1.060660124 -0.1000000015

endloop
endfacet
facet normal 0 0 -1
outer loop
vertex 0 0 0.1000000015
vertex -1.060660124 -1.060660124 0.1000000015
vertex -1.385819316 -0.5740251541 0.1000000015

endloop
endfacet
facet normal 0.555570364 0.8314695358 0
outer loop
vertex -1.060660124 -1.060660124 -0.1000000015
vertex -1.060660124 -1.060660124 0.1000000015
vertex -0.5740251541 -1.385819316 0.1000000015

endloop
endfacet
facet normal 0.555570364 0.8314695358 -0
outer loop
vertex -0.5740251541 -1.385819316 0.1000000015
vertex -0.5740251541 -1.385819316 -0.1000000015
vertex -1.060660124 -1.060660124 -0.1000000015

endloop
endfacet
facet normal -0 0 1
outer loop
vertex 0 0 -0.1000000015
vertex -1.060660124 -1.060660124 -0.1000000015
vertex -0.5740251541 -1.385819316 -0.1000000015

endloop
endfacet
facet normal 0 0 -1
outer loop
vertex 0 0 0.1000000015
vertex -0.5740251541 -1.385819316 0.1000000015
vertex -1.060660124 -1.060660124 0.1000000015

endloop
endfacet
facet normal 0.195090279 0.9807852507 0
outer loop
vertex -0.5740251541 -1.385819316 -0.1000000015
vertex -0.5740251541 -1.385819316 0.1000000015
vertex -2.755455352e-16 -1.5 0.1000000015

endloop
endfacet
facet normal 0.195090279 0.9807852507 -0
outer loop
vertex -2.755455352e-16 -1.5 0.1000000015
vertex -2.755455352e-16 -1.5 -0.1000000015
vertex -0.5740251541 -1.385819316 -0.1000000015

endloop
endfacet
facet normal -0 0 1
outer loop
vertex 0 0 -0.1000000015
vertex -0.5740251541 -1.385819316 -0.1000000015
vertex -2.755455352e-16 -1.5 -0.1000000015

endloop
endfacet
facet normal 0 0 -1
outer loop
vertex 0 0 0.1000000015
vertex -2.755455352e-16 -1.5 0.1000000015
vertex -0.5740251541 -1.385819316 0.1000000015

endloop
endfacet
facet normal -0.195090279 0.9807852507 0
outer loop
vertex -2.755455352e-16 -1.5 -0.1000000015
vertex -2.755455352e-16 -1.5 0.1000000015
vertex 0.5740251541 -1.385819316 0.1000000015

endloop
endfacet
facet normal -0.195090279 0.9807852507 0
outer loop
vertex 0.5740251541 -1.385819316 0.1000000015
vertex 0.5740251541 -1.385819316 -0.1000000015
vertex -2.755455352e-16 -1.5 -0.1000000015

endloop
endfacet
facet normal 0 0 1
outer loop
vertex 0 0 -0.1000000015
vertex -2.755455352e-16 -1.5 -0.1000000015
vertex 0.5740251541 -1.385819316 -0.1000000015

endloop
endfacet
facet normal -0 0 -1
outer loop
vertex 0 0 0.1000000015
vertex 0.5740251541 -1.385819316 0.1000000015
vertex -2.755455352e-16 -1.5 0.1000000015

endloop
endfacet
facet normal -0.555570364 0.8314695358 0
outer loop
vertex 0.5740251541 -1.385819316 -0.1000000015
vertex 0.5740251541 -1.385819316 0.1000000015
vertex 1.060660124 -1.060660124 0.1000000015

endloop
endfacet
facet normal -0.555570364 0.8314695358 0
outer loop
vertex 1.060660124 -1.060660124 0.1000000015
vertex 1.060660124 -1.060660124 -0.1000000015
vertex 0.5740251541 -1.385819316 -0.1000000015

endloop
endfacet
facet normal 0 -0 1
outer loop
vertex 0 0 -0.1000000015
vertex 0.5740251541 -1.385819316 -0.1000000015
vertex 1.060660124 -1.060660124 -0.1000000015

endloop
endfacet
facet normal -0 0 -1
outer loop
vertex 0 0 0.1000000015
vertex 1.060660124 -1.060660124 0.1000000015
vertex 0.5740251541 -1.385819316 0.1000000015

endloop
endfacet
facet normal -0.8314695358 0.555570364 0
outer loop
vertex 1.060660124 -1.060660124 -0.1000000015
vertex 1.060660124 -1.060660124 0.1000000015
vertex 1.385819316 -0.5740251541 0.1000000015

endloop
endfacet
facet normal -0.8314695358 0.555570364 0
outer loop
vertex 1.385819316 -0.5740251541 0.1000000015
vertex 1.385819316 -0.5740251541 -0.1000000015
vertex 1.060660124 -1.060660124 -0.1000000015

endloop
endfacet
facet normal 0 -0 1
outer loop
vertex 0 0 -0.1000000015
vertex 1.060660124 -1.060660124 -0.1000000015
vertex 1.385819316 -0.5740251541 -0.1000000015

endloop
endfacet
facet normal -0 0 -1
outer loop
vertex 0 0 0.1000000015
vertex 1.385819316 -0.5740251541 0.1000000015
vertex 1.060660124 -1.060660124 0.1000000015

endloop
endfacet
facet normal -0.9807852507 0.195090279 0
outer loop
vertex 1.385819316 -0.5740251541 -0.1000000015
vertex 1.385819316 -0.5740251541 0.1000000015
vertex 1.5 -3.673940293e-16 0.1000000015

endloop
endfacet
facet normal -0.9807852507 0.195090279 0
outer loop
vertex 1.5 -3.673940293e-16 0.1000000015
vertex 1.5 -3.673940293e-16 -0.1000000015
vertex 1.385819316 -0.5740251541 -0.1000000015

endloop
endfacet
facet normal 0 -0 1
outer loop
vertex 0 0 -0.1000000015
vertex 1.385819316 -0.5740251541 -0.1000000015
vertex 1.5 -3.673940293e-16 -0.1000000015

endloop
endfacet
facet normal -0 0 -1
outer loop
vertex 0 0 0.1000000015
vertex 1.5 -3.673940293e-16 0.1000000015
vertex 1.385819316 -0.5740251541 0.1000000015

endloop
endfacet
endsolid
