solid 
facet normal -0.980785 -0.19509 -0
outer loop
vertex 5 0 -0.1000000015
vertex 5 0 0.1000000015
vertex 4.61939764 1.91341722 0.1000000015

endloop
endfacet
facet normal -0.9807852507 -0.1950903237 0
outer loop
vertex 4.61939764 1.91341722 0.1000000015
vertex 4.61939764 1.91341722 -0.1000000015
vertex 5 0 -0.1000000015

endloop
endfacet
facet normal 0 0 1
outer loop
vertex 0 0 -0.1000000015
vertex 5 0 -0.1000000015
vertex 4.61939764 1.91341722 -0.1000000015

endloop
endfacet
facet normal 0 -0 -1
outer loop
vertex 0 0 0.1000000015
vertex 4.61939764 1.91341722 0.1000000015
vertex 5 0 0.1000000015

endloop
endfacet
facet normal -0.8314695954 -0.5555702448 -0
outer loop
vertex 4.61939764 1.91341722 -0.1000000015
vertex 4.61939764 1.91341722 0.1000000015
vertex 3.535533905 3.535533905 0.1000000015

endloop
endfacet
facet normal -0.8314695954 -0.5555702448 0
outer loop
vertex 3.535533905 3.535533905 0.1000000015
vertex 3.535533905 3.535533905 -0.1000000015
vertex 4.61939764 1.91341722 -0.1000000015

endloop
endfacet
facet normal 0 0 1
outer loop
vertex 0 0 -0.1000000015
vertex 4.61939764 1.91341722 -0.1000000015
vertex 3.535533905 3.535533905 -0.1000000015

endloop
endfacet
facet normal 0 -0 -1
outer loop
vertex 0 0 0.1000000015
vertex 3.535533905 3.535533905 0.1000000015
vertex 4.61939764 1.91341722 0.1000000015

endloop
endfacet
facet normal -0.5555702448 -0.8314695954 -0
outer loop
vertex 3.535533905 3.535533905 -0.1000000015
vertex 3.535533905 3.535533905 0.1000000015
vertex 1.91341722 4.61939764 0.1000000015

endloop
endfacet
facet normal -0.5555702448 -0.8314695954 0
outer loop
vertex 1.91341722 4.61939764 0.1000000015
vertex 1.91341722 4.61939764 -0.1000000015
vertex 3.535533905 3.535533905 -0.1000000015

endloop
endfacet
facet normal 0 0 1
outer loop
vertex 0 0 -0.1000000015
vertex 3.535533905 3.535533905 -0.1000000015
vertex 1.91341722 4.61939764 -0.1000000015

endloop
endfacet
facet normal 0 -0 -1
outer loop
vertex 0 0 0.1000000015
vertex 1.91341722 4.61939764 0.1000000015
vertex 3.535533905 3.535533905 0.1000000015

endloop
endfacet
facet normal -0.1950903237 -0.9807852507 -0
outer loop
vertex 1.91341722 4.61939764 -0.1000000015
vertex 1.91341722 4.61939764 0.1000000015
vertex 3.061616999e-16 5 0.1000000015

endloop
endfacet
facet normal -0.1950903237 -0.9807852507 0
outer loop
vertex 3.061616999e-16 5 0.1000000015
vertex 3.061616999e-16 5 -0.1000000015
vertex 1.91341722 4.61939764 -0.1000000015

endloop
endfacet
facet normal 0 0 1
outer loop
vertex 0 0 -0.1000000015
vertex 1.91341722 4.61939764 -0.1000000015
vertex 3.061616999e-16 5 -0.1000000015

endloop
endfacet
facet normal 0 -0 -1
outer loop
vertex 0 0 0.1000000015
vertex 3.061616999e-16 5 0.1000000015
vertex 1.91341722 4.61939764 0.1000000015

endloop
endfacet
facet normal 0.1950903237 -0.9807852507 0
outer loop
vertex 3.061616999e-16 5 -0.1000000015
vertex 3.061616999e-16 5 0.1000000015
vertex -1.91341722 4.61939764 0.1000000015

endloop
endfacet
facet normal 0.1950903237 -0.9807852507 0
outer loop
vertex -1.91341722 4.61939764 0.1000000015
vertex -1.91341722 4.61939764 -0.1000000015
vertex 3.061616999e-16 5 -0.1000000015

endloop
endfacet
facet normal 0 0 1
outer loop
vertex 0 0 -0.1000000015
vertex 3.061616999e-16 5 -0.1000000015
vertex -1.91341722 4.61939764 -0.1000000015

endloop
endfacet
facet normal 0 0 -1
outer loop
vertex 0 0 0.1000000015
vertex -1.91341722 4.61939764 0.1000000015
vertex 3.061616999e-16 5 0.1000000015

endloop
endfacet
facet normal 0.5555702448 -0.8314695954 0
outer loop
vertex -1.91341722 4.61939764 -0.1000000015
vertex -1.91341722 4.61939764 0.1000000015
vertex -3.535533905 3.535533905 0.1000000015

endloop
endfacet
facet normal 0.5555702448 -0.8314695954 0
outer loop
vertex -3.535533905 3.535533905 0.1000000015
vertex -3.535533905 3.535533905 -0.1000000015
vertex -1.91341722 4.61939764 -0.1000000015

endloop
endfacet
facet normal 0 0 1
outer loop
vertex 0 0 -0.1000000015
vertex -1.91341722 4.61939764 -0.1000000015
vertex -3.535533905 3.535533905 -0.1000000015

endloop
endfacet
facet normal 0 0 -1
outer loop
vertex 0 0 0.1000000015
vertex -3.535533905 3.535533905 0.1000000015
vertex -1.91341722 4.61939764 0.1000000015

endloop
endfacet
facet normal 0.8314695954 -0.5555702448 0
outer loop
vertex -3.535533905 3.535533905 -0.1000000015
vertex -3.535533905 3.535533905 0.1000000015
vertex -4.61939764 1.91341722 0.1000000015

endloop
endfacet
facet normal 0.8314695954 -0.5555702448 0
outer loop
vertex -4.61939764 1.91341722 0.1000000015
vertex -4.61939764 1.91341722 -0.1000000015
vertex -3.535533905 3.535533905 -0.1000000015

endloop
endfacet
facet normal 0 0 1
outer loop
vertex 0 0 -0.1000000015
vertex -3.535533905 3.535533905 -0.1000000015
vertex -4.61939764 1.91341722 -0.1000000015

endloop
endfacet
facet normal 0 0 -1
outer loop
vertex 0 0 0.1000000015
vertex -4.61939764 1.91341722 0.1000000015
vertex -3.535533905 3.535533905 0.1000000015

endloop
endfacet
facet normal 0.9807852507 -0.1950903237 0
outer loop
vertex -4.61939764 1.91341722 -0.1000000015
vertex -4.61939764 1.91341722 0.1000000015
vertex -5 6.123233998e-16 0.1000000015

endloop
endfacet
facet normal 0.9807852507 -0.1950903237 0
outer loop
vertex -5 6.123233998e-16 0.1000000015
vertex -5 6.123233998e-16 -0.1000000015
vertex -4.61939764 1.91341722 -0.1000000015

endloop
endfacet
facet normal 0 0 1
outer loop
vertex 0 0 -0.1000000015
vertex -4.61939764 1.91341722 -0.1000000015
vertex -5 6.123233998e-16 -0.1000000015

endloop
endfacet
facet normal 0 0 -1
outer loop
vertex 0 0 0.1000000015
vertex -5 6.123233998e-16 0.1000000015
vertex -4.61939764 1.91341722 0.1000000015

endloop
endfacet
facet normal 0.9807852507 0.1950903237 0
outer loop
vertex -5 6.123233998e-16 -0.1000000015
vertex -5 6.123233998e-16 0.1000000015
vertex -4.61939764 -1.91341722 0.1000000015

endloop
endfacet
facet normal 0.9807852507 0.1950903237 -0
outer loop
vertex -4.61939764 -1.91341722 0.1000000015
vertex -4.61939764 -1.91341722 -0.1000000015
vertex -5 6.123233998e-16 -0.1000000015

endloop
endfacet
facet normal 0 0 1
outer loop
vertex 0 0 -0.1000000015
vertex -5 6.123233998e-16 -0.1000000015
vertex -4.61939764 -1.91341722 -0.1000000015

endloop
endfacet
facet normal 0 0 -1
outer loop
vertex 0 0 0.1000000015
vertex -4.61939764 -1.91341722 0.1000000015
vertex -5 6.123233998e-16 0.1000000015

endloop
endfacet
facet normal 0.8314695954 0.5555702448 0
outer loop
vertex -4.61939764 -1.91341722 -0.1000000015
vertex -4.61939764 -1.91341722 0.1000000015
vertex -3.535533905 -3.535533905 0.1000000015

endloop
endfacet
facet normal 0.8314695954 0.5555702448 -0
outer loop
vertex -3.535533905 -3.535533905 0.1000000015
vertex -3.535533905 -3.535533905 -0.1000000015
vertex -4.61939764 -1.91341722 -0.1000000015

endloop
endfacet
facet normal -0 0 1
outer loop
vertex 0 0 -0.1000000015
vertex -4.61939764 -1.91341722 -0.1000000015
vertex -3.535533905 -3.535533905 -0.1000000015

endloop
endfacet
facet normal 0 0 -1
outer loop
vertex 0 0 0.1000000015
vertex -3.535533905 -3.535533905 0.1000000015
vertex -4.61939764 -1.91341722 0.1000000015

endloop
endfacet
facet normal 0.5555702448 0.8314695954 0
outer loop
vertex -3.535533905 -3.535533905 -0.1000000015
vertex -3.535533905 -3.535533905 0.1000000015
vertex -1.91341722 -4.61939764 0.1000000015

endloop
endfacet
facet normal 0.5555702448 0.8314695954 -0
outer loop
vertex -1.91341722 -4.61939764 0.1000000015
vertex -1.91341722 -4.61939764 -0.1000000015
vertex -3.535533905 -3.535533905 -0.1000000015

endloop
endfacet
facet normal -0 0 1
outer loop
vertex 0 0 -0.1000000015
vertex -3.535533905 -3.535533905 -0.1000000015
vertex -1.91341722 -4.61939764 -0.1000000015

endloop
endfacet
facet normal 0 0 -1
outer loop
vertex 0 0 0.1000000015
vertex -1.91341722 -4.61939764 0.1000000015
vertex -3.535533905 -3.535533905 0.1000000015

endloop
endfacet
facet normal 0.1950903237 0.9807852507 0
outer loop
vertex -1.91341722 -4.61939764 -0.1000000015
vertex -1.91341722 -4.61939764 0.1000000015
vertex -9.184850468e-16 -5 0.1000000015

endloop
endfacet
facet normal 0.1950903237 0.9807852507 -0
outer loop
vertex -9.184850468e-16 -5 0.1000000015
vertex -9.184850468e-16 -5 -0.1000000015
vertex -1.91341722 -4.61939764 -0.1000000015

endloop
endfacet
facet normal -0 0 1
outer loop
vertex 0 0 -0.1000000015
vertex -1.91341722 -4.61939764 -0.1000000015
vertex -9.184850468e-16 -5 -0.1000000015

endloop
endfacet
facet normal 0 0 -1
outer loop
vertex 0 0 0.1000000015
vertex -9.184850468e-16 -5 0.1000000015
vertex -1.91341722 -4.61939764 0.1000000015

endloop
endfacet
facet normal -0.1950903237 0.9807852507 0
outer loop
vertex -9.184850468e-16 -5 -0.1000000015
vertex -9.184850468e-16 -5 0.1000000015
vertex 1.91341722 -4.61939764 0.1000000015

endloop
endfacet
facet normal -0.1950903237 0.9807852507 0
outer loop
vertex 1.91341722 -4.61939764 0.1000000015
vertex 1.91341722 -4.61939764 -0.1000000015
vertex -9.184850468e-16 -5 -0.1000000015

endloop
endfacet
facet normal 0 0 1
outer loop
vertex 0 0 -0.1000000015
vertex -9.184850468e-16 -5 -0.1000000015
vertex 1.91341722 -4.61939764 -0.1000000015

endloop
endfacet
facet normal -0 0 -1
outer loop
vertex 0 0 0.1000000015
vertex 1.91341722 -4.61939764 0.1000000015
vertex -9.184850468e-16 -5 0.1000000015

endloop
endfacet
facet normal -0.5555702448 0.8314695954 0
outer loop
vertex 1.91341722 -4.61939764 -0.1000000015
vertex 1.91341722 -4.61939764 0.1000000015
vertex 3.535533905 -3.535533905 0.1000000015

endloop
endfacet
facet normal -0.5555702448 0.8314695954 0
outer loop
vertex 3.535533905 -3.535533905 0.1000000015
vertex 3.535533905 -3.535533905 -0.1000000015
vertex 1.91341722 -4.61939764 -0.1000000015

endloop
endfacet
facet normal 0 -0 1
outer loop
vertex 0 0 -0.1000000015
vertex 1.91341722 -4.61939764 -0.1000000015
vertex 3.535533905 -3.535533905 -0.1000000015

endloop
endfacet
facet normal -0 0 -1
outer loop
vertex 0 0 0.1000000015
vertex 3.535533905 -3.535533905 0.1000000015
vertex 1.91341722 -4.61939764 0.1000000015

endloop
endfacet
facet normal -0.8314695954 0.5555702448 0
outer loop
vertex 3.535533905 -3.535533905 -0.1000000015
vertex 3.535533905 -3.535533905 0.1000000015
vertex 4.61939764 -1.91341722 0.1000000015

endloop
endfacet
facet normal -0.8314695954 0.5555702448 0
outer loop
vertex 4.61939764 -1.91341722 0.1000000015
vertex 4.61939764 -1.91341722 -0.1000000015
vertex 3.535533905 -3.535533905 -0.1000000015

endloop
endfacet
facet normal 0 -0 1
outer loop
vertex 0 0 -0.1000000015
vertex 3.535533905 -3.535533905 -0.1000000015
vertex 4.61939764 -1.91341722 -0.1000000015

endloop
endfacet
facet normal -0 0 -1
outer loop
vertex 0 0 0.1000000015
vertex 4.61939764 -1.91341722 0.1000000015
vertex 3.535533905 -3.535533905 0.1000000015

endloop
endfacet
facet normal -0.9807852507 0.1950903237 0
outer loop
vertex 4.61939764 -1.91341722 -0.1000000015
vertex 4.61939764 -1.91341722 0.1000000015
vertex 5 -1.2246468e-15 0.1000000015

endloop
endfacet
facet normal -0.9807852507 0.1950903237 0
outer loop
vertex 5 -1.2246468e-15 0.1000000015
vertex 5 -1.2246468e-15 -0.1000000015
vertex 4.61939764 -1.91341722 -0.1000000015

endloop
endfacet
facet normal 0 -0 1
outer loop
vertex 0 0 -0.1000000015
vertex 4.61939764 -1.91341722 -0.1000000015
vertex 5 -1.2246468e-15 -0.1000000015

endloop
endfacet
facet normal -0 0 -1
outer loop
vertex 0 0 0.1000000015
vertex 5 -1.2246468e-15 0.1000000015
vertex 4.61939764 -1.91341722 0.1000000015

endloop
endfacet
endsolid
