solid 
facet normal -0.980785 -0.19509 -0
outer loop
vertex 4.900000095 0 -0.1000000015
vertex 4.900000095 0 0.1000000015
vertex 4.527009487 1.875148773 0.1000000015

endloop
endfacet
facet normal -0.9807852507 -0.1950904876 0
outer loop
vertex 4.527009487 1.875148773 0.1000000015
vertex 4.527009487 1.875148773 -0.1000000015
vertex 4.900000095 0 -0.1000000015

endloop
endfacet
facet normal 0 0 1
outer loop
vertex 0 0 -0.1000000015
vertex 4.900000095 0 -0.1000000015
vertex 4.527009487 1.875148773 -0.1000000015

endloop
endfacet
facet normal 0 -0 -1
outer loop
vertex 0 0 0.1000000015
vertex 4.527009487 1.875148773 0.1000000015
vertex 4.900000095 0 0.1000000015

endloop
endfacet
facet normal -0.831469655 -0.5555701256 -0
outer loop
vertex 4.527009487 1.875148773 -0.1000000015
vertex 4.527009487 1.875148773 0.1000000015
vertex 3.464823246 3.464823246 0.1000000015

endloop
endfacet
facet normal -0.831469655 -0.5555701256 0
outer loop
vertex 3.464823246 3.464823246 0.1000000015
vertex 3.464823246 3.464823246 -0.1000000015
vertex 4.527009487 1.875148773 -0.1000000015

endloop
endfacet
facet normal 0 0 1
outer loop
vertex 0 0 -0.1000000015
vertex 4.527009487 1.875148773 -0.1000000015
vertex 3.464823246 3.464823246 -0.1000000015

endloop
endfacet
facet normal 0 -0 -1
outer loop
vertex 0 0 0.1000000015
vertex 3.464823246 3.464823246 0.1000000015
vertex 4.527009487 1.875148773 0.1000000015

endloop
endfacet
facet normal -0.5555701256 -0.831469655 -0
outer loop
vertex 3.464823246 3.464823246 -0.1000000015
vertex 3.464823246 3.464823246 0.1000000015
vertex 1.875148773 4.527009487 0.1000000015

endloop
endfacet
facet normal -0.5555701256 -0.831469655 0
outer loop
vertex 1.875148773 4.527009487 0.1000000015
vertex 1.875148773 4.527009487 -0.1000000015
vertex 3.464823246 3.464823246 -0.1000000015

endloop
endfacet
facet normal 0 0 1
outer loop
vertex 0 0 -0.1000000015
vertex 3.464823246 3.464823246 -0.1000000015
vertex 1.875148773 4.527009487 -0.1000000015

endloop
endfacet
facet normal 0 -0 -1
outer loop
vertex 0 0 0.1000000015
vertex 1.875148773 4.527009487 0.1000000015
vertex 3.464823246 3.464823246 0.1000000015

endloop
endfacet
facet normal -0.1950904876 -0.9807852507 -0
outer loop
vertex 1.875148773 4.527009487 -0.1000000015
vertex 1.875148773 4.527009487 0.1000000015
vertex 3.000384723e-16 4.900000095 0.1000000015

endloop
endfacet
facet normal -0.1950904876 -0.9807852507 0
outer loop
vertex 3.000384723e-16 4.900000095 0.1000000015
vertex 3.000384723e-16 4.900000095 -0.1000000015
vertex 1.875148773 4.527009487 -0.1000000015

endloop
endfacet
facet normal 0 0 1
outer loop
vertex 0 0 -0.1000000015
vertex 1.875148773 4.527009487 -0.1000000015
vertex 3.000384723e-16 4.900000095 -0.1000000015

endloop
endfacet
facet normal 0 -0 -1
outer loop
vertex 0 0 0.1000000015
vertex 3.000384723e-16 4.900000095 0.1000000015
vertex 1.875148773 4.527009487 0.1000000015

endloop
endfacet
facet normal 0.1950904876 -0.9807852507 0
outer loop
vertex 3.000384723e-16 4.900000095 -0.1000000015
vertex 3.000384723e-16 4.900000095 0.1000000015
vertex -1.875148773 4.527009487 0.1000000015

endloop
endfacet
facet normal 0.1950904876 -0.9807852507 0
outer loop
vertex -1.875148773 4.527009487 0.1000000015
vertex -1.875148773 4.527009487 -0.1000000015
vertex 3.000384723e-16 4.900000095 -0.1000000015

endloop
endfacet
facet normal 0 0 1
outer loop
vertex 0 0 -0.1000000015
vertex 3.000384723e-16 4.900000095 -0.1000000015
vertex -1.875148773 4.527009487 -0.1000000015

endloop
endfacet
facet normal 0 0 -1
outer loop
vertex 0 0 0.1000000015
vertex -1.875148773 4.527009487 0.1000000015
vertex 3.000384723e-16 4.900000095 0.1000000015

endloop
endfacet
facet normal 0.5555701256 -0.831469655 0
outer loop
vertex -1.875148773 4.527009487 -0.1000000015
vertex -1.875148773 4.527009487 0.1000000015
vertex -3.464823246 3.464823246 0.1000000015

endloop
endfacet
facet normal 0.5555701256 -0.831469655 0
outer loop
vertex -3.464823246 3.464823246 0.1000000015
vertex -3.464823246 3.464823246 -0.1000000015
vertex -1.875148773 4.527009487 -0.1000000015

endloop
endfacet
facet normal 0 0 1
outer loop
vertex 0 0 -0.1000000015
vertex -1.875148773 4.527009487 -0.1000000015
vertex -3.464823246 3.464823246 -0.1000000015

endloop
endfacet
facet normal 0 0 -1
outer loop
vertex 0 0 0.1000000015
vertex -3.464823246 3.464823246 0.1000000015
vertex -1.875148773 4.527009487 0.1000000015

endloop
endfacet
facet normal 0.831469655 -0.5555701256 0
outer loop
vertex -3.464823246 3.464823246 -0.1000000015
vertex -3.464823246 3.464823246 0.1000000015
vertex -4.527009487 1.875148773 0.1000000015

endloop
endfacet
facet normal 0.831469655 -0.5555701256 0
outer loop
vertex -4.527009487 1.875148773 0.1000000015
vertex -4.527009487 1.875148773 -0.1000000015
vertex -3.464823246 3.464823246 -0.1000000015

endloop
endfacet
facet normal 0 0 1
outer loop
vertex 0 0 -0.1000000015
vertex -3.464823246 3.464823246 -0.1000000015
vertex -4.527009487 1.875148773 -0.1000000015

endloop
endfacet
facet normal 0 0 -1
outer loop
vertex 0 0 0.1000000015
vertex -4.527009487 1.875148773 0.1000000015
vertex -3.464823246 3.464823246 0.1000000015

endloop
endfacet
facet normal 0.9807852507 -0.1950904876 0
outer loop
vertex -4.527009487 1.875148773 -0.1000000015
vertex -4.527009487 1.875148773 0.1000000015
vertex -4.900000095 6.000769445e-16 0.1000000015

endloop
endfacet
facet normal 0.9807852507 -0.1950904876 0
outer loop
vertex -4.900000095 6.000769445e-16 0.1000000015
vertex -4.900000095 6.000769445e-16 -0.1000000015
vertex -4.527009487 1.875148773 -0.1000000015

endloop
endfacet
facet normal 0 0 1
outer loop
vertex 0 0 -0.1000000015
vertex -4.527009487 1.875148773 -0.1000000015
vertex -4.900000095 6.000769445e-16 -0.1000000015

endloop
endfacet
facet normal 0 0 -1
outer loop
vertex 0 0 0.1000000015
vertex -4.900000095 6.000769445e-16 0.1000000015
vertex -4.527009487 1.875148773 0.1000000015

endloop
endfacet
facet normal 0.9807852507 0.1950904876 0
outer loop
vertex -4.900000095 6.000769445e-16 -0.1000000015
vertex -4.900000095 6.000769445e-16 0.1000000015
vertex -4.527009487 -1.875148773 0.1000000015

endloop
endfacet
facet normal 0.9807852507 0.1950904876 -0
outer loop
vertex -4.527009487 -1.875148773 0.1000000015
vertex -4.527009487 -1.875148773 -0.1000000015
vertex -4.900000095 6.000769445e-16 -0.1000000015

endloop
endfacet
facet normal 0 0 1
outer loop
vertex 0 0 -0.1000000015
vertex -4.900000095 6.000769445e-16 -0.1000000015
vertex -4.527009487 -1.875148773 -0.1000000015

endloop
endfacet
facet normal 0 0 -1
outer loop
vertex 0 0 0.1000000015
vertex -4.527009487 -1.875148773 0.1000000015
vertex -4.900000095 6.000769445e-16 0.1000000015

endloop
endfacet
facet normal 0.831469655 0.5555701256 0
outer loop
vertex -4.527009487 -1.875148773 -0.1000000015
vertex -4.527009487 -1.875148773 0.1000000015
vertex -3.464823246 -3.464823246 0.1000000015

endloop
endfacet
facet normal 0.831469655 0.5555701256 -0
outer loop
vertex -3.464823246 -3.464823246 0.1000000015
vertex -3.464823246 -3.464823246 -0.1000000015
vertex -4.527009487 -1.875148773 -0.1000000015

endloop
endfacet
facet normal -0 0 1
outer loop
vertex 0 0 -0.1000000015
vertex -4.527009487 -1.875148773 -0.1000000015
vertex -3.464823246 -3.464823246 -0.1000000015

endloop
endfacet
facet normal 0 0 -1
outer loop
vertex 0 0 0.1000000015
vertex -3.464823246 -3.464823246 0.1000000015
vertex -4.527009487 -1.875148773 0.1000000015

endloop
endfacet
facet normal 0.5555701256 0.831469655 0
outer loop
vertex -3.464823246 -3.464823246 -0.1000000015
vertex -3.464823246 -3.464823246 0.1000000015
vertex -1.875148773 -4.527009487 0.1000000015

endloop
endfacet
facet normal 0.5555701256 0.831469655 -0
outer loop
vertex -1.875148773 -4.527009487 0.1000000015
vertex -1.875148773 -4.527009487 -0.1000000015
vertex -3.464823246 -3.464823246 -0.1000000015

endloop
endfacet
facet normal -0 0 1
outer loop
vertex 0 0 -0.1000000015
vertex -3.464823246 -3.464823246 -0.1000000015
vertex -1.875148773 -4.527009487 -0.1000000015

endloop
endfacet
facet normal 0 0 -1
outer loop
vertex 0 0 0.1000000015
vertex -1.875148773 -4.527009487 0.1000000015
vertex -3.464823246 -3.464823246 0.1000000015

endloop
endfacet
facet normal 0.1950904876 0.9807852507 0
outer loop
vertex -1.875148773 -4.527009487 -0.1000000015
vertex -1.875148773 -4.527009487 0.1000000015
vertex -9.001154433e-16 -4.900000095 0.1000000015

endloop
endfacet
facet normal 0.1950904876 0.9807852507 -0
outer loop
vertex -9.001154433e-16 -4.900000095 0.1000000015
vertex -9.001154433e-16 -4.900000095 -0.1000000015
vertex -1.875148773 -4.527009487 -0.1000000015

endloop
endfacet
facet normal -0 0 1
outer loop
vertex 0 0 -0.1000000015
vertex -1.875148773 -4.527009487 -0.1000000015
vertex -9.001154433e-16 -4.900000095 -0.1000000015

endloop
endfacet
facet normal 0 0 -1
outer loop
vertex 0 0 0.1000000015
vertex -9.001154433e-16 -4.900000095 0.1000000015
vertex -1.875148773 -4.527009487 0.1000000015

endloop
endfacet
facet normal -0.1950904876 0.9807852507 0
outer loop
vertex -9.001154433e-16 -4.900000095 -0.1000000015
vertex -9.001154433e-16 -4.900000095 0.1000000015
vertex 1.875148773 -4.527009487 0.1000000015

endloop
endfacet
facet normal -0.1950904876 0.9807852507 0
outer loop
vertex 1.875148773 -4.527009487 0.1000000015
vertex 1.875148773 -4.527009487 -0.1000000015
vertex -9.001154433e-16 -4.900000095 -0.1000000015

endloop
endfacet
facet normal 0 0 1
outer loop
vertex 0 0 -0.1000000015
vertex -9.001154433e-16 -4.900000095 -0.1000000015
vertex 1.875148773 -4.527009487 -0.1000000015

endloop
endfacet
facet normal -0 0 -1
outer loop
vertex 0 0 0.1000000015
vertex 1.875148773 -4.527009487 0.1000000015
vertex -9.001154433e-16 -4.900000095 0.1000000015

endloop
endfacet
facet normal -0.5555701256 0.831469655 0
outer loop
vertex 1.875148773 -4.527009487 -0.1000000015
vertex 1.875148773 -4.527009487 0.1000000015
vertex 3.464823246 -3.464823246 0.1000000015

endloop
endfacet
facet normal -0.5555701256 0.831469655 0
outer loop
vertex 3.464823246 -3.464823246 0.1000000015
vertex 3.464823246 -3.464823246 -0.1000000015
vertex 1.875148773 -4.527009487 -0.1000000015

endloop
endfacet
facet normal 0 -0 1
outer loop
vertex 0 0 -0.1000000015
vertex 1.875148773 -4.527009487 -0.1000000015
vertex 3.464823246 -3.464823246 -0.1000000015

endloop
endfacet
facet normal -0 0 -1
outer loop
vertex 0 0 0.1000000015
vertex 3.464823246 -3.464823246 0.1000000015
vertex 1.875148773 -4.527009487 0.1000000015

endloop
endfacet
facet normal -0.831469655 0.5555701256 0
outer loop
vertex 3.464823246 -3.464823246 -0.1000000015
vertex 3.464823246 -3.464823246 0.1000000015
vertex 4.527009487 -1.875148773 0.1000000015

endloop
endfacet
facet normal -0.831469655 0.5555701256 0
outer loop
vertex 4.527009487 -1.875148773 0.1000000015
vertex 4.527009487 -1.875148773 -0.1000000015
vertex 3.464823246 -3.464823246 -0.1000000015

endloop
endfacet
facet normal 0 -0 1
outer loop
vertex 0 0 -0.1000000015
vertex 3.464823246 -3.464823246 -0.1000000015
vertex 4.527009487 -1.875148773 -0.1000000015

endloop
endfacet
facet normal -0 0 -1
outer loop
vertex 0 0 0.1000000015
vertex 4.527009487 -1.875148773 0.1000000015
vertex 3.464823246 -3.464823246 0.1000000015

endloop
endfacet
facet normal -0.9807852507 0.1950904876 0
outer loop
vertex 4.527009487 -1.875148773 -0.1000000015
vertex 4.527009487 -1.875148773 0.1000000015
vertex 4.900000095 -1.200153889e-15 0.1000000015

endloop
endfacet
facet normal -0.9807852507 0.1950904876 0
outer loop
vertex 4.900000095 -1.200153889e-15 0.1000000015
vertex 4.900000095 -1.200153889e-15 -0.1000000015
vertex 4.527009487 -1.875148773 -0.1000000015

endloop
endfacet
facet normal 0 -0 1
outer loop
vertex 0 0 -0.1000000015
vertex 4.527009487 -1.875148773 -0.1000000015
vertex 4.900000095 -1.200153889e-15 -0.1000000015

endloop
endfacet
facet normal -0 0 -1
outer loop
vertex 0 0 0.1000000015
vertex 4.900000095 -1.200153889e-15 0.1000000015
vertex 4.527009487 -1.875148773 0.1000000015

endloop
endfacet
endsolid
