solid 
facet normal -0.980785 -0.19509 -0
outer loop
vertex 3 0 -0.1000000015
vertex 3 0 0.1000000015
vertex 2.771638632 1.148050308 0.1000000015

endloop
endfacet
facet normal -0.9807852507 -0.195090279 0
outer loop
vertex 2.771638632 1.148050308 0.1000000015
vertex 2.771638632 1.148050308 -0.1000000015
vertex 3 0 -0.1000000015

endloop
endfacet
facet normal 0 0 1
outer loop
vertex 0 0 -0.1000000015
vertex 3 0 -0.1000000015
vertex 2.771638632 1.148050308 -0.1000000015

endloop
endfacet
facet normal 0 -0 -1
outer loop
vertex 0 0 0.1000000015
vertex 2.771638632 1.148050308 0.1000000015
vertex 3 0 0.1000000015

endloop
endfacet
facet normal -0.8314695358 -0.555570364 -0
outer loop
vertex 2.771638632 1.148050308 -0.1000000015
vertex 2.771638632 1.148050308 0.1000000015
vertex 2.121320248 2.121320248 0.1000000015

endloop
endfacet
facet normal -0.8314695358 -0.555570364 0
outer loop
vertex 2.121320248 2.121320248 0.1000000015
vertex 2.121320248 2.121320248 -0.1000000015
vertex 2.771638632 1.148050308 -0.1000000015

endloop
endfacet
facet normal 0 0 1
outer loop
vertex 0 0 -0.1000000015
vertex 2.771638632 1.148050308 -0.1000000015
vertex 2.121320248 2.121320248 -0.1000000015

endloop
endfacet
facet normal 0 -0 -1
outer loop
vertex 0 0 0.1000000015
vertex 2.121320248 2.121320248 0.1000000015
vertex 2.771638632 1.148050308 0.1000000015

endloop
endfacet
facet normal -0.555570364 -0.8314695358 -0
outer loop
vertex 2.121320248 2.121320248 -0.1000000015
vertex 2.121320248 2.121320248 0.1000000015
vertex 1.148050308 2.771638632 0.1000000015

endloop
endfacet
facet normal -0.555570364 -0.8314695358 0
outer loop
vertex 1.148050308 2.771638632 0.1000000015
vertex 1.148050308 2.771638632 -0.1000000015
vertex 2.121320248 2.121320248 -0.1000000015

endloop
endfacet
facet normal 0 0 1
outer loop
vertex 0 0 -0.1000000015
vertex 2.121320248 2.121320248 -0.1000000015
vertex 1.148050308 2.771638632 -0.1000000015

endloop
endfacet
facet normal 0 -0 -1
outer loop
vertex 0 0 0.1000000015
vertex 1.148050308 2.771638632 0.1000000015
vertex 2.121320248 2.121320248 0.1000000015

endloop
endfacet
facet normal -0.195090279 -0.9807852507 -0
outer loop
vertex 1.148050308 2.771638632 -0.1000000015
vertex 1.148050308 2.771638632 0.1000000015
vertex 1.836970147e-16 3 0.1000000015

endloop
endfacet
facet normal -0.195090279 -0.9807852507 0
outer loop
vertex 1.836970147e-16 3 0.1000000015
vertex 1.836970147e-16 3 -0.1000000015
vertex 1.148050308 2.771638632 -0.1000000015

endloop
endfacet
facet normal 0 0 1
outer loop
vertex 0 0 -0.1000000015
vertex 1.148050308 2.771638632 -0.1000000015
vertex 1.836970147e-16 3 -0.1000000015

endloop
endfacet
facet normal 0 -0 -1
outer loop
vertex 0 0 0.1000000015
vertex 1.836970147e-16 3 0.1000000015
vertex 1.148050308 2.771638632 0.1000000015

endloop
endfacet
facet normal 0.195090279 -0.9807852507 0
outer loop
vertex 1.836970147e-16 3 -0.1000000015
vertex 1.836970147e-16 3 0.1000000015
vertex -1.148050308 2.771638632 0.1000000015

endloop
endfacet
facet normal 0.195090279 -0.9807852507 0
outer loop
vertex -1.148050308 2.771638632 0.1000000015
vertex -1.148050308 2.771638632 -0.1000000015
vertex 1.836970147e-16 3 -0.1000000015

endloop
endfacet
facet normal 0 0 1
outer loop
vertex 0 0 -0.1000000015
vertex 1.836970147e-16 3 -0.1000000015
vertex -1.148050308 2.771638632 -0.1000000015

endloop
endfacet
facet normal 0 0 -1
outer loop
vertex 0 0 0.1000000015
vertex -1.148050308 2.771638632 0.1000000015
vertex 1.836970147e-16 3 0.1000000015

endloop
endfacet
facet normal 0.555570364 -0.8314695358 0
outer loop
vertex -1.148050308 2.771638632 -0.1000000015
vertex -1.148050308 2.771638632 0.1000000015
vertex -2.121320248 2.121320248 0.1000000015

endloop
endfacet
facet normal 0.555570364 -0.8314695358 0
outer loop
vertex -2.121320248 2.121320248 0.1000000015
vertex -2.121320248 2.121320248 -0.1000000015
vertex -1.148050308 2.771638632 -0.1000000015

endloop
endfacet
facet normal 0 0 1
outer loop
vertex 0 0 -0.1000000015
vertex -1.148050308 2.771638632 -0.1000000015
vertex -2.121320248 2.121320248 -0.1000000015

endloop
endfacet
facet normal 0 0 -1
outer loop
vertex 0 0 0.1000000015
vertex -2.121320248 2.121320248 0.1000000015
vertex -1.148050308 2.771638632 0.1000000015

endloop
endfacet
facet normal 0.8314695358 -0.555570364 0
outer loop
vertex -2.121320248 2.121320248 -0.1000000015
vertex -2.121320248 2.121320248 0.1000000015
vertex -2.771638632 1.148050308 0.1000000015

endloop
endfacet
facet normal 0.8314695358 -0.555570364 0
outer loop
vertex -2.771638632 1.148050308 0.1000000015
vertex -2.771638632 1.148050308 -0.1000000015
vertex -2.121320248 2.121320248 -0.1000000015

endloop
endfacet
facet normal 0 0 1
outer loop
vertex 0 0 -0.1000000015
vertex -2.121320248 2.121320248 -0.1000000015
vertex -2.771638632 1.148050308 -0.1000000015

endloop
endfacet
facet normal 0 0 -1
outer loop
vertex 0 0 0.1000000015
vertex -2.771638632 1.148050308 0.1000000015
vertex -2.121320248 2.121320248 0.1000000015

endloop
endfacet
facet normal 0.9807852507 -0.195090279 0
outer loop
vertex -2.771638632 1.148050308 -0.1000000015
vertex -2.771638632 1.148050308 0.1000000015
vertex -3 3.673940293e-16 0.1000000015

endloop
endfacet
facet normal 0.9807852507 -0.195090279 0
outer loop
vertex -3 3.673940293e-16 0.1000000015
vertex -3 3.673940293e-16 -0.1000000015
vertex -2.771638632 1.148050308 -0.1000000015

endloop
endfacet
facet normal 0 0 1
outer loop
vertex 0 0 -0.1000000015
vertex -2.771638632 1.148050308 -0.1000000015
vertex -3 3.673940293e-16 -0.1000000015

endloop
endfacet
facet normal 0 0 -1
outer loop
vertex 0 0 0.1000000015
vertex -3 3.673940293e-16 0.1000000015
vertex -2.771638632 1.148050308 0.1000000015

endloop
endfacet
facet normal 0.9807852507 0.195090279 0
outer loop
vertex -3 3.673940293e-16 -0.1000000015
vertex -3 3.673940293e-16 0.1000000015
vertex -2.771638632 -1.148050308 0.1000000015

endloop
endfacet
facet normal 0.9807852507 0.195090279 -0
outer loop
vertex -2.771638632 -1.148050308 0.1000000015
vertex -2.771638632 -1.148050308 -0.1000000015
vertex -3 3.673940293e-16 -0.1000000015

endloop
endfacet
facet normal 0 0 1
outer loop
vertex 0 0 -0.1000000015
vertex -3 3.673940293e-16 -0.1000000015
vertex -2.771638632 -1.148050308 -0.1000000015

endloop
endfacet
facet normal 0 0 -1
outer loop
vertex 0 0 0.1000000015
vertex -2.771638632 -1.148050308 0.1000000015
vertex -3 3.673940293e-16 0.1000000015

endloop
endfacet
facet normal 0.8314695358 0.555570364 0
outer loop
vertex -2.771638632 -1.148050308 -0.1000000015
vertex -2.771638632 -1.148050308 0.1000000015
vertex -2.121320248 -2.121320248 0.1000000015

endloop
endfacet
facet normal 0.8314695358 0.555570364 -0
outer loop
vertex -2.121320248 -2.121320248 0.1000000015
vertex -2.121320248 -2.121320248 -0.1000000015
vertex -2.771638632 -1.148050308 -0.1000000015

endloop
endfacet
facet normal -0 0 1
outer loop
vertex 0 0 -0.1000000015
vertex -2.771638632 -1.148050308 -0.1000000015
vertex -2.121320248 -2.121320248 -0.1000000015

endloop
endfacet
facet normal 0 0 -1
outer loop
vertex 0 0 0.1000000015
vertex -2.121320248 -2.121320248 0.1000000015
vertex -2.771638632 -1.148050308 0.1000000015

endloop
endfacet
facet normal 0.555570364 0.8314695358 0
outer loop
vertex -2.121320248 -2.121320248 -0.1000000015
vertex -2.121320248 -2.121320248 0.1000000015
vertex -1.148050308 -2.771638632 0.1000000015

endloop
endfacet
facet normal 0.555570364 0.8314695358 -0
outer loop
vertex -1.148050308 -2.771638632 0.1000000015
vertex -1.148050308 -2.771638632 -0.1000000015
vertex -2.121320248 -2.121320248 -0.1000000015

endloop
endfacet
facet normal -0 0 1
outer loop
vertex 0 0 -0.1000000015
vertex -2.121320248 -2.121320248 -0.1000000015
vertex -1.148050308 -2.771638632 -0.1000000015

endloop
endfacet
facet normal 0 0 -1
outer loop
vertex 0 0 0.1000000015
vertex -1.148050308 -2.771638632 0.1000000015
vertex -2.121320248 -2.121320248 0.1000000015

endloop
endfacet
facet normal 0.195090279 0.9807852507 0
outer loop
vertex -1.148050308 -2.771638632 -0.1000000015
vertex -1.148050308 -2.771638632 0.1000000015
vertex -5.510910704e-16 -3 0.1000000015

endloop
endfacet
facet normal 0.195090279 0.9807852507 -0
outer loop
vertex -5.510910704e-16 -3 0.1000000015
vertex -5.510910704e-16 -3 -0.1000000015
vertex -1.148050308 -2.771638632 -0.1000000015

endloop
endfacet
facet normal -0 0 1
outer loop
vertex 0 0 -0.1000000015
vertex -1.148050308 -2.771638632 -0.1000000015
vertex -5.510910704e-16 -3 -0.1000000015

endloop
endfacet
facet normal 0 0 -1
outer loop
vertex 0 0 0.1000000015
vertex -5.510910704e-16 -3 0.1000000015
vertex -1.148050308 -2.771638632 0.1000000015

endloop
endfacet
facet normal -0.195090279 0.9807852507 0
outer loop
vertex -5.510910704e-16 -3 -0.1000000015
vertex -5.510910704e-16 -3 0.1000000015
vertex 1.148050308 -2.771638632 0.1000000015

endloop
endfacet
facet normal -0.195090279 0.9807852507 0
outer loop
vertex 1.148050308 -2.771638632 0.1000000015
vertex 1.148050308 -2.771638632 -0.1000000015
vertex -5.510910704e-16 -3 -0.1000000015

endloop
endfacet
facet normal 0 0 1
outer loop
vertex 0 0 -0.1000000015
vertex -5.510910704e-16 -3 -0.1000000015
vertex 1.148050308 -2.771638632 -0.1000000015

endloop
endfacet
facet normal -0 0 -1
outer loop
vertex 0 0 0.1000000015
vertex 1.148050308 -2.771638632 0.1000000015
vertex -5.510910704e-16 -3 0.1000000015

endloop
endfacet
facet normal -0.555570364 0.8314695358 0
outer loop
vertex 1.148050308 -2.771638632 -0.1000000015
vertex 1.148050308 -2.771638632 0.1000000015
vertex 2.121320248 -2.121320248 0.1000000015

endloop
endfacet
facet normal -0.555570364 0.8314695358 0
outer loop
vertex 2.121320248 -2.121320248 0.1000000015
vertex 2.121320248 -2.121320248 -0.1000000015
vertex 1.148050308 -2.771638632 -0.1000000015

endloop
endfacet
facet normal 0 -0 1
outer loop
vertex 0 0 -0.1000000015
vertex 1.148050308 -2.771638632 -0.1000000015
vertex 2.121320248 -2.121320248 -0.1000000015

endloop
endfacet
facet normal -0 0 -1
outer loop
vertex 0 0 0.1000000015
vertex 2.121320248 -2.121320248 0.1000000015
vertex 1.148050308 -2.771638632 0.1000000015

endloop
endfacet
facet normal -0.8314695358 0.555570364 0
outer loop
vertex 2.121320248 -2.121320248 -0.1000000015
vertex 2.121320248 -2.121320248 0.1000000015
vertex 2.771638632 -1.148050308 0.1000000015

endloop
endfacet
facet normal -0.8314695358 0.555570364 0
outer loop
vertex 2.771638632 -1.148050308 0.1000000015
vertex 2.771638632 -1.148050308 -0.1000000015
vertex 2.121320248 -2.121320248 -0.1000000015

endloop
endfacet
facet normal 0 -0 1
outer loop
vertex 0 0 -0.1000000015
vertex 2.121320248 -2.121320248 -0.1000000015
vertex 2.771638632 -1.148050308 -0.1000000015

endloop
endfacet
facet normal -0 0 -1
outer loop
vertex 0 0 0.1000000015
vertex 2.771638632 -1.148050308 0.1000000015
vertex 2.121320248 -2.121320248 0.1000000015

endloop
endfacet
facet normal -0.9807852507 0.195090279 0
outer loop
vertex 2.771638632 -1.148050308 -0.1000000015
vertex 2.771638632 -1.148050308 0.1000000015
vertex 3 -7.347880586e-16 0.1000000015

endloop
endfacet
facet normal -0.9807852507 0.195090279 0
outer loop
vertex 3 -7.347880586e-16 0.1000000015
vertex 3 -7.347880586e-16 -0.1000000015
vertex 2.771638632 -1.148050308 -0.1000000015

endloop
endfacet
facet normal 0 -0 1
outer loop
vertex 0 0 -0.1000000015
vertex 2.771638632 -1.148050308 -0.1000000015
vertex 3 -7.347880586e-16 -0.1000000015

endloop
endfacet
facet normal -0 0 -1
outer loop
vertex 0 0 0.1000000015
vertex 3 -7.347880586e-16 0.1000000015
vertex 2.771638632 -1.148050308 0.1000000015

endloop
endfacet
endsolid
