solid 
facet normal -0.980785 -0.19509 -0
outer loop
vertex 0.150000006 0 -0.05000000075
vertex 0.150000006 0 0.05000000075
vertex 0.1385819316 0.05740251392 0.05000000075

endloop
endfacet
facet normal -0.9807851911 -0.1950903833 0
outer loop
vertex 0.1385819316 0.05740251392 0.05000000075
vertex 0.1385819316 0.05740251392 -0.05000000075
vertex 0.150000006 0 -0.05000000075

endloop
endfacet
facet normal 0 0 1
outer loop
vertex 0 0 -0.05000000075
vertex 0.150000006 0 -0.05000000075
vertex 0.1385819316 0.05740251392 -0.05000000075

endloop
endfacet
facet normal 0 -0 -1
outer loop
vertex 0 0 0.05000000075
vertex 0.1385819316 0.05740251392 0.05000000075
vertex 0.150000006 0 0.05000000075

endloop
endfacet
facet normal -0.8314695954 -0.5555702448 -0
outer loop
vertex 0.1385819316 0.05740251392 -0.05000000075
vertex 0.1385819316 0.05740251392 0.05000000075
vertex 0.1060660183 0.1060660183 0.05000000075

endloop
endfacet
facet normal -0.8314695954 -0.5555702448 0
outer loop
vertex 0.1060660183 0.1060660183 0.05000000075
vertex 0.1060660183 0.1060660183 -0.05000000075
vertex 0.1385819316 0.05740251392 -0.05000000075

endloop
endfacet
facet normal 0 0 1
outer loop
vertex 0 0 -0.05000000075
vertex 0.1385819316 0.05740251392 -0.05000000075
vertex 0.1060660183 0.1060660183 -0.05000000075

endloop
endfacet
facet normal 0 -0 -1
outer loop
vertex 0 0 0.05000000075
vertex 0.1060660183 0.1060660183 0.05000000075
vertex 0.1385819316 0.05740251392 0.05000000075

endloop
endfacet
facet normal -0.5555702448 -0.8314695954 -0
outer loop
vertex 0.1060660183 0.1060660183 -0.05000000075
vertex 0.1060660183 0.1060660183 0.05000000075
vertex 0.05740251392 0.1385819316 0.05000000075

endloop
endfacet
facet normal -0.5555702448 -0.8314695954 0
outer loop
vertex 0.05740251392 0.1385819316 0.05000000075
vertex 0.05740251392 0.1385819316 -0.05000000075
vertex 0.1060660183 0.1060660183 -0.05000000075

endloop
endfacet
facet normal 0 0 1
outer loop
vertex 0 0 -0.05000000075
vertex 0.1060660183 0.1060660183 -0.05000000075
vertex 0.05740251392 0.1385819316 -0.05000000075

endloop
endfacet
facet normal 0 -0 -1
outer loop
vertex 0 0 0.05000000075
vertex 0.05740251392 0.1385819316 0.05000000075
vertex 0.1060660183 0.1060660183 0.05000000075

endloop
endfacet
facet normal -0.1950903833 -0.9807851911 -0
outer loop
vertex 0.05740251392 0.1385819316 -0.05000000075
vertex 0.05740251392 0.1385819316 0.05000000075
vertex 9.184851394e-18 0.150000006 0.05000000075

endloop
endfacet
facet normal -0.1950903833 -0.9807851911 0
outer loop
vertex 9.184851394e-18 0.150000006 0.05000000075
vertex 9.184851394e-18 0.150000006 -0.05000000075
vertex 0.05740251392 0.1385819316 -0.05000000075

endloop
endfacet
facet normal 0 0 1
outer loop
vertex 0 0 -0.05000000075
vertex 0.05740251392 0.1385819316 -0.05000000075
vertex 9.184851394e-18 0.150000006 -0.05000000075

endloop
endfacet
facet normal 0 -0 -1
outer loop
vertex 0 0 0.05000000075
vertex 9.184851394e-18 0.150000006 0.05000000075
vertex 0.05740251392 0.1385819316 0.05000000075

endloop
endfacet
facet normal 0.1950903833 -0.9807851911 0
outer loop
vertex 9.184851394e-18 0.150000006 -0.05000000075
vertex 9.184851394e-18 0.150000006 0.05000000075
vertex -0.05740251392 0.1385819316 0.05000000075

endloop
endfacet
facet normal 0.1950903833 -0.9807851911 0
outer loop
vertex -0.05740251392 0.1385819316 0.05000000075
vertex -0.05740251392 0.1385819316 -0.05000000075
vertex 9.184851394e-18 0.150000006 -0.05000000075

endloop
endfacet
facet normal 0 0 1
outer loop
vertex 0 0 -0.05000000075
vertex 9.184851394e-18 0.150000006 -0.05000000075
vertex -0.05740251392 0.1385819316 -0.05000000075

endloop
endfacet
facet normal 0 0 -1
outer loop
vertex 0 0 0.05000000075
vertex -0.05740251392 0.1385819316 0.05000000075
vertex 9.184851394e-18 0.150000006 0.05000000075

endloop
endfacet
facet normal 0.5555702448 -0.8314695954 0
outer loop
vertex -0.05740251392 0.1385819316 -0.05000000075
vertex -0.05740251392 0.1385819316 0.05000000075
vertex -0.1060660183 0.1060660183 0.05000000075

endloop
endfacet
facet normal 0.5555702448 -0.8314695954 0
outer loop
vertex -0.1060660183 0.1060660183 0.05000000075
vertex -0.1060660183 0.1060660183 -0.05000000075
vertex -0.05740251392 0.1385819316 -0.05000000075

endloop
endfacet
facet normal 0 0 1
outer loop
vertex 0 0 -0.05000000075
vertex -0.05740251392 0.1385819316 -0.05000000075
vertex -0.1060660183 0.1060660183 -0.05000000075

endloop
endfacet
facet normal 0 0 -1
outer loop
vertex 0 0 0.05000000075
vertex -0.1060660183 0.1060660183 0.05000000075
vertex -0.05740251392 0.1385819316 0.05000000075

endloop
endfacet
facet normal 0.8314695954 -0.5555702448 0
outer loop
vertex -0.1060660183 0.1060660183 -0.05000000075
vertex -0.1060660183 0.1060660183 0.05000000075
vertex -0.1385819316 0.05740251392 0.05000000075

endloop
endfacet
facet normal 0.8314695954 -0.5555702448 0
outer loop
vertex -0.1385819316 0.05740251392 0.05000000075
vertex -0.1385819316 0.05740251392 -0.05000000075
vertex -0.1060660183 0.1060660183 -0.05000000075

endloop
endfacet
facet normal 0 0 1
outer loop
vertex 0 0 -0.05000000075
vertex -0.1060660183 0.1060660183 -0.05000000075
vertex -0.1385819316 0.05740251392 -0.05000000075

endloop
endfacet
facet normal 0 0 -1
outer loop
vertex 0 0 0.05000000075
vertex -0.1385819316 0.05740251392 0.05000000075
vertex -0.1060660183 0.1060660183 0.05000000075

endloop
endfacet
facet normal 0.9807851911 -0.1950903833 0
outer loop
vertex -0.1385819316 0.05740251392 -0.05000000075
vertex -0.1385819316 0.05740251392 0.05000000075
vertex -0.150000006 1.836970279e-17 0.05000000075

endloop
endfacet
facet normal 0.9807851911 -0.1950903833 0
outer loop
vertex -0.150000006 1.836970279e-17 0.05000000075
vertex -0.150000006 1.836970279e-17 -0.05000000075
vertex -0.1385819316 0.05740251392 -0.05000000075

endloop
endfacet
facet normal 0 0 1
outer loop
vertex 0 0 -0.05000000075
vertex -0.1385819316 0.05740251392 -0.05000000075
vertex -0.150000006 1.836970279e-17 -0.05000000075

endloop
endfacet
facet normal 0 0 -1
outer loop
vertex 0 0 0.05000000075
vertex -0.150000006 1.836970279e-17 0.05000000075
vertex -0.1385819316 0.05740251392 0.05000000075

endloop
endfacet
facet normal 0.9807851911 0.1950903833 0
outer loop
vertex -0.150000006 1.836970279e-17 -0.05000000075
vertex -0.150000006 1.836970279e-17 0.05000000075
vertex -0.1385819316 -0.05740251392 0.05000000075

endloop
endfacet
facet normal 0.9807851911 0.1950903833 -0
outer loop
vertex -0.1385819316 -0.05740251392 0.05000000075
vertex -0.1385819316 -0.05740251392 -0.05000000075
vertex -0.150000006 1.836970279e-17 -0.05000000075

endloop
endfacet
facet normal 0 0 1
outer loop
vertex 0 0 -0.05000000075
vertex -0.150000006 1.836970279e-17 -0.05000000075
vertex -0.1385819316 -0.05740251392 -0.05000000075

endloop
endfacet
facet normal 0 0 -1
outer loop
vertex 0 0 0.05000000075
vertex -0.1385819316 -0.05740251392 0.05000000075
vertex -0.150000006 1.836970279e-17 0.05000000075

endloop
endfacet
facet normal 0.8314695954 0.5555702448 0
outer loop
vertex -0.1385819316 -0.05740251392 -0.05000000075
vertex -0.1385819316 -0.05740251392 0.05000000075
vertex -0.1060660183 -0.1060660183 0.05000000075

endloop
endfacet
facet normal 0.8314695954 0.5555702448 -0
outer loop
vertex -0.1060660183 -0.1060660183 0.05000000075
vertex -0.1060660183 -0.1060660183 -0.05000000075
vertex -0.1385819316 -0.05740251392 -0.05000000075

endloop
endfacet
facet normal -0 0 1
outer loop
vertex 0 0 -0.05000000075
vertex -0.1385819316 -0.05740251392 -0.05000000075
vertex -0.1060660183 -0.1060660183 -0.05000000075

endloop
endfacet
facet normal 0 0 -1
outer loop
vertex 0 0 0.05000000075
vertex -0.1060660183 -0.1060660183 0.05000000075
vertex -0.1385819316 -0.05740251392 0.05000000075

endloop
endfacet
facet normal 0.5555702448 0.8314695954 0
outer loop
vertex -0.1060660183 -0.1060660183 -0.05000000075
vertex -0.1060660183 -0.1060660183 0.05000000075
vertex -0.05740251392 -0.1385819316 0.05000000075

endloop
endfacet
facet normal 0.5555702448 0.8314695954 -0
outer loop
vertex -0.05740251392 -0.1385819316 0.05000000075
vertex -0.05740251392 -0.1385819316 -0.05000000075
vertex -0.1060660183 -0.1060660183 -0.05000000075

endloop
endfacet
facet normal -0 0 1
outer loop
vertex 0 0 -0.05000000075
vertex -0.1060660183 -0.1060660183 -0.05000000075
vertex -0.05740251392 -0.1385819316 -0.05000000075

endloop
endfacet
facet normal 0 0 -1
outer loop
vertex 0 0 0.05000000075
vertex -0.05740251392 -0.1385819316 0.05000000075
vertex -0.1060660183 -0.1060660183 0.05000000075

endloop
endfacet
facet normal 0.1950903833 0.9807851911 0
outer loop
vertex -0.05740251392 -0.1385819316 -0.05000000075
vertex -0.05740251392 -0.1385819316 0.05000000075
vertex -2.755455253e-17 -0.150000006 0.05000000075

endloop
endfacet
facet normal 0.1950903833 0.9807851911 -0
outer loop
vertex -2.755455253e-17 -0.150000006 0.05000000075
vertex -2.755455253e-17 -0.150000006 -0.05000000075
vertex -0.05740251392 -0.1385819316 -0.05000000075

endloop
endfacet
facet normal -0 0 1
outer loop
vertex 0 0 -0.05000000075
vertex -0.05740251392 -0.1385819316 -0.05000000075
vertex -2.755455253e-17 -0.150000006 -0.05000000075

endloop
endfacet
facet normal 0 0 -1
outer loop
vertex 0 0 0.05000000075
vertex -2.755455253e-17 -0.150000006 0.05000000075
vertex -0.05740251392 -0.1385819316 0.05000000075

endloop
endfacet
facet normal -0.1950903833 0.9807851911 0
outer loop
vertex -2.755455253e-17 -0.150000006 -0.05000000075
vertex -2.755455253e-17 -0.150000006 0.05000000075
vertex 0.05740251392 -0.1385819316 0.05000000075

endloop
endfacet
facet normal -0.1950903833 0.9807851911 0
outer loop
vertex 0.05740251392 -0.1385819316 0.05000000075
vertex 0.05740251392 -0.1385819316 -0.05000000075
vertex -2.755455253e-17 -0.150000006 -0.05000000075

endloop
endfacet
facet normal 0 0 1
outer loop
vertex 0 0 -0.05000000075
vertex -2.755455253e-17 -0.150000006 -0.05000000075
vertex 0.05740251392 -0.1385819316 -0.05000000075

endloop
endfacet
facet normal -0 0 -1
outer loop
vertex 0 0 0.05000000075
vertex 0.05740251392 -0.1385819316 0.05000000075
vertex -2.755455253e-17 -0.150000006 0.05000000075

endloop
endfacet
facet normal -0.5555702448 0.8314695954 0
outer loop
vertex 0.05740251392 -0.1385819316 -0.05000000075
vertex 0.05740251392 -0.1385819316 0.05000000075
vertex 0.1060660183 -0.1060660183 0.05000000075

endloop
endfacet
facet normal -0.5555702448 0.8314695954 0
outer loop
vertex 0.1060660183 -0.1060660183 0.05000000075
vertex 0.1060660183 -0.1060660183 -0.05000000075
vertex 0.05740251392 -0.1385819316 -0.05000000075

endloop
endfacet
facet normal 0 -0 1
outer loop
vertex 0 0 -0.05000000075
vertex 0.05740251392 -0.1385819316 -0.05000000075
vertex 0.1060660183 -0.1060660183 -0.05000000075

endloop
endfacet
facet normal -0 0 -1
outer loop
vertex 0 0 0.05000000075
vertex 0.1060660183 -0.1060660183 0.05000000075
vertex 0.05740251392 -0.1385819316 0.05000000075

endloop
endfacet
facet normal -0.8314695954 0.5555702448 0
outer loop
vertex 0.1060660183 -0.1060660183 -0.05000000075
vertex 0.1060660183 -0.1060660183 0.05000000075
vertex 0.1385819316 -0.05740251392 0.05000000075

endloop
endfacet
facet normal -0.8314695954 0.5555702448 0
outer loop
vertex 0.1385819316 -0.05740251392 0.05000000075
vertex 0.1385819316 -0.05740251392 -0.05000000075
vertex 0.1060660183 -0.1060660183 -0.05000000075

endloop
endfacet
facet normal 0 -0 1
outer loop
vertex 0 0 -0.05000000075
vertex 0.1060660183 -0.1060660183 -0.05000000075
vertex 0.1385819316 -0.05740251392 -0.05000000075

endloop
endfacet
facet normal -0 0 -1
outer loop
vertex 0 0 0.05000000075
vertex 0.1385819316 -0.05740251392 0.05000000075
vertex 0.1060660183 -0.1060660183 0.05000000075

endloop
endfacet
facet normal -0.9807851911 0.1950903833 0
outer loop
vertex 0.1385819316 -0.05740251392 -0.05000000075
vertex 0.1385819316 -0.05740251392 0.05000000075
vertex 0.150000006 -3.673940558e-17 0.05000000075

endloop
endfacet
facet normal -0.9807851911 0.1950903833 0
outer loop
vertex 0.150000006 -3.673940558e-17 0.05000000075
vertex 0.150000006 -3.673940558e-17 -0.05000000075
vertex 0.1385819316 -0.05740251392 -0.05000000075

endloop
endfacet
facet normal 0 -0 1
outer loop
vertex 0 0 -0.05000000075
vertex 0.1385819316 -0.05740251392 -0.05000000075
vertex 0.150000006 -3.673940558e-17 -0.05000000075

endloop
endfacet
facet normal -0 0 -1
outer loop
vertex 0 0 0.05000000075
vertex 0.150000006 -3.673940558e-17 0.05000000075
vertex 0.1385819316 -0.05740251392 0.05000000075

endloop
endfacet
endsolid
