solid 
facet normal -0.980785 -0.19509 -0
outer loop
vertex 4.599999905 0 -0.1024999991
vertex 4.599999905 0 0.1024999991
vertex 4.249845982 1.76034379 0.1024999991

endloop
endfacet
facet normal -0.9807852507 -0.1950901896 0
outer loop
vertex 4.249845982 1.76034379 0.1024999991
vertex 4.249845982 1.76034379 -0.1024999991
vertex 4.599999905 0 -0.1024999991

endloop
endfacet
facet normal 0 0 1
outer loop
vertex 0 0 -0.1024999991
vertex 4.599999905 0 -0.1024999991
vertex 4.249845982 1.76034379 -0.1024999991

endloop
endfacet
facet normal 0 -0 -1
outer loop
vertex 0 0 0.1024999991
vertex 4.249845982 1.76034379 0.1024999991
vertex 4.599999905 0 0.1024999991

endloop
endfacet
facet normal -0.831469655 -0.5555701852 -0
outer loop
vertex 4.249845982 1.76034379 -0.1024999991
vertex 4.249845982 1.76034379 0.1024999991
vertex 3.252691269 3.252691269 0.1024999991

endloop
endfacet
facet normal -0.831469655 -0.5555701852 0
outer loop
vertex 3.252691269 3.252691269 0.1024999991
vertex 3.252691269 3.252691269 -0.1024999991
vertex 4.249845982 1.76034379 -0.1024999991

endloop
endfacet
facet normal 0 0 1
outer loop
vertex 0 0 -0.1024999991
vertex 4.249845982 1.76034379 -0.1024999991
vertex 3.252691269 3.252691269 -0.1024999991

endloop
endfacet
facet normal 0 -0 -1
outer loop
vertex 0 0 0.1024999991
vertex 3.252691269 3.252691269 0.1024999991
vertex 4.249845982 1.76034379 0.1024999991

endloop
endfacet
facet normal -0.5555701852 -0.831469655 -0
outer loop
vertex 3.252691269 3.252691269 -0.1024999991
vertex 3.252691269 3.252691269 0.1024999991
vertex 1.76034379 4.249845982 0.1024999991

endloop
endfacet
facet normal -0.5555701852 -0.831469655 0
outer loop
vertex 1.76034379 4.249845982 0.1024999991
vertex 1.76034379 4.249845982 -0.1024999991
vertex 3.252691269 3.252691269 -0.1024999991

endloop
endfacet
facet normal 0 0 1
outer loop
vertex 0 0 -0.1024999991
vertex 3.252691269 3.252691269 -0.1024999991
vertex 1.76034379 4.249845982 -0.1024999991

endloop
endfacet
facet normal 0 -0 -1
outer loop
vertex 0 0 0.1024999991
vertex 1.76034379 4.249845982 0.1024999991
vertex 3.252691269 3.252691269 0.1024999991

endloop
endfacet
facet normal -0.1950901896 -0.9807852507 -0
outer loop
vertex 1.76034379 4.249845982 -0.1024999991
vertex 1.76034379 4.249845982 0.1024999991
vertex 2.816687629e-16 4.599999905 0.1024999991

endloop
endfacet
facet normal -0.1950901896 -0.9807852507 0
outer loop
vertex 2.816687629e-16 4.599999905 0.1024999991
vertex 2.816687629e-16 4.599999905 -0.1024999991
vertex 1.76034379 4.249845982 -0.1024999991

endloop
endfacet
facet normal 0 0 1
outer loop
vertex 0 0 -0.1024999991
vertex 1.76034379 4.249845982 -0.1024999991
vertex 2.816687629e-16 4.599999905 -0.1024999991

endloop
endfacet
facet normal 0 -0 -1
outer loop
vertex 0 0 0.1024999991
vertex 2.816687629e-16 4.599999905 0.1024999991
vertex 1.76034379 4.249845982 0.1024999991

endloop
endfacet
facet normal 0.1950901896 -0.9807852507 0
outer loop
vertex 2.816687629e-16 4.599999905 -0.1024999991
vertex 2.816687629e-16 4.599999905 0.1024999991
vertex -1.76034379 4.249845982 0.1024999991

endloop
endfacet
facet normal 0.1950901896 -0.9807852507 0
outer loop
vertex -1.76034379 4.249845982 0.1024999991
vertex -1.76034379 4.249845982 -0.1024999991
vertex 2.816687629e-16 4.599999905 -0.1024999991

endloop
endfacet
facet normal 0 0 1
outer loop
vertex 0 0 -0.1024999991
vertex 2.816687629e-16 4.599999905 -0.1024999991
vertex -1.76034379 4.249845982 -0.1024999991

endloop
endfacet
facet normal 0 0 -1
outer loop
vertex 0 0 0.1024999991
vertex -1.76034379 4.249845982 0.1024999991
vertex 2.816687629e-16 4.599999905 0.1024999991

endloop
endfacet
facet normal 0.5555701852 -0.831469655 0
outer loop
vertex -1.76034379 4.249845982 -0.1024999991
vertex -1.76034379 4.249845982 0.1024999991
vertex -3.252691269 3.252691269 0.1024999991

endloop
endfacet
facet normal 0.5555701852 -0.831469655 0
outer loop
vertex -3.252691269 3.252691269 0.1024999991
vertex -3.252691269 3.252691269 -0.1024999991
vertex -1.76034379 4.249845982 -0.1024999991

endloop
endfacet
facet normal 0 0 1
outer loop
vertex 0 0 -0.1024999991
vertex -1.76034379 4.249845982 -0.1024999991
vertex -3.252691269 3.252691269 -0.1024999991

endloop
endfacet
facet normal 0 0 -1
outer loop
vertex 0 0 0.1024999991
vertex -3.252691269 3.252691269 0.1024999991
vertex -1.76034379 4.249845982 0.1024999991

endloop
endfacet
facet normal 0.831469655 -0.5555701852 0
outer loop
vertex -3.252691269 3.252691269 -0.1024999991
vertex -3.252691269 3.252691269 0.1024999991
vertex -4.249845982 1.76034379 0.1024999991

endloop
endfacet
facet normal 0.831469655 -0.5555701852 0
outer loop
vertex -4.249845982 1.76034379 0.1024999991
vertex -4.249845982 1.76034379 -0.1024999991
vertex -3.252691269 3.252691269 -0.1024999991

endloop
endfacet
facet normal 0 0 1
outer loop
vertex 0 0 -0.1024999991
vertex -3.252691269 3.252691269 -0.1024999991
vertex -4.249845982 1.76034379 -0.1024999991

endloop
endfacet
facet normal 0 0 -1
outer loop
vertex 0 0 0.1024999991
vertex -4.249845982 1.76034379 0.1024999991
vertex -3.252691269 3.252691269 0.1024999991

endloop
endfacet
facet normal 0.9807852507 -0.1950901896 0
outer loop
vertex -4.249845982 1.76034379 -0.1024999991
vertex -4.249845982 1.76034379 0.1024999991
vertex -4.599999905 5.633375257e-16 0.1024999991

endloop
endfacet
facet normal 0.9807852507 -0.1950901896 0
outer loop
vertex -4.599999905 5.633375257e-16 0.1024999991
vertex -4.599999905 5.633375257e-16 -0.1024999991
vertex -4.249845982 1.76034379 -0.1024999991

endloop
endfacet
facet normal 0 0 1
outer loop
vertex 0 0 -0.1024999991
vertex -4.249845982 1.76034379 -0.1024999991
vertex -4.599999905 5.633375257e-16 -0.1024999991

endloop
endfacet
facet normal 0 0 -1
outer loop
vertex 0 0 0.1024999991
vertex -4.599999905 5.633375257e-16 0.1024999991
vertex -4.249845982 1.76034379 0.1024999991

endloop
endfacet
facet normal 0.9807852507 0.1950901896 0
outer loop
vertex -4.599999905 5.633375257e-16 -0.1024999991
vertex -4.599999905 5.633375257e-16 0.1024999991
vertex -4.249845982 -1.76034379 0.1024999991

endloop
endfacet
facet normal 0.9807852507 0.1950901896 -0
outer loop
vertex -4.249845982 -1.76034379 0.1024999991
vertex -4.249845982 -1.76034379 -0.1024999991
vertex -4.599999905 5.633375257e-16 -0.1024999991

endloop
endfacet
facet normal 0 0 1
outer loop
vertex 0 0 -0.1024999991
vertex -4.599999905 5.633375257e-16 -0.1024999991
vertex -4.249845982 -1.76034379 -0.1024999991

endloop
endfacet
facet normal 0 0 -1
outer loop
vertex 0 0 0.1024999991
vertex -4.249845982 -1.76034379 0.1024999991
vertex -4.599999905 5.633375257e-16 0.1024999991

endloop
endfacet
facet normal 0.831469655 0.5555701852 0
outer loop
vertex -4.249845982 -1.76034379 -0.1024999991
vertex -4.249845982 -1.76034379 0.1024999991
vertex -3.252691269 -3.252691269 0.1024999991

endloop
endfacet
facet normal 0.831469655 0.5555701852 -0
outer loop
vertex -3.252691269 -3.252691269 0.1024999991
vertex -3.252691269 -3.252691269 -0.1024999991
vertex -4.249845982 -1.76034379 -0.1024999991

endloop
endfacet
facet normal -0 0 1
outer loop
vertex 0 0 -0.1024999991
vertex -4.249845982 -1.76034379 -0.1024999991
vertex -3.252691269 -3.252691269 -0.1024999991

endloop
endfacet
facet normal 0 0 -1
outer loop
vertex 0 0 0.1024999991
vertex -3.252691269 -3.252691269 0.1024999991
vertex -4.249845982 -1.76034379 0.1024999991

endloop
endfacet
facet normal 0.5555701852 0.831469655 0
outer loop
vertex -3.252691269 -3.252691269 -0.1024999991
vertex -3.252691269 -3.252691269 0.1024999991
vertex -1.76034379 -4.249845982 0.1024999991

endloop
endfacet
facet normal 0.5555701852 0.831469655 -0
outer loop
vertex -1.76034379 -4.249845982 0.1024999991
vertex -1.76034379 -4.249845982 -0.1024999991
vertex -3.252691269 -3.252691269 -0.1024999991

endloop
endfacet
facet normal -0 0 1
outer loop
vertex 0 0 -0.1024999991
vertex -3.252691269 -3.252691269 -0.1024999991
vertex -1.76034379 -4.249845982 -0.1024999991

endloop
endfacet
facet normal 0 0 -1
outer loop
vertex 0 0 0.1024999991
vertex -1.76034379 -4.249845982 0.1024999991
vertex -3.252691269 -3.252691269 0.1024999991

endloop
endfacet
facet normal 0.1950901896 0.9807852507 0
outer loop
vertex -1.76034379 -4.249845982 -0.1024999991
vertex -1.76034379 -4.249845982 0.1024999991
vertex -8.45006315e-16 -4.599999905 0.1024999991

endloop
endfacet
facet normal 0.1950901896 0.9807852507 -0
outer loop
vertex -8.45006315e-16 -4.599999905 0.1024999991
vertex -8.45006315e-16 -4.599999905 -0.1024999991
vertex -1.76034379 -4.249845982 -0.1024999991

endloop
endfacet
facet normal -0 0 1
outer loop
vertex 0 0 -0.1024999991
vertex -1.76034379 -4.249845982 -0.1024999991
vertex -8.45006315e-16 -4.599999905 -0.1024999991

endloop
endfacet
facet normal 0 0 -1
outer loop
vertex 0 0 0.1024999991
vertex -8.45006315e-16 -4.599999905 0.1024999991
vertex -1.76034379 -4.249845982 0.1024999991

endloop
endfacet
facet normal -0.1950901896 0.9807852507 0
outer loop
vertex -8.45006315e-16 -4.599999905 -0.1024999991
vertex -8.45006315e-16 -4.599999905 0.1024999991
vertex 1.76034379 -4.249845982 0.1024999991

endloop
endfacet
facet normal -0.1950901896 0.9807852507 0
outer loop
vertex 1.76034379 -4.249845982 0.1024999991
vertex 1.76034379 -4.249845982 -0.1024999991
vertex -8.45006315e-16 -4.599999905 -0.1024999991

endloop
endfacet
facet normal 0 0 1
outer loop
vertex 0 0 -0.1024999991
vertex -8.45006315e-16 -4.599999905 -0.1024999991
vertex 1.76034379 -4.249845982 -0.1024999991

endloop
endfacet
facet normal -0 0 -1
outer loop
vertex 0 0 0.1024999991
vertex 1.76034379 -4.249845982 0.1024999991
vertex -8.45006315e-16 -4.599999905 0.1024999991

endloop
endfacet
facet normal -0.5555701852 0.831469655 0
outer loop
vertex 1.76034379 -4.249845982 -0.1024999991
vertex 1.76034379 -4.249845982 0.1024999991
vertex 3.252691269 -3.252691269 0.1024999991

endloop
endfacet
facet normal -0.5555701852 0.831469655 0
outer loop
vertex 3.252691269 -3.252691269 0.1024999991
vertex 3.252691269 -3.252691269 -0.1024999991
vertex 1.76034379 -4.249845982 -0.1024999991

endloop
endfacet
facet normal 0 -0 1
outer loop
vertex 0 0 -0.1024999991
vertex 1.76034379 -4.249845982 -0.1024999991
vertex 3.252691269 -3.252691269 -0.1024999991

endloop
endfacet
facet normal -0 0 -1
outer loop
vertex 0 0 0.1024999991
vertex 3.252691269 -3.252691269 0.1024999991
vertex 1.76034379 -4.249845982 0.1024999991

endloop
endfacet
facet normal -0.831469655 0.5555701852 0
outer loop
vertex 3.252691269 -3.252691269 -0.1024999991
vertex 3.252691269 -3.252691269 0.1024999991
vertex 4.249845982 -1.76034379 0.1024999991

endloop
endfacet
facet normal -0.831469655 0.5555701852 0
outer loop
vertex 4.249845982 -1.76034379 0.1024999991
vertex 4.249845982 -1.76034379 -0.1024999991
vertex 3.252691269 -3.252691269 -0.1024999991

endloop
endfacet
facet normal 0 -0 1
outer loop
vertex 0 0 -0.1024999991
vertex 3.252691269 -3.252691269 -0.1024999991
vertex 4.249845982 -1.76034379 -0.1024999991

endloop
endfacet
facet normal -0 0 -1
outer loop
vertex 0 0 0.1024999991
vertex 4.249845982 -1.76034379 0.1024999991
vertex 3.252691269 -3.252691269 0.1024999991

endloop
endfacet
facet normal -0.9807852507 0.1950901896 0
outer loop
vertex 4.249845982 -1.76034379 -0.1024999991
vertex 4.249845982 -1.76034379 0.1024999991
vertex 4.599999905 -1.126675051e-15 0.1024999991

endloop
endfacet
facet normal -0.9807852507 0.1950901896 0
outer loop
vertex 4.599999905 -1.126675051e-15 0.1024999991
vertex 4.599999905 -1.126675051e-15 -0.1024999991
vertex 4.249845982 -1.76034379 -0.1024999991

endloop
endfacet
facet normal 0 -0 1
outer loop
vertex 0 0 -0.1024999991
vertex 4.249845982 -1.76034379 -0.1024999991
vertex 4.599999905 -1.126675051e-15 -0.1024999991

endloop
endfacet
facet normal -0 0 -1
outer loop
vertex 0 0 0.1024999991
vertex 4.599999905 -1.126675051e-15 0.1024999991
vertex 4.249845982 -1.76034379 0.1024999991

endloop
endfacet
endsolid
