solid 
facet normal -0.980785 -0.19509 -0
outer loop
vertex 0.3000000119 0 -0.02500000037
vertex 0.3000000119 0 0.02500000037
vertex 0.2771638632 0.1148050278 0.02500000037

endloop
endfacet
facet normal -0.9807851911 -0.1950903833 0
outer loop
vertex 0.2771638632 0.1148050278 0.02500000037
vertex 0.2771638632 0.1148050278 -0.02500000037
vertex 0.3000000119 0 -0.02500000037

endloop
endfacet
facet normal 0 0 1
outer loop
vertex 0 0 -0.02500000037
vertex 0.3000000119 0 -0.02500000037
vertex 0.2771638632 0.1148050278 -0.02500000037

endloop
endfacet
facet normal 0 -0 -1
outer loop
vertex 0 0 0.02500000037
vertex 0.2771638632 0.1148050278 0.02500000037
vertex 0.3000000119 0 0.02500000037

endloop
endfacet
facet normal -0.8314695954 -0.5555702448 -0
outer loop
vertex 0.2771638632 0.1148050278 -0.02500000037
vertex 0.2771638632 0.1148050278 0.02500000037
vertex 0.2121320367 0.2121320367 0.02500000037

endloop
endfacet
facet normal -0.8314695954 -0.5555702448 0
outer loop
vertex 0.2121320367 0.2121320367 0.02500000037
vertex 0.2121320367 0.2121320367 -0.02500000037
vertex 0.2771638632 0.1148050278 -0.02500000037

endloop
endfacet
facet normal 0 0 1
outer loop
vertex 0 0 -0.02500000037
vertex 0.2771638632 0.1148050278 -0.02500000037
vertex 0.2121320367 0.2121320367 -0.02500000037

endloop
endfacet
facet normal 0 -0 -1
outer loop
vertex 0 0 0.02500000037
vertex 0.2121320367 0.2121320367 0.02500000037
vertex 0.2771638632 0.1148050278 0.02500000037

endloop
endfacet
facet normal -0.5555702448 -0.8314695954 -0
outer loop
vertex 0.2121320367 0.2121320367 -0.02500000037
vertex 0.2121320367 0.2121320367 0.02500000037
vertex 0.1148050278 0.2771638632 0.02500000037

endloop
endfacet
facet normal -0.5555702448 -0.8314695954 0
outer loop
vertex 0.1148050278 0.2771638632 0.02500000037
vertex 0.1148050278 0.2771638632 -0.02500000037
vertex 0.2121320367 0.2121320367 -0.02500000037

endloop
endfacet
facet normal 0 0 1
outer loop
vertex 0 0 -0.02500000037
vertex 0.2121320367 0.2121320367 -0.02500000037
vertex 0.1148050278 0.2771638632 -0.02500000037

endloop
endfacet
facet normal 0 -0 -1
outer loop
vertex 0 0 0.02500000037
vertex 0.1148050278 0.2771638632 0.02500000037
vertex 0.2121320367 0.2121320367 0.02500000037

endloop
endfacet
facet normal -0.1950903833 -0.9807851911 -0
outer loop
vertex 0.1148050278 0.2771638632 -0.02500000037
vertex 0.1148050278 0.2771638632 0.02500000037
vertex 1.836970279e-17 0.3000000119 0.02500000037

endloop
endfacet
facet normal -0.1950903833 -0.9807851911 0
outer loop
vertex 1.836970279e-17 0.3000000119 0.02500000037
vertex 1.836970279e-17 0.3000000119 -0.02500000037
vertex 0.1148050278 0.2771638632 -0.02500000037

endloop
endfacet
facet normal 0 0 1
outer loop
vertex 0 0 -0.02500000037
vertex 0.1148050278 0.2771638632 -0.02500000037
vertex 1.836970279e-17 0.3000000119 -0.02500000037

endloop
endfacet
facet normal 0 -0 -1
outer loop
vertex 0 0 0.02500000037
vertex 1.836970279e-17 0.3000000119 0.02500000037
vertex 0.1148050278 0.2771638632 0.02500000037

endloop
endfacet
facet normal 0.1950903833 -0.9807851911 0
outer loop
vertex 1.836970279e-17 0.3000000119 -0.02500000037
vertex 1.836970279e-17 0.3000000119 0.02500000037
vertex -0.1148050278 0.2771638632 0.02500000037

endloop
endfacet
facet normal 0.1950903833 -0.9807851911 0
outer loop
vertex -0.1148050278 0.2771638632 0.02500000037
vertex -0.1148050278 0.2771638632 -0.02500000037
vertex 1.836970279e-17 0.3000000119 -0.02500000037

endloop
endfacet
facet normal 0 0 1
outer loop
vertex 0 0 -0.02500000037
vertex 1.836970279e-17 0.3000000119 -0.02500000037
vertex -0.1148050278 0.2771638632 -0.02500000037

endloop
endfacet
facet normal 0 0 -1
outer loop
vertex 0 0 0.02500000037
vertex -0.1148050278 0.2771638632 0.02500000037
vertex 1.836970279e-17 0.3000000119 0.02500000037

endloop
endfacet
facet normal 0.5555702448 -0.8314695954 0
outer loop
vertex -0.1148050278 0.2771638632 -0.02500000037
vertex -0.1148050278 0.2771638632 0.02500000037
vertex -0.2121320367 0.2121320367 0.02500000037

endloop
endfacet
facet normal 0.5555702448 -0.8314695954 0
outer loop
vertex -0.2121320367 0.2121320367 0.02500000037
vertex -0.2121320367 0.2121320367 -0.02500000037
vertex -0.1148050278 0.2771638632 -0.02500000037

endloop
endfacet
facet normal 0 0 1
outer loop
vertex 0 0 -0.02500000037
vertex -0.1148050278 0.2771638632 -0.02500000037
vertex -0.2121320367 0.2121320367 -0.02500000037

endloop
endfacet
facet normal 0 0 -1
outer loop
vertex 0 0 0.02500000037
vertex -0.2121320367 0.2121320367 0.02500000037
vertex -0.1148050278 0.2771638632 0.02500000037

endloop
endfacet
facet normal 0.8314695954 -0.5555702448 0
outer loop
vertex -0.2121320367 0.2121320367 -0.02500000037
vertex -0.2121320367 0.2121320367 0.02500000037
vertex -0.2771638632 0.1148050278 0.02500000037

endloop
endfacet
facet normal 0.8314695954 -0.5555702448 0
outer loop
vertex -0.2771638632 0.1148050278 0.02500000037
vertex -0.2771638632 0.1148050278 -0.02500000037
vertex -0.2121320367 0.2121320367 -0.02500000037

endloop
endfacet
facet normal 0 0 1
outer loop
vertex 0 0 -0.02500000037
vertex -0.2121320367 0.2121320367 -0.02500000037
vertex -0.2771638632 0.1148050278 -0.02500000037

endloop
endfacet
facet normal 0 0 -1
outer loop
vertex 0 0 0.02500000037
vertex -0.2771638632 0.1148050278 0.02500000037
vertex -0.2121320367 0.2121320367 0.02500000037

endloop
endfacet
facet normal 0.9807851911 -0.1950903833 0
outer loop
vertex -0.2771638632 0.1148050278 -0.02500000037
vertex -0.2771638632 0.1148050278 0.02500000037
vertex -0.3000000119 3.673940558e-17 0.02500000037

endloop
endfacet
facet normal 0.9807851911 -0.1950903833 0
outer loop
vertex -0.3000000119 3.673940558e-17 0.02500000037
vertex -0.3000000119 3.673940558e-17 -0.02500000037
vertex -0.2771638632 0.1148050278 -0.02500000037

endloop
endfacet
facet normal 0 0 1
outer loop
vertex 0 0 -0.02500000037
vertex -0.2771638632 0.1148050278 -0.02500000037
vertex -0.3000000119 3.673940558e-17 -0.02500000037

endloop
endfacet
facet normal 0 0 -1
outer loop
vertex 0 0 0.02500000037
vertex -0.3000000119 3.673940558e-17 0.02500000037
vertex -0.2771638632 0.1148050278 0.02500000037

endloop
endfacet
facet normal 0.9807851911 0.1950903833 0
outer loop
vertex -0.3000000119 3.673940558e-17 -0.02500000037
vertex -0.3000000119 3.673940558e-17 0.02500000037
vertex -0.2771638632 -0.1148050278 0.02500000037

endloop
endfacet
facet normal 0.9807851911 0.1950903833 -0
outer loop
vertex -0.2771638632 -0.1148050278 0.02500000037
vertex -0.2771638632 -0.1148050278 -0.02500000037
vertex -0.3000000119 3.673940558e-17 -0.02500000037

endloop
endfacet
facet normal 0 0 1
outer loop
vertex 0 0 -0.02500000037
vertex -0.3000000119 3.673940558e-17 -0.02500000037
vertex -0.2771638632 -0.1148050278 -0.02500000037

endloop
endfacet
facet normal 0 0 -1
outer loop
vertex 0 0 0.02500000037
vertex -0.2771638632 -0.1148050278 0.02500000037
vertex -0.3000000119 3.673940558e-17 0.02500000037

endloop
endfacet
facet normal 0.8314695954 0.5555702448 0
outer loop
vertex -0.2771638632 -0.1148050278 -0.02500000037
vertex -0.2771638632 -0.1148050278 0.02500000037
vertex -0.2121320367 -0.2121320367 0.02500000037

endloop
endfacet
facet normal 0.8314695954 0.5555702448 -0
outer loop
vertex -0.2121320367 -0.2121320367 0.02500000037
vertex -0.2121320367 -0.2121320367 -0.02500000037
vertex -0.2771638632 -0.1148050278 -0.02500000037

endloop
endfacet
facet normal -0 0 1
outer loop
vertex 0 0 -0.02500000037
vertex -0.2771638632 -0.1148050278 -0.02500000037
vertex -0.2121320367 -0.2121320367 -0.02500000037

endloop
endfacet
facet normal 0 0 -1
outer loop
vertex 0 0 0.02500000037
vertex -0.2121320367 -0.2121320367 0.02500000037
vertex -0.2771638632 -0.1148050278 0.02500000037

endloop
endfacet
facet normal 0.5555702448 0.8314695954 0
outer loop
vertex -0.2121320367 -0.2121320367 -0.02500000037
vertex -0.2121320367 -0.2121320367 0.02500000037
vertex -0.1148050278 -0.2771638632 0.02500000037

endloop
endfacet
facet normal 0.5555702448 0.8314695954 -0
outer loop
vertex -0.1148050278 -0.2771638632 0.02500000037
vertex -0.1148050278 -0.2771638632 -0.02500000037
vertex -0.2121320367 -0.2121320367 -0.02500000037

endloop
endfacet
facet normal -0 0 1
outer loop
vertex 0 0 -0.02500000037
vertex -0.2121320367 -0.2121320367 -0.02500000037
vertex -0.1148050278 -0.2771638632 -0.02500000037

endloop
endfacet
facet normal 0 0 -1
outer loop
vertex 0 0 0.02500000037
vertex -0.1148050278 -0.2771638632 0.02500000037
vertex -0.2121320367 -0.2121320367 0.02500000037

endloop
endfacet
facet normal 0.1950903833 0.9807851911 0
outer loop
vertex -0.1148050278 -0.2771638632 -0.02500000037
vertex -0.1148050278 -0.2771638632 0.02500000037
vertex -5.510910506e-17 -0.3000000119 0.02500000037

endloop
endfacet
facet normal 0.1950903833 0.9807851911 -0
outer loop
vertex -5.510910506e-17 -0.3000000119 0.02500000037
vertex -5.510910506e-17 -0.3000000119 -0.02500000037
vertex -0.1148050278 -0.2771638632 -0.02500000037

endloop
endfacet
facet normal -0 0 1
outer loop
vertex 0 0 -0.02500000037
vertex -0.1148050278 -0.2771638632 -0.02500000037
vertex -5.510910506e-17 -0.3000000119 -0.02500000037

endloop
endfacet
facet normal 0 0 -1
outer loop
vertex 0 0 0.02500000037
vertex -5.510910506e-17 -0.3000000119 0.02500000037
vertex -0.1148050278 -0.2771638632 0.02500000037

endloop
endfacet
facet normal -0.1950903833 0.9807851911 0
outer loop
vertex -5.510910506e-17 -0.3000000119 -0.02500000037
vertex -5.510910506e-17 -0.3000000119 0.02500000037
vertex 0.1148050278 -0.2771638632 0.02500000037

endloop
endfacet
facet normal -0.1950903833 0.9807851911 0
outer loop
vertex 0.1148050278 -0.2771638632 0.02500000037
vertex 0.1148050278 -0.2771638632 -0.02500000037
vertex -5.510910506e-17 -0.3000000119 -0.02500000037

endloop
endfacet
facet normal 0 0 1
outer loop
vertex 0 0 -0.02500000037
vertex -5.510910506e-17 -0.3000000119 -0.02500000037
vertex 0.1148050278 -0.2771638632 -0.02500000037

endloop
endfacet
facet normal -0 0 -1
outer loop
vertex 0 0 0.02500000037
vertex 0.1148050278 -0.2771638632 0.02500000037
vertex -5.510910506e-17 -0.3000000119 0.02500000037

endloop
endfacet
facet normal -0.5555702448 0.8314695954 0
outer loop
vertex 0.1148050278 -0.2771638632 -0.02500000037
vertex 0.1148050278 -0.2771638632 0.02500000037
vertex 0.2121320367 -0.2121320367 0.02500000037

endloop
endfacet
facet normal -0.5555702448 0.8314695954 0
outer loop
vertex 0.2121320367 -0.2121320367 0.02500000037
vertex 0.2121320367 -0.2121320367 -0.02500000037
vertex 0.1148050278 -0.2771638632 -0.02500000037

endloop
endfacet
facet normal 0 -0 1
outer loop
vertex 0 0 -0.02500000037
vertex 0.1148050278 -0.2771638632 -0.02500000037
vertex 0.2121320367 -0.2121320367 -0.02500000037

endloop
endfacet
facet normal -0 0 -1
outer loop
vertex 0 0 0.02500000037
vertex 0.2121320367 -0.2121320367 0.02500000037
vertex 0.1148050278 -0.2771638632 0.02500000037

endloop
endfacet
facet normal -0.8314695954 0.5555702448 0
outer loop
vertex 0.2121320367 -0.2121320367 -0.02500000037
vertex 0.2121320367 -0.2121320367 0.02500000037
vertex 0.2771638632 -0.1148050278 0.02500000037

endloop
endfacet
facet normal -0.8314695954 0.5555702448 0
outer loop
vertex 0.2771638632 -0.1148050278 0.02500000037
vertex 0.2771638632 -0.1148050278 -0.02500000037
vertex 0.2121320367 -0.2121320367 -0.02500000037

endloop
endfacet
facet normal 0 -0 1
outer loop
vertex 0 0 -0.02500000037
vertex 0.2121320367 -0.2121320367 -0.02500000037
vertex 0.2771638632 -0.1148050278 -0.02500000037

endloop
endfacet
facet normal -0 0 -1
outer loop
vertex 0 0 0.02500000037
vertex 0.2771638632 -0.1148050278 0.02500000037
vertex 0.2121320367 -0.2121320367 0.02500000037

endloop
endfacet
facet normal -0.9807851911 0.1950903833 0
outer loop
vertex 0.2771638632 -0.1148050278 -0.02500000037
vertex 0.2771638632 -0.1148050278 0.02500000037
vertex 0.3000000119 -7.347881116e-17 0.02500000037

endloop
endfacet
facet normal -0.9807851911 0.1950903833 0
outer loop
vertex 0.3000000119 -7.347881116e-17 0.02500000037
vertex 0.3000000119 -7.347881116e-17 -0.02500000037
vertex 0.2771638632 -0.1148050278 -0.02500000037

endloop
endfacet
facet normal 0 -0 1
outer loop
vertex 0 0 -0.02500000037
vertex 0.2771638632 -0.1148050278 -0.02500000037
vertex 0.3000000119 -7.347881116e-17 -0.02500000037

endloop
endfacet
facet normal -0 0 -1
outer loop
vertex 0 0 0.02500000037
vertex 0.3000000119 -7.347881116e-17 0.02500000037
vertex 0.2771638632 -0.1148050278 0.02500000037

endloop
endfacet
endsolid
