solid 
facet normal -0.980785 -0.19509 -0
outer loop
vertex 4.699999809 0 -0.1000000015
vertex 4.699999809 0 0.1000000015
vertex 4.342233658 1.798612118 0.1000000015

endloop
endfacet
facet normal -0.9807853699 -0.1950903088 0
outer loop
vertex 4.342233658 1.798612118 0.1000000015
vertex 4.342233658 1.798612118 -0.1000000015
vertex 4.699999809 0 -0.1000000015

endloop
endfacet
facet normal 0 0 1
outer loop
vertex 0 0 -0.1000000015
vertex 4.699999809 0 -0.1000000015
vertex 4.342233658 1.798612118 -0.1000000015

endloop
endfacet
facet normal 0 -0 -1
outer loop
vertex 0 0 0.1000000015
vertex 4.342233658 1.798612118 0.1000000015
vertex 4.699999809 0 0.1000000015

endloop
endfacet
facet normal -0.831469655 -0.5555701256 -0
outer loop
vertex 4.342233658 1.798612118 -0.1000000015
vertex 4.342233658 1.798612118 0.1000000015
vertex 3.323401928 3.323401928 0.1000000015

endloop
endfacet
facet normal -0.831469655 -0.5555701256 0
outer loop
vertex 3.323401928 3.323401928 0.1000000015
vertex 3.323401928 3.323401928 -0.1000000015
vertex 4.342233658 1.798612118 -0.1000000015

endloop
endfacet
facet normal 0 0 1
outer loop
vertex 0 0 -0.1000000015
vertex 4.342233658 1.798612118 -0.1000000015
vertex 3.323401928 3.323401928 -0.1000000015

endloop
endfacet
facet normal 0 -0 -1
outer loop
vertex 0 0 0.1000000015
vertex 3.323401928 3.323401928 0.1000000015
vertex 4.342233658 1.798612118 0.1000000015

endloop
endfacet
facet normal -0.5555701256 -0.831469655 -0
outer loop
vertex 3.323401928 3.323401928 -0.1000000015
vertex 3.323401928 3.323401928 0.1000000015
vertex 1.798612118 4.342233658 0.1000000015

endloop
endfacet
facet normal -0.5555701256 -0.831469655 0
outer loop
vertex 1.798612118 4.342233658 0.1000000015
vertex 1.798612118 4.342233658 -0.1000000015
vertex 3.323401928 3.323401928 -0.1000000015

endloop
endfacet
facet normal 0 0 1
outer loop
vertex 0 0 -0.1000000015
vertex 3.323401928 3.323401928 -0.1000000015
vertex 1.798612118 4.342233658 -0.1000000015

endloop
endfacet
facet normal 0 -0 -1
outer loop
vertex 0 0 0.1000000015
vertex 1.798612118 4.342233658 0.1000000015
vertex 3.323401928 3.323401928 0.1000000015

endloop
endfacet
facet normal -0.1950903088 -0.9807853699 -0
outer loop
vertex 1.798612118 4.342233658 -0.1000000015
vertex 1.798612118 4.342233658 0.1000000015
vertex 2.877919905e-16 4.699999809 0.1000000015

endloop
endfacet
facet normal -0.1950903088 -0.9807853699 0
outer loop
vertex 2.877919905e-16 4.699999809 0.1000000015
vertex 2.877919905e-16 4.699999809 -0.1000000015
vertex 1.798612118 4.342233658 -0.1000000015

endloop
endfacet
facet normal 0 0 1
outer loop
vertex 0 0 -0.1000000015
vertex 1.798612118 4.342233658 -0.1000000015
vertex 2.877919905e-16 4.699999809 -0.1000000015

endloop
endfacet
facet normal 0 -0 -1
outer loop
vertex 0 0 0.1000000015
vertex 2.877919905e-16 4.699999809 0.1000000015
vertex 1.798612118 4.342233658 0.1000000015

endloop
endfacet
facet normal 0.1950903088 -0.9807853699 0
outer loop
vertex 2.877919905e-16 4.699999809 -0.1000000015
vertex 2.877919905e-16 4.699999809 0.1000000015
vertex -1.798612118 4.342233658 0.1000000015

endloop
endfacet
facet normal 0.1950903088 -0.9807853699 0
outer loop
vertex -1.798612118 4.342233658 0.1000000015
vertex -1.798612118 4.342233658 -0.1000000015
vertex 2.877919905e-16 4.699999809 -0.1000000015

endloop
endfacet
facet normal 0 0 1
outer loop
vertex 0 0 -0.1000000015
vertex 2.877919905e-16 4.699999809 -0.1000000015
vertex -1.798612118 4.342233658 -0.1000000015

endloop
endfacet
facet normal 0 0 -1
outer loop
vertex 0 0 0.1000000015
vertex -1.798612118 4.342233658 0.1000000015
vertex 2.877919905e-16 4.699999809 0.1000000015

endloop
endfacet
facet normal 0.5555701256 -0.831469655 0
outer loop
vertex -1.798612118 4.342233658 -0.1000000015
vertex -1.798612118 4.342233658 0.1000000015
vertex -3.323401928 3.323401928 0.1000000015

endloop
endfacet
facet normal 0.5555701256 -0.831469655 0
outer loop
vertex -3.323401928 3.323401928 0.1000000015
vertex -3.323401928 3.323401928 -0.1000000015
vertex -1.798612118 4.342233658 -0.1000000015

endloop
endfacet
facet normal 0 0 1
outer loop
vertex 0 0 -0.1000000015
vertex -1.798612118 4.342233658 -0.1000000015
vertex -3.323401928 3.323401928 -0.1000000015

endloop
endfacet
facet normal 0 0 -1
outer loop
vertex 0 0 0.1000000015
vertex -3.323401928 3.323401928 0.1000000015
vertex -1.798612118 4.342233658 0.1000000015

endloop
endfacet
facet normal 0.831469655 -0.5555701256 0
outer loop
vertex -3.323401928 3.323401928 -0.1000000015
vertex -3.323401928 3.323401928 0.1000000015
vertex -4.342233658 1.798612118 0.1000000015

endloop
endfacet
facet normal 0.831469655 -0.5555701256 0
outer loop
vertex -4.342233658 1.798612118 0.1000000015
vertex -4.342233658 1.798612118 -0.1000000015
vertex -3.323401928 3.323401928 -0.1000000015

endloop
endfacet
facet normal 0 0 1
outer loop
vertex 0 0 -0.1000000015
vertex -3.323401928 3.323401928 -0.1000000015
vertex -4.342233658 1.798612118 -0.1000000015

endloop
endfacet
facet normal 0 0 -1
outer loop
vertex 0 0 0.1000000015
vertex -4.342233658 1.798612118 0.1000000015
vertex -3.323401928 3.323401928 0.1000000015

endloop
endfacet
facet normal 0.9807853699 -0.1950903088 0
outer loop
vertex -4.342233658 1.798612118 -0.1000000015
vertex -4.342233658 1.798612118 0.1000000015
vertex -4.699999809 5.75583981e-16 0.1000000015

endloop
endfacet
facet normal 0.9807853699 -0.1950903088 0
outer loop
vertex -4.699999809 5.75583981e-16 0.1000000015
vertex -4.699999809 5.75583981e-16 -0.1000000015
vertex -4.342233658 1.798612118 -0.1000000015

endloop
endfacet
facet normal 0 0 1
outer loop
vertex 0 0 -0.1000000015
vertex -4.342233658 1.798612118 -0.1000000015
vertex -4.699999809 5.75583981e-16 -0.1000000015

endloop
endfacet
facet normal 0 0 -1
outer loop
vertex 0 0 0.1000000015
vertex -4.699999809 5.75583981e-16 0.1000000015
vertex -4.342233658 1.798612118 0.1000000015

endloop
endfacet
facet normal 0.9807853699 0.1950903088 0
outer loop
vertex -4.699999809 5.75583981e-16 -0.1000000015
vertex -4.699999809 5.75583981e-16 0.1000000015
vertex -4.342233658 -1.798612118 0.1000000015

endloop
endfacet
facet normal 0.9807853699 0.1950903088 -0
outer loop
vertex -4.342233658 -1.798612118 0.1000000015
vertex -4.342233658 -1.798612118 -0.1000000015
vertex -4.699999809 5.75583981e-16 -0.1000000015

endloop
endfacet
facet normal 0 0 1
outer loop
vertex 0 0 -0.1000000015
vertex -4.699999809 5.75583981e-16 -0.1000000015
vertex -4.342233658 -1.798612118 -0.1000000015

endloop
endfacet
facet normal 0 0 -1
outer loop
vertex 0 0 0.1000000015
vertex -4.342233658 -1.798612118 0.1000000015
vertex -4.699999809 5.75583981e-16 0.1000000015

endloop
endfacet
facet normal 0.831469655 0.5555701256 0
outer loop
vertex -4.342233658 -1.798612118 -0.1000000015
vertex -4.342233658 -1.798612118 0.1000000015
vertex -3.323401928 -3.323401928 0.1000000015

endloop
endfacet
facet normal 0.831469655 0.5555701256 -0
outer loop
vertex -3.323401928 -3.323401928 0.1000000015
vertex -3.323401928 -3.323401928 -0.1000000015
vertex -4.342233658 -1.798612118 -0.1000000015

endloop
endfacet
facet normal -0 0 1
outer loop
vertex 0 0 -0.1000000015
vertex -4.342233658 -1.798612118 -0.1000000015
vertex -3.323401928 -3.323401928 -0.1000000015

endloop
endfacet
facet normal 0 0 -1
outer loop
vertex 0 0 0.1000000015
vertex -3.323401928 -3.323401928 0.1000000015
vertex -4.342233658 -1.798612118 0.1000000015

endloop
endfacet
facet normal 0.5555701256 0.831469655 0
outer loop
vertex -3.323401928 -3.323401928 -0.1000000015
vertex -3.323401928 -3.323401928 0.1000000015
vertex -1.798612118 -4.342233658 0.1000000015

endloop
endfacet
facet normal 0.5555701256 0.831469655 -0
outer loop
vertex -1.798612118 -4.342233658 0.1000000015
vertex -1.798612118 -4.342233658 -0.1000000015
vertex -3.323401928 -3.323401928 -0.1000000015

endloop
endfacet
facet normal -0 0 1
outer loop
vertex 0 0 -0.1000000015
vertex -3.323401928 -3.323401928 -0.1000000015
vertex -1.798612118 -4.342233658 -0.1000000015

endloop
endfacet
facet normal 0 0 -1
outer loop
vertex 0 0 0.1000000015
vertex -1.798612118 -4.342233658 0.1000000015
vertex -3.323401928 -3.323401928 0.1000000015

endloop
endfacet
facet normal 0.1950903088 0.9807853699 0
outer loop
vertex -1.798612118 -4.342233658 -0.1000000015
vertex -1.798612118 -4.342233658 0.1000000015
vertex -8.633759715e-16 -4.699999809 0.1000000015

endloop
endfacet
facet normal 0.1950903088 0.9807853699 -0
outer loop
vertex -8.633759715e-16 -4.699999809 0.1000000015
vertex -8.633759715e-16 -4.699999809 -0.1000000015
vertex -1.798612118 -4.342233658 -0.1000000015

endloop
endfacet
facet normal -0 0 1
outer loop
vertex 0 0 -0.1000000015
vertex -1.798612118 -4.342233658 -0.1000000015
vertex -8.633759715e-16 -4.699999809 -0.1000000015

endloop
endfacet
facet normal 0 0 -1
outer loop
vertex 0 0 0.1000000015
vertex -8.633759715e-16 -4.699999809 0.1000000015
vertex -1.798612118 -4.342233658 0.1000000015

endloop
endfacet
facet normal -0.1950903088 0.9807853699 0
outer loop
vertex -8.633759715e-16 -4.699999809 -0.1000000015
vertex -8.633759715e-16 -4.699999809 0.1000000015
vertex 1.798612118 -4.342233658 0.1000000015

endloop
endfacet
facet normal -0.1950903088 0.9807853699 0
outer loop
vertex 1.798612118 -4.342233658 0.1000000015
vertex 1.798612118 -4.342233658 -0.1000000015
vertex -8.633759715e-16 -4.699999809 -0.1000000015

endloop
endfacet
facet normal 0 0 1
outer loop
vertex 0 0 -0.1000000015
vertex -8.633759715e-16 -4.699999809 -0.1000000015
vertex 1.798612118 -4.342233658 -0.1000000015

endloop
endfacet
facet normal -0 0 -1
outer loop
vertex 0 0 0.1000000015
vertex 1.798612118 -4.342233658 0.1000000015
vertex -8.633759715e-16 -4.699999809 0.1000000015

endloop
endfacet
facet normal -0.5555701256 0.831469655 0
outer loop
vertex 1.798612118 -4.342233658 -0.1000000015
vertex 1.798612118 -4.342233658 0.1000000015
vertex 3.323401928 -3.323401928 0.1000000015

endloop
endfacet
facet normal -0.5555701256 0.831469655 0
outer loop
vertex 3.323401928 -3.323401928 0.1000000015
vertex 3.323401928 -3.323401928 -0.1000000015
vertex 1.798612118 -4.342233658 -0.1000000015

endloop
endfacet
facet normal 0 -0 1
outer loop
vertex 0 0 -0.1000000015
vertex 1.798612118 -4.342233658 -0.1000000015
vertex 3.323401928 -3.323401928 -0.1000000015

endloop
endfacet
facet normal -0 0 -1
outer loop
vertex 0 0 0.1000000015
vertex 3.323401928 -3.323401928 0.1000000015
vertex 1.798612118 -4.342233658 0.1000000015

endloop
endfacet
facet normal -0.831469655 0.5555701256 0
outer loop
vertex 3.323401928 -3.323401928 -0.1000000015
vertex 3.323401928 -3.323401928 0.1000000015
vertex 4.342233658 -1.798612118 0.1000000015

endloop
endfacet
facet normal -0.831469655 0.5555701256 0
outer loop
vertex 4.342233658 -1.798612118 0.1000000015
vertex 4.342233658 -1.798612118 -0.1000000015
vertex 3.323401928 -3.323401928 -0.1000000015

endloop
endfacet
facet normal 0 -0 1
outer loop
vertex 0 0 -0.1000000015
vertex 3.323401928 -3.323401928 -0.1000000015
vertex 4.342233658 -1.798612118 -0.1000000015

endloop
endfacet
facet normal -0 0 -1
outer loop
vertex 0 0 0.1000000015
vertex 4.342233658 -1.798612118 0.1000000015
vertex 3.323401928 -3.323401928 0.1000000015

endloop
endfacet
facet normal -0.9807853699 0.1950903088 0
outer loop
vertex 4.342233658 -1.798612118 -0.1000000015
vertex 4.342233658 -1.798612118 0.1000000015
vertex 4.699999809 -1.151167962e-15 0.1000000015

endloop
endfacet
facet normal -0.9807853699 0.1950903088 0
outer loop
vertex 4.699999809 -1.151167962e-15 0.1000000015
vertex 4.699999809 -1.151167962e-15 -0.1000000015
vertex 4.342233658 -1.798612118 -0.1000000015

endloop
endfacet
facet normal 0 -0 1
outer loop
vertex 0 0 -0.1000000015
vertex 4.342233658 -1.798612118 -0.1000000015
vertex 4.699999809 -1.151167962e-15 -0.1000000015

endloop
endfacet
facet normal -0 0 -1
outer loop
vertex 0 0 0.1000000015
vertex 4.699999809 -1.151167962e-15 0.1000000015
vertex 4.342233658 -1.798612118 0.1000000015

endloop
endfacet
endsolid
