solid 
facet normal -0.980785 -0.19509 -0
outer loop
vertex 4.800000191 0 -0.1000000015
vertex 4.800000191 0 0.1000000015
vertex 4.434621811 1.836880445 0.1000000015

endloop
endfacet
facet normal -0.9807851911 -0.1950903833 0
outer loop
vertex 4.434621811 1.836880445 0.1000000015
vertex 4.434621811 1.836880445 -0.1000000015
vertex 4.800000191 0 -0.1000000015

endloop
endfacet
facet normal 0 0 1
outer loop
vertex 0 0 -0.1000000015
vertex 4.800000191 0 -0.1000000015
vertex 4.434621811 1.836880445 -0.1000000015

endloop
endfacet
facet normal 0 -0 -1
outer loop
vertex 0 0 0.1000000015
vertex 4.434621811 1.836880445 0.1000000015
vertex 4.800000191 0 0.1000000015

endloop
endfacet
facet normal -0.8314695954 -0.5555702448 -0
outer loop
vertex 4.434621811 1.836880445 -0.1000000015
vertex 4.434621811 1.836880445 0.1000000015
vertex 3.394112587 3.394112587 0.1000000015

endloop
endfacet
facet normal -0.8314695954 -0.5555702448 0
outer loop
vertex 3.394112587 3.394112587 0.1000000015
vertex 3.394112587 3.394112587 -0.1000000015
vertex 4.434621811 1.836880445 -0.1000000015

endloop
endfacet
facet normal 0 0 1
outer loop
vertex 0 0 -0.1000000015
vertex 4.434621811 1.836880445 -0.1000000015
vertex 3.394112587 3.394112587 -0.1000000015

endloop
endfacet
facet normal 0 -0 -1
outer loop
vertex 0 0 0.1000000015
vertex 3.394112587 3.394112587 0.1000000015
vertex 4.434621811 1.836880445 0.1000000015

endloop
endfacet
facet normal -0.5555702448 -0.8314695954 -0
outer loop
vertex 3.394112587 3.394112587 -0.1000000015
vertex 3.394112587 3.394112587 0.1000000015
vertex 1.836880445 4.434621811 0.1000000015

endloop
endfacet
facet normal -0.5555702448 -0.8314695954 0
outer loop
vertex 1.836880445 4.434621811 0.1000000015
vertex 1.836880445 4.434621811 -0.1000000015
vertex 3.394112587 3.394112587 -0.1000000015

endloop
endfacet
facet normal 0 0 1
outer loop
vertex 0 0 -0.1000000015
vertex 3.394112587 3.394112587 -0.1000000015
vertex 1.836880445 4.434621811 -0.1000000015

endloop
endfacet
facet normal 0 -0 -1
outer loop
vertex 0 0 0.1000000015
vertex 1.836880445 4.434621811 0.1000000015
vertex 3.394112587 3.394112587 0.1000000015

endloop
endfacet
facet normal -0.1950903833 -0.9807851911 -0
outer loop
vertex 1.836880445 4.434621811 -0.1000000015
vertex 1.836880445 4.434621811 0.1000000015
vertex 2.939152446e-16 4.800000191 0.1000000015

endloop
endfacet
facet normal -0.1950903833 -0.9807851911 0
outer loop
vertex 2.939152446e-16 4.800000191 0.1000000015
vertex 2.939152446e-16 4.800000191 -0.1000000015
vertex 1.836880445 4.434621811 -0.1000000015

endloop
endfacet
facet normal 0 0 1
outer loop
vertex 0 0 -0.1000000015
vertex 1.836880445 4.434621811 -0.1000000015
vertex 2.939152446e-16 4.800000191 -0.1000000015

endloop
endfacet
facet normal 0 -0 -1
outer loop
vertex 0 0 0.1000000015
vertex 2.939152446e-16 4.800000191 0.1000000015
vertex 1.836880445 4.434621811 0.1000000015

endloop
endfacet
facet normal 0.1950903833 -0.9807851911 0
outer loop
vertex 2.939152446e-16 4.800000191 -0.1000000015
vertex 2.939152446e-16 4.800000191 0.1000000015
vertex -1.836880445 4.434621811 0.1000000015

endloop
endfacet
facet normal 0.1950903833 -0.9807851911 0
outer loop
vertex -1.836880445 4.434621811 0.1000000015
vertex -1.836880445 4.434621811 -0.1000000015
vertex 2.939152446e-16 4.800000191 -0.1000000015

endloop
endfacet
facet normal 0 0 1
outer loop
vertex 0 0 -0.1000000015
vertex 2.939152446e-16 4.800000191 -0.1000000015
vertex -1.836880445 4.434621811 -0.1000000015

endloop
endfacet
facet normal 0 0 -1
outer loop
vertex 0 0 0.1000000015
vertex -1.836880445 4.434621811 0.1000000015
vertex 2.939152446e-16 4.800000191 0.1000000015

endloop
endfacet
facet normal 0.5555702448 -0.8314695954 0
outer loop
vertex -1.836880445 4.434621811 -0.1000000015
vertex -1.836880445 4.434621811 0.1000000015
vertex -3.394112587 3.394112587 0.1000000015

endloop
endfacet
facet normal 0.5555702448 -0.8314695954 0
outer loop
vertex -3.394112587 3.394112587 0.1000000015
vertex -3.394112587 3.394112587 -0.1000000015
vertex -1.836880445 4.434621811 -0.1000000015

endloop
endfacet
facet normal 0 0 1
outer loop
vertex 0 0 -0.1000000015
vertex -1.836880445 4.434621811 -0.1000000015
vertex -3.394112587 3.394112587 -0.1000000015

endloop
endfacet
facet normal 0 0 -1
outer loop
vertex 0 0 0.1000000015
vertex -3.394112587 3.394112587 0.1000000015
vertex -1.836880445 4.434621811 0.1000000015

endloop
endfacet
facet normal 0.8314695954 -0.5555702448 0
outer loop
vertex -3.394112587 3.394112587 -0.1000000015
vertex -3.394112587 3.394112587 0.1000000015
vertex -4.434621811 1.836880445 0.1000000015

endloop
endfacet
facet normal 0.8314695954 -0.5555702448 0
outer loop
vertex -4.434621811 1.836880445 0.1000000015
vertex -4.434621811 1.836880445 -0.1000000015
vertex -3.394112587 3.394112587 -0.1000000015

endloop
endfacet
facet normal 0 0 1
outer loop
vertex 0 0 -0.1000000015
vertex -3.394112587 3.394112587 -0.1000000015
vertex -4.434621811 1.836880445 -0.1000000015

endloop
endfacet
facet normal 0 0 -1
outer loop
vertex 0 0 0.1000000015
vertex -4.434621811 1.836880445 0.1000000015
vertex -3.394112587 3.394112587 0.1000000015

endloop
endfacet
facet normal 0.9807851911 -0.1950903833 0
outer loop
vertex -4.434621811 1.836880445 -0.1000000015
vertex -4.434621811 1.836880445 0.1000000015
vertex -4.800000191 5.878304892e-16 0.1000000015

endloop
endfacet
facet normal 0.9807851911 -0.1950903833 0
outer loop
vertex -4.800000191 5.878304892e-16 0.1000000015
vertex -4.800000191 5.878304892e-16 -0.1000000015
vertex -4.434621811 1.836880445 -0.1000000015

endloop
endfacet
facet normal 0 0 1
outer loop
vertex 0 0 -0.1000000015
vertex -4.434621811 1.836880445 -0.1000000015
vertex -4.800000191 5.878304892e-16 -0.1000000015

endloop
endfacet
facet normal 0 0 -1
outer loop
vertex 0 0 0.1000000015
vertex -4.800000191 5.878304892e-16 0.1000000015
vertex -4.434621811 1.836880445 0.1000000015

endloop
endfacet
facet normal 0.9807851911 0.1950903833 0
outer loop
vertex -4.800000191 5.878304892e-16 -0.1000000015
vertex -4.800000191 5.878304892e-16 0.1000000015
vertex -4.434621811 -1.836880445 0.1000000015

endloop
endfacet
facet normal 0.9807851911 0.1950903833 -0
outer loop
vertex -4.434621811 -1.836880445 0.1000000015
vertex -4.434621811 -1.836880445 -0.1000000015
vertex -4.800000191 5.878304892e-16 -0.1000000015

endloop
endfacet
facet normal 0 0 1
outer loop
vertex 0 0 -0.1000000015
vertex -4.800000191 5.878304892e-16 -0.1000000015
vertex -4.434621811 -1.836880445 -0.1000000015

endloop
endfacet
facet normal 0 0 -1
outer loop
vertex 0 0 0.1000000015
vertex -4.434621811 -1.836880445 0.1000000015
vertex -4.800000191 5.878304892e-16 0.1000000015

endloop
endfacet
facet normal 0.8314695954 0.5555702448 0
outer loop
vertex -4.434621811 -1.836880445 -0.1000000015
vertex -4.434621811 -1.836880445 0.1000000015
vertex -3.394112587 -3.394112587 0.1000000015

endloop
endfacet
facet normal 0.8314695954 0.5555702448 -0
outer loop
vertex -3.394112587 -3.394112587 0.1000000015
vertex -3.394112587 -3.394112587 -0.1000000015
vertex -4.434621811 -1.836880445 -0.1000000015

endloop
endfacet
facet normal -0 0 1
outer loop
vertex 0 0 -0.1000000015
vertex -4.434621811 -1.836880445 -0.1000000015
vertex -3.394112587 -3.394112587 -0.1000000015

endloop
endfacet
facet normal 0 0 -1
outer loop
vertex 0 0 0.1000000015
vertex -3.394112587 -3.394112587 0.1000000015
vertex -4.434621811 -1.836880445 0.1000000015

endloop
endfacet
facet normal 0.5555702448 0.8314695954 0
outer loop
vertex -3.394112587 -3.394112587 -0.1000000015
vertex -3.394112587 -3.394112587 0.1000000015
vertex -1.836880445 -4.434621811 0.1000000015

endloop
endfacet
facet normal 0.5555702448 0.8314695954 -0
outer loop
vertex -1.836880445 -4.434621811 0.1000000015
vertex -1.836880445 -4.434621811 -0.1000000015
vertex -3.394112587 -3.394112587 -0.1000000015

endloop
endfacet
facet normal -0 0 1
outer loop
vertex 0 0 -0.1000000015
vertex -3.394112587 -3.394112587 -0.1000000015
vertex -1.836880445 -4.434621811 -0.1000000015

endloop
endfacet
facet normal 0 0 -1
outer loop
vertex 0 0 0.1000000015
vertex -1.836880445 -4.434621811 0.1000000015
vertex -3.394112587 -3.394112587 0.1000000015

endloop
endfacet
facet normal 0.1950903833 0.9807851911 0
outer loop
vertex -1.836880445 -4.434621811 -0.1000000015
vertex -1.836880445 -4.434621811 0.1000000015
vertex -8.817456809e-16 -4.800000191 0.1000000015

endloop
endfacet
facet normal 0.1950903833 0.9807851911 -0
outer loop
vertex -8.817456809e-16 -4.800000191 0.1000000015
vertex -8.817456809e-16 -4.800000191 -0.1000000015
vertex -1.836880445 -4.434621811 -0.1000000015

endloop
endfacet
facet normal -0 0 1
outer loop
vertex 0 0 -0.1000000015
vertex -1.836880445 -4.434621811 -0.1000000015
vertex -8.817456809e-16 -4.800000191 -0.1000000015

endloop
endfacet
facet normal 0 0 -1
outer loop
vertex 0 0 0.1000000015
vertex -8.817456809e-16 -4.800000191 0.1000000015
vertex -1.836880445 -4.434621811 0.1000000015

endloop
endfacet
facet normal -0.1950903833 0.9807851911 0
outer loop
vertex -8.817456809e-16 -4.800000191 -0.1000000015
vertex -8.817456809e-16 -4.800000191 0.1000000015
vertex 1.836880445 -4.434621811 0.1000000015

endloop
endfacet
facet normal -0.1950903833 0.9807851911 0
outer loop
vertex 1.836880445 -4.434621811 0.1000000015
vertex 1.836880445 -4.434621811 -0.1000000015
vertex -8.817456809e-16 -4.800000191 -0.1000000015

endloop
endfacet
facet normal 0 0 1
outer loop
vertex 0 0 -0.1000000015
vertex -8.817456809e-16 -4.800000191 -0.1000000015
vertex 1.836880445 -4.434621811 -0.1000000015

endloop
endfacet
facet normal -0 0 -1
outer loop
vertex 0 0 0.1000000015
vertex 1.836880445 -4.434621811 0.1000000015
vertex -8.817456809e-16 -4.800000191 0.1000000015

endloop
endfacet
facet normal -0.5555702448 0.8314695954 0
outer loop
vertex 1.836880445 -4.434621811 -0.1000000015
vertex 1.836880445 -4.434621811 0.1000000015
vertex 3.394112587 -3.394112587 0.1000000015

endloop
endfacet
facet normal -0.5555702448 0.8314695954 0
outer loop
vertex 3.394112587 -3.394112587 0.1000000015
vertex 3.394112587 -3.394112587 -0.1000000015
vertex 1.836880445 -4.434621811 -0.1000000015

endloop
endfacet
facet normal 0 -0 1
outer loop
vertex 0 0 -0.1000000015
vertex 1.836880445 -4.434621811 -0.1000000015
vertex 3.394112587 -3.394112587 -0.1000000015

endloop
endfacet
facet normal -0 0 -1
outer loop
vertex 0 0 0.1000000015
vertex 3.394112587 -3.394112587 0.1000000015
vertex 1.836880445 -4.434621811 0.1000000015

endloop
endfacet
facet normal -0.8314695954 0.5555702448 0
outer loop
vertex 3.394112587 -3.394112587 -0.1000000015
vertex 3.394112587 -3.394112587 0.1000000015
vertex 4.434621811 -1.836880445 0.1000000015

endloop
endfacet
facet normal -0.8314695954 0.5555702448 0
outer loop
vertex 4.434621811 -1.836880445 0.1000000015
vertex 4.434621811 -1.836880445 -0.1000000015
vertex 3.394112587 -3.394112587 -0.1000000015

endloop
endfacet
facet normal 0 -0 1
outer loop
vertex 0 0 -0.1000000015
vertex 3.394112587 -3.394112587 -0.1000000015
vertex 4.434621811 -1.836880445 -0.1000000015

endloop
endfacet
facet normal -0 0 -1
outer loop
vertex 0 0 0.1000000015
vertex 4.434621811 -1.836880445 0.1000000015
vertex 3.394112587 -3.394112587 0.1000000015

endloop
endfacet
facet normal -0.9807851911 0.1950903833 0
outer loop
vertex 4.434621811 -1.836880445 -0.1000000015
vertex 4.434621811 -1.836880445 0.1000000015
vertex 4.800000191 -1.175660978e-15 0.1000000015

endloop
endfacet
facet normal -0.9807851911 0.1950903833 0
outer loop
vertex 4.800000191 -1.175660978e-15 0.1000000015
vertex 4.800000191 -1.175660978e-15 -0.1000000015
vertex 4.434621811 -1.836880445 -0.1000000015

endloop
endfacet
facet normal 0 -0 1
outer loop
vertex 0 0 -0.1000000015
vertex 4.434621811 -1.836880445 -0.1000000015
vertex 4.800000191 -1.175660978e-15 -0.1000000015

endloop
endfacet
facet normal -0 0 -1
outer loop
vertex 0 0 0.1000000015
vertex 4.800000191 -1.175660978e-15 0.1000000015
vertex 4.434621811 -1.836880445 0.1000000015

endloop
endfacet
endsolid
