solid 
facet normal -0.980785 -0.19509 -0
outer loop
vertex 4.75 0 -0.1000000015
vertex 4.75 0 0.1000000015
vertex 4.388427734 1.817746282 0.1000000015

endloop
endfacet
facet normal -0.9807852507 -0.1950903386 0
outer loop
vertex 4.388427734 1.817746282 0.1000000015
vertex 4.388427734 1.817746282 -0.1000000015
vertex 4.75 0 -0.1000000015

endloop
endfacet
facet normal 0 0 1
outer loop
vertex 0 0 -0.1000000015
vertex 4.75 0 -0.1000000015
vertex 4.388427734 1.817746282 -0.1000000015

endloop
endfacet
facet normal 0 -0 -1
outer loop
vertex 0 0 0.1000000015
vertex 4.388427734 1.817746282 0.1000000015
vertex 4.75 0 0.1000000015

endloop
endfacet
facet normal -0.831469655 -0.5555701256 -0
outer loop
vertex 4.388427734 1.817746282 -0.1000000015
vertex 4.388427734 1.817746282 0.1000000015
vertex 3.358757257 3.358757257 0.1000000015

endloop
endfacet
facet normal -0.831469655 -0.5555701256 0
outer loop
vertex 3.358757257 3.358757257 0.1000000015
vertex 3.358757257 3.358757257 -0.1000000015
vertex 4.388427734 1.817746282 -0.1000000015

endloop
endfacet
facet normal 0 0 1
outer loop
vertex 0 0 -0.1000000015
vertex 4.388427734 1.817746282 -0.1000000015
vertex 3.358757257 3.358757257 -0.1000000015

endloop
endfacet
facet normal 0 -0 -1
outer loop
vertex 0 0 0.1000000015
vertex 3.358757257 3.358757257 0.1000000015
vertex 4.388427734 1.817746282 0.1000000015

endloop
endfacet
facet normal -0.5555701256 -0.831469655 -0
outer loop
vertex 3.358757257 3.358757257 -0.1000000015
vertex 3.358757257 3.358757257 0.1000000015
vertex 1.817746282 4.388427734 0.1000000015

endloop
endfacet
facet normal -0.5555701256 -0.831469655 0
outer loop
vertex 1.817746282 4.388427734 0.1000000015
vertex 1.817746282 4.388427734 -0.1000000015
vertex 3.358757257 3.358757257 -0.1000000015

endloop
endfacet
facet normal 0 0 1
outer loop
vertex 0 0 -0.1000000015
vertex 3.358757257 3.358757257 -0.1000000015
vertex 1.817746282 4.388427734 -0.1000000015

endloop
endfacet
facet normal 0 -0 -1
outer loop
vertex 0 0 0.1000000015
vertex 1.817746282 4.388427734 0.1000000015
vertex 3.358757257 3.358757257 0.1000000015

endloop
endfacet
facet normal -0.1950903386 -0.9807852507 -0
outer loop
vertex 1.817746282 4.388427734 -0.1000000015
vertex 1.817746282 4.388427734 0.1000000015
vertex 2.908536176e-16 4.75 0.1000000015

endloop
endfacet
facet normal -0.1950903386 -0.9807852507 0
outer loop
vertex 2.908536176e-16 4.75 0.1000000015
vertex 2.908536176e-16 4.75 -0.1000000015
vertex 1.817746282 4.388427734 -0.1000000015

endloop
endfacet
facet normal 0 0 1
outer loop
vertex 0 0 -0.1000000015
vertex 1.817746282 4.388427734 -0.1000000015
vertex 2.908536176e-16 4.75 -0.1000000015

endloop
endfacet
facet normal 0 -0 -1
outer loop
vertex 0 0 0.1000000015
vertex 2.908536176e-16 4.75 0.1000000015
vertex 1.817746282 4.388427734 0.1000000015

endloop
endfacet
facet normal 0.1950903386 -0.9807852507 0
outer loop
vertex 2.908536176e-16 4.75 -0.1000000015
vertex 2.908536176e-16 4.75 0.1000000015
vertex -1.817746282 4.388427734 0.1000000015

endloop
endfacet
facet normal 0.1950903386 -0.9807852507 0
outer loop
vertex -1.817746282 4.388427734 0.1000000015
vertex -1.817746282 4.388427734 -0.1000000015
vertex 2.908536176e-16 4.75 -0.1000000015

endloop
endfacet
facet normal 0 0 1
outer loop
vertex 0 0 -0.1000000015
vertex 2.908536176e-16 4.75 -0.1000000015
vertex -1.817746282 4.388427734 -0.1000000015

endloop
endfacet
facet normal 0 0 -1
outer loop
vertex 0 0 0.1000000015
vertex -1.817746282 4.388427734 0.1000000015
vertex 2.908536176e-16 4.75 0.1000000015

endloop
endfacet
facet normal 0.5555701256 -0.831469655 0
outer loop
vertex -1.817746282 4.388427734 -0.1000000015
vertex -1.817746282 4.388427734 0.1000000015
vertex -3.358757257 3.358757257 0.1000000015

endloop
endfacet
facet normal 0.5555701256 -0.831469655 0
outer loop
vertex -3.358757257 3.358757257 0.1000000015
vertex -3.358757257 3.358757257 -0.1000000015
vertex -1.817746282 4.388427734 -0.1000000015

endloop
endfacet
facet normal 0 0 1
outer loop
vertex 0 0 -0.1000000015
vertex -1.817746282 4.388427734 -0.1000000015
vertex -3.358757257 3.358757257 -0.1000000015

endloop
endfacet
facet normal 0 0 -1
outer loop
vertex 0 0 0.1000000015
vertex -3.358757257 3.358757257 0.1000000015
vertex -1.817746282 4.388427734 0.1000000015

endloop
endfacet
facet normal 0.831469655 -0.5555701256 0
outer loop
vertex -3.358757257 3.358757257 -0.1000000015
vertex -3.358757257 3.358757257 0.1000000015
vertex -4.388427734 1.817746282 0.1000000015

endloop
endfacet
facet normal 0.831469655 -0.5555701256 0
outer loop
vertex -4.388427734 1.817746282 0.1000000015
vertex -4.388427734 1.817746282 -0.1000000015
vertex -3.358757257 3.358757257 -0.1000000015

endloop
endfacet
facet normal 0 0 1
outer loop
vertex 0 0 -0.1000000015
vertex -3.358757257 3.358757257 -0.1000000015
vertex -4.388427734 1.817746282 -0.1000000015

endloop
endfacet
facet normal 0 0 -1
outer loop
vertex 0 0 0.1000000015
vertex -4.388427734 1.817746282 0.1000000015
vertex -3.358757257 3.358757257 0.1000000015

endloop
endfacet
facet normal 0.9807852507 -0.1950903386 0
outer loop
vertex -4.388427734 1.817746282 -0.1000000015
vertex -4.388427734 1.817746282 0.1000000015
vertex -4.75 5.817072351e-16 0.1000000015

endloop
endfacet
facet normal 0.9807852507 -0.1950903386 0
outer loop
vertex -4.75 5.817072351e-16 0.1000000015
vertex -4.75 5.817072351e-16 -0.1000000015
vertex -4.388427734 1.817746282 -0.1000000015

endloop
endfacet
facet normal 0 0 1
outer loop
vertex 0 0 -0.1000000015
vertex -4.388427734 1.817746282 -0.1000000015
vertex -4.75 5.817072351e-16 -0.1000000015

endloop
endfacet
facet normal 0 0 -1
outer loop
vertex 0 0 0.1000000015
vertex -4.75 5.817072351e-16 0.1000000015
vertex -4.388427734 1.817746282 0.1000000015

endloop
endfacet
facet normal 0.9807852507 0.1950903386 0
outer loop
vertex -4.75 5.817072351e-16 -0.1000000015
vertex -4.75 5.817072351e-16 0.1000000015
vertex -4.388427734 -1.817746282 0.1000000015

endloop
endfacet
facet normal 0.9807852507 0.1950903386 -0
outer loop
vertex -4.388427734 -1.817746282 0.1000000015
vertex -4.388427734 -1.817746282 -0.1000000015
vertex -4.75 5.817072351e-16 -0.1000000015

endloop
endfacet
facet normal 0 0 1
outer loop
vertex 0 0 -0.1000000015
vertex -4.75 5.817072351e-16 -0.1000000015
vertex -4.388427734 -1.817746282 -0.1000000015

endloop
endfacet
facet normal 0 0 -1
outer loop
vertex 0 0 0.1000000015
vertex -4.388427734 -1.817746282 0.1000000015
vertex -4.75 5.817072351e-16 0.1000000015

endloop
endfacet
facet normal 0.831469655 0.5555701256 0
outer loop
vertex -4.388427734 -1.817746282 -0.1000000015
vertex -4.388427734 -1.817746282 0.1000000015
vertex -3.358757257 -3.358757257 0.1000000015

endloop
endfacet
facet normal 0.831469655 0.5555701256 -0
outer loop
vertex -3.358757257 -3.358757257 0.1000000015
vertex -3.358757257 -3.358757257 -0.1000000015
vertex -4.388427734 -1.817746282 -0.1000000015

endloop
endfacet
facet normal -0 0 1
outer loop
vertex 0 0 -0.1000000015
vertex -4.388427734 -1.817746282 -0.1000000015
vertex -3.358757257 -3.358757257 -0.1000000015

endloop
endfacet
facet normal 0 0 -1
outer loop
vertex 0 0 0.1000000015
vertex -3.358757257 -3.358757257 0.1000000015
vertex -4.388427734 -1.817746282 0.1000000015

endloop
endfacet
facet normal 0.5555701256 0.831469655 0
outer loop
vertex -3.358757257 -3.358757257 -0.1000000015
vertex -3.358757257 -3.358757257 0.1000000015
vertex -1.817746282 -4.388427734 0.1000000015

endloop
endfacet
facet normal 0.5555701256 0.831469655 -0
outer loop
vertex -1.817746282 -4.388427734 0.1000000015
vertex -1.817746282 -4.388427734 -0.1000000015
vertex -3.358757257 -3.358757257 -0.1000000015

endloop
endfacet
facet normal -0 0 1
outer loop
vertex 0 0 -0.1000000015
vertex -3.358757257 -3.358757257 -0.1000000015
vertex -1.817746282 -4.388427734 -0.1000000015

endloop
endfacet
facet normal 0 0 -1
outer loop
vertex 0 0 0.1000000015
vertex -1.817746282 -4.388427734 0.1000000015
vertex -3.358757257 -3.358757257 0.1000000015

endloop
endfacet
facet normal 0.1950903386 0.9807852507 0
outer loop
vertex -1.817746282 -4.388427734 -0.1000000015
vertex -1.817746282 -4.388427734 0.1000000015
vertex -8.725608262e-16 -4.75 0.1000000015

endloop
endfacet
facet normal 0.1950903386 0.9807852507 -0
outer loop
vertex -8.725608262e-16 -4.75 0.1000000015
vertex -8.725608262e-16 -4.75 -0.1000000015
vertex -1.817746282 -4.388427734 -0.1000000015

endloop
endfacet
facet normal -0 0 1
outer loop
vertex 0 0 -0.1000000015
vertex -1.817746282 -4.388427734 -0.1000000015
vertex -8.725608262e-16 -4.75 -0.1000000015

endloop
endfacet
facet normal 0 0 -1
outer loop
vertex 0 0 0.1000000015
vertex -8.725608262e-16 -4.75 0.1000000015
vertex -1.817746282 -4.388427734 0.1000000015

endloop
endfacet
facet normal -0.1950903386 0.9807852507 0
outer loop
vertex -8.725608262e-16 -4.75 -0.1000000015
vertex -8.725608262e-16 -4.75 0.1000000015
vertex 1.817746282 -4.388427734 0.1000000015

endloop
endfacet
facet normal -0.1950903386 0.9807852507 0
outer loop
vertex 1.817746282 -4.388427734 0.1000000015
vertex 1.817746282 -4.388427734 -0.1000000015
vertex -8.725608262e-16 -4.75 -0.1000000015

endloop
endfacet
facet normal 0 0 1
outer loop
vertex 0 0 -0.1000000015
vertex -8.725608262e-16 -4.75 -0.1000000015
vertex 1.817746282 -4.388427734 -0.1000000015

endloop
endfacet
facet normal -0 0 -1
outer loop
vertex 0 0 0.1000000015
vertex 1.817746282 -4.388427734 0.1000000015
vertex -8.725608262e-16 -4.75 0.1000000015

endloop
endfacet
facet normal -0.5555701256 0.831469655 0
outer loop
vertex 1.817746282 -4.388427734 -0.1000000015
vertex 1.817746282 -4.388427734 0.1000000015
vertex 3.358757257 -3.358757257 0.1000000015

endloop
endfacet
facet normal -0.5555701256 0.831469655 0
outer loop
vertex 3.358757257 -3.358757257 0.1000000015
vertex 3.358757257 -3.358757257 -0.1000000015
vertex 1.817746282 -4.388427734 -0.1000000015

endloop
endfacet
facet normal 0 -0 1
outer loop
vertex 0 0 -0.1000000015
vertex 1.817746282 -4.388427734 -0.1000000015
vertex 3.358757257 -3.358757257 -0.1000000015

endloop
endfacet
facet normal -0 0 -1
outer loop
vertex 0 0 0.1000000015
vertex 3.358757257 -3.358757257 0.1000000015
vertex 1.817746282 -4.388427734 0.1000000015

endloop
endfacet
facet normal -0.831469655 0.5555701256 0
outer loop
vertex 3.358757257 -3.358757257 -0.1000000015
vertex 3.358757257 -3.358757257 0.1000000015
vertex 4.388427734 -1.817746282 0.1000000015

endloop
endfacet
facet normal -0.831469655 0.5555701256 0
outer loop
vertex 4.388427734 -1.817746282 0.1000000015
vertex 4.388427734 -1.817746282 -0.1000000015
vertex 3.358757257 -3.358757257 -0.1000000015

endloop
endfacet
facet normal 0 -0 1
outer loop
vertex 0 0 -0.1000000015
vertex 3.358757257 -3.358757257 -0.1000000015
vertex 4.388427734 -1.817746282 -0.1000000015

endloop
endfacet
facet normal -0 0 -1
outer loop
vertex 0 0 0.1000000015
vertex 4.388427734 -1.817746282 0.1000000015
vertex 3.358757257 -3.358757257 0.1000000015

endloop
endfacet
facet normal -0.9807852507 0.1950903386 0
outer loop
vertex 4.388427734 -1.817746282 -0.1000000015
vertex 4.388427734 -1.817746282 0.1000000015
vertex 4.75 -1.16341447e-15 0.1000000015

endloop
endfacet
facet normal -0.9807852507 0.1950903386 0
outer loop
vertex 4.75 -1.16341447e-15 0.1000000015
vertex 4.75 -1.16341447e-15 -0.1000000015
vertex 4.388427734 -1.817746282 -0.1000000015

endloop
endfacet
facet normal 0 -0 1
outer loop
vertex 0 0 -0.1000000015
vertex 4.388427734 -1.817746282 -0.1000000015
vertex 4.75 -1.16341447e-15 -0.1000000015

endloop
endfacet
facet normal -0 0 -1
outer loop
vertex 0 0 0.1000000015
vertex 4.75 -1.16341447e-15 0.1000000015
vertex 4.388427734 -1.817746282 0.1000000015

endloop
endfacet
endsolid
