solid 
facet normal -0.980785 -0.19509 -0
outer loop
vertex 0.5 0 -1
vertex 0.5 0 1
vertex 0.4619397521 0.1913417131 1

endloop
endfacet
facet normal -0.9807852507 -0.1950903982 0
outer loop
vertex 0.4619397521 0.1913417131 1
vertex 0.4619397521 0.1913417131 -1
vertex 0.5 0 -1

endloop
endfacet
facet normal 0 0 1
outer loop
vertex 0 0 -1
vertex 0.5 0 -1
vertex 0.4619397521 0.1913417131 -1

endloop
endfacet
facet normal 0 -0 -1
outer loop
vertex 0 0 1
vertex 0.4619397521 0.1913417131 1
vertex 0.5 0 1

endloop
endfacet
facet normal -0.8314695954 -0.5555701852 -0
outer loop
vertex 0.4619397521 0.1913417131 -1
vertex 0.4619397521 0.1913417131 1
vertex 0.3535533845 0.3535533845 1

endloop
endfacet
facet normal -0.8314695954 -0.5555701852 0
outer loop
vertex 0.3535533845 0.3535533845 1
vertex 0.3535533845 0.3535533845 -1
vertex 0.4619397521 0.1913417131 -1

endloop
endfacet
facet normal 0 0 1
outer loop
vertex 0 0 -1
vertex 0.4619397521 0.1913417131 -1
vertex 0.3535533845 0.3535533845 -1

endloop
endfacet
facet normal 0 -0 -1
outer loop
vertex 0 0 1
vertex 0.3535533845 0.3535533845 1
vertex 0.4619397521 0.1913417131 1

endloop
endfacet
facet normal -0.5555701852 -0.8314695954 -0
outer loop
vertex 0.3535533845 0.3535533845 -1
vertex 0.3535533845 0.3535533845 1
vertex 0.1913417131 0.4619397521 1

endloop
endfacet
facet normal -0.5555701852 -0.8314695954 0
outer loop
vertex 0.1913417131 0.4619397521 1
vertex 0.1913417131 0.4619397521 -1
vertex 0.3535533845 0.3535533845 -1

endloop
endfacet
facet normal 0 0 1
outer loop
vertex 0 0 -1
vertex 0.3535533845 0.3535533845 -1
vertex 0.1913417131 0.4619397521 -1

endloop
endfacet
facet normal 0 -0 -1
outer loop
vertex 0 0 1
vertex 0.1913417131 0.4619397521 1
vertex 0.3535533845 0.3535533845 1

endloop
endfacet
facet normal -0.1950903982 -0.9807852507 -0
outer loop
vertex 0.1913417131 0.4619397521 -1
vertex 0.1913417131 0.4619397521 1
vertex 3.061617131e-17 0.5 1

endloop
endfacet
facet normal -0.1950903982 -0.9807852507 0
outer loop
vertex 3.061617131e-17 0.5 1
vertex 3.061617131e-17 0.5 -1
vertex 0.1913417131 0.4619397521 -1

endloop
endfacet
facet normal 0 0 1
outer loop
vertex 0 0 -1
vertex 0.1913417131 0.4619397521 -1
vertex 3.061617131e-17 0.5 -1

endloop
endfacet
facet normal 0 -0 -1
outer loop
vertex 0 0 1
vertex 3.061617131e-17 0.5 1
vertex 0.1913417131 0.4619397521 1

endloop
endfacet
facet normal 0.1950903982 -0.9807852507 0
outer loop
vertex 3.061617131e-17 0.5 -1
vertex 3.061617131e-17 0.5 1
vertex -0.1913417131 0.4619397521 1

endloop
endfacet
facet normal 0.1950903982 -0.9807852507 0
outer loop
vertex -0.1913417131 0.4619397521 1
vertex -0.1913417131 0.4619397521 -1
vertex 3.061617131e-17 0.5 -1

endloop
endfacet
facet normal 0 0 1
outer loop
vertex 0 0 -1
vertex 3.061617131e-17 0.5 -1
vertex -0.1913417131 0.4619397521 -1

endloop
endfacet
facet normal 0 0 -1
outer loop
vertex 0 0 1
vertex -0.1913417131 0.4619397521 1
vertex 3.061617131e-17 0.5 1

endloop
endfacet
facet normal 0.5555701852 -0.8314695954 0
outer loop
vertex -0.1913417131 0.4619397521 -1
vertex -0.1913417131 0.4619397521 1
vertex -0.3535533845 0.3535533845 1

endloop
endfacet
facet normal 0.5555701852 -0.8314695954 0
outer loop
vertex -0.3535533845 0.3535533845 1
vertex -0.3535533845 0.3535533845 -1
vertex -0.1913417131 0.4619397521 -1

endloop
endfacet
facet normal 0 0 1
outer loop
vertex 0 0 -1
vertex -0.1913417131 0.4619397521 -1
vertex -0.3535533845 0.3535533845 -1

endloop
endfacet
facet normal 0 0 -1
outer loop
vertex 0 0 1
vertex -0.3535533845 0.3535533845 1
vertex -0.1913417131 0.4619397521 1

endloop
endfacet
facet normal 0.8314695954 -0.5555701852 0
outer loop
vertex -0.3535533845 0.3535533845 -1
vertex -0.3535533845 0.3535533845 1
vertex -0.4619397521 0.1913417131 1

endloop
endfacet
facet normal 0.8314695954 -0.5555701852 0
outer loop
vertex -0.4619397521 0.1913417131 1
vertex -0.4619397521 0.1913417131 -1
vertex -0.3535533845 0.3535533845 -1

endloop
endfacet
facet normal 0 0 1
outer loop
vertex 0 0 -1
vertex -0.3535533845 0.3535533845 -1
vertex -0.4619397521 0.1913417131 -1

endloop
endfacet
facet normal 0 0 -1
outer loop
vertex 0 0 1
vertex -0.4619397521 0.1913417131 1
vertex -0.3535533845 0.3535533845 1

endloop
endfacet
facet normal 0.9807852507 -0.1950903982 0
outer loop
vertex -0.4619397521 0.1913417131 -1
vertex -0.4619397521 0.1913417131 1
vertex -0.5 6.123234263e-17 1

endloop
endfacet
facet normal 0.9807852507 -0.1950903982 0
outer loop
vertex -0.5 6.123234263e-17 1
vertex -0.5 6.123234263e-17 -1
vertex -0.4619397521 0.1913417131 -1

endloop
endfacet
facet normal 0 0 1
outer loop
vertex 0 0 -1
vertex -0.4619397521 0.1913417131 -1
vertex -0.5 6.123234263e-17 -1

endloop
endfacet
facet normal 0 0 -1
outer loop
vertex 0 0 1
vertex -0.5 6.123234263e-17 1
vertex -0.4619397521 0.1913417131 1

endloop
endfacet
facet normal 0.9807852507 0.1950903982 0
outer loop
vertex -0.5 6.123234263e-17 -1
vertex -0.5 6.123234263e-17 1
vertex -0.4619397521 -0.1913417131 1

endloop
endfacet
facet normal 0.9807852507 0.1950903982 -0
outer loop
vertex -0.4619397521 -0.1913417131 1
vertex -0.4619397521 -0.1913417131 -1
vertex -0.5 6.123234263e-17 -1

endloop
endfacet
facet normal 0 0 1
outer loop
vertex 0 0 -1
vertex -0.5 6.123234263e-17 -1
vertex -0.4619397521 -0.1913417131 -1

endloop
endfacet
facet normal 0 0 -1
outer loop
vertex 0 0 1
vertex -0.4619397521 -0.1913417131 1
vertex -0.5 6.123234263e-17 1

endloop
endfacet
facet normal 0.8314695954 0.5555701852 0
outer loop
vertex -0.4619397521 -0.1913417131 -1
vertex -0.4619397521 -0.1913417131 1
vertex -0.3535533845 -0.3535533845 1

endloop
endfacet
facet normal 0.8314695954 0.5555701852 -0
outer loop
vertex -0.3535533845 -0.3535533845 1
vertex -0.3535533845 -0.3535533845 -1
vertex -0.4619397521 -0.1913417131 -1

endloop
endfacet
facet normal -0 0 1
outer loop
vertex 0 0 -1
vertex -0.4619397521 -0.1913417131 -1
vertex -0.3535533845 -0.3535533845 -1

endloop
endfacet
facet normal 0 0 -1
outer loop
vertex 0 0 1
vertex -0.3535533845 -0.3535533845 1
vertex -0.4619397521 -0.1913417131 1

endloop
endfacet
facet normal 0.5555701852 0.8314695954 0
outer loop
vertex -0.3535533845 -0.3535533845 -1
vertex -0.3535533845 -0.3535533845 1
vertex -0.1913417131 -0.4619397521 1

endloop
endfacet
facet normal 0.5555701852 0.8314695954 -0
outer loop
vertex -0.1913417131 -0.4619397521 1
vertex -0.1913417131 -0.4619397521 -1
vertex -0.3535533845 -0.3535533845 -1

endloop
endfacet
facet normal -0 0 1
outer loop
vertex 0 0 -1
vertex -0.3535533845 -0.3535533845 -1
vertex -0.1913417131 -0.4619397521 -1

endloop
endfacet
facet normal 0 0 -1
outer loop
vertex 0 0 1
vertex -0.1913417131 -0.4619397521 1
vertex -0.3535533845 -0.3535533845 1

endloop
endfacet
facet normal 0.1950903982 0.9807852507 0
outer loop
vertex -0.1913417131 -0.4619397521 -1
vertex -0.1913417131 -0.4619397521 1
vertex -9.184850733e-17 -0.5 1

endloop
endfacet
facet normal 0.1950903982 0.9807852507 -0
outer loop
vertex -9.184850733e-17 -0.5 1
vertex -9.184850733e-17 -0.5 -1
vertex -0.1913417131 -0.4619397521 -1

endloop
endfacet
facet normal -0 0 1
outer loop
vertex 0 0 -1
vertex -0.1913417131 -0.4619397521 -1
vertex -9.184850733e-17 -0.5 -1

endloop
endfacet
facet normal 0 0 -1
outer loop
vertex 0 0 1
vertex -9.184850733e-17 -0.5 1
vertex -0.1913417131 -0.4619397521 1

endloop
endfacet
facet normal -0.1950903982 0.9807852507 0
outer loop
vertex -9.184850733e-17 -0.5 -1
vertex -9.184850733e-17 -0.5 1
vertex 0.1913417131 -0.4619397521 1

endloop
endfacet
facet normal -0.1950903982 0.9807852507 0
outer loop
vertex 0.1913417131 -0.4619397521 1
vertex 0.1913417131 -0.4619397521 -1
vertex -9.184850733e-17 -0.5 -1

endloop
endfacet
facet normal 0 0 1
outer loop
vertex 0 0 -1
vertex -9.184850733e-17 -0.5 -1
vertex 0.1913417131 -0.4619397521 -1

endloop
endfacet
facet normal -0 0 -1
outer loop
vertex 0 0 1
vertex 0.1913417131 -0.4619397521 1
vertex -9.184850733e-17 -0.5 1

endloop
endfacet
facet normal -0.5555701852 0.8314695954 0
outer loop
vertex 0.1913417131 -0.4619397521 -1
vertex 0.1913417131 -0.4619397521 1
vertex 0.3535533845 -0.3535533845 1

endloop
endfacet
facet normal -0.5555701852 0.8314695954 0
outer loop
vertex 0.3535533845 -0.3535533845 1
vertex 0.3535533845 -0.3535533845 -1
vertex 0.1913417131 -0.4619397521 -1

endloop
endfacet
facet normal 0 -0 1
outer loop
vertex 0 0 -1
vertex 0.1913417131 -0.4619397521 -1
vertex 0.3535533845 -0.3535533845 -1

endloop
endfacet
facet normal -0 0 -1
outer loop
vertex 0 0 1
vertex 0.3535533845 -0.3535533845 1
vertex 0.1913417131 -0.4619397521 1

endloop
endfacet
facet normal -0.8314695954 0.5555701852 0
outer loop
vertex 0.3535533845 -0.3535533845 -1
vertex 0.3535533845 -0.3535533845 1
vertex 0.4619397521 -0.1913417131 1

endloop
endfacet
facet normal -0.8314695954 0.5555701852 0
outer loop
vertex 0.4619397521 -0.1913417131 1
vertex 0.4619397521 -0.1913417131 -1
vertex 0.3535533845 -0.3535533845 -1

endloop
endfacet
facet normal 0 -0 1
outer loop
vertex 0 0 -1
vertex 0.3535533845 -0.3535533845 -1
vertex 0.4619397521 -0.1913417131 -1

endloop
endfacet
facet normal -0 0 -1
outer loop
vertex 0 0 1
vertex 0.4619397521 -0.1913417131 1
vertex 0.3535533845 -0.3535533845 1

endloop
endfacet
facet normal -0.9807852507 0.1950903982 0
outer loop
vertex 0.4619397521 -0.1913417131 -1
vertex 0.4619397521 -0.1913417131 1
vertex 0.5 -1.224646853e-16 1

endloop
endfacet
facet normal -0.9807852507 0.1950903982 0
outer loop
vertex 0.5 -1.224646853e-16 1
vertex 0.5 -1.224646853e-16 -1
vertex 0.4619397521 -0.1913417131 -1

endloop
endfacet
facet normal 0 -0 1
outer loop
vertex 0 0 -1
vertex 0.4619397521 -0.1913417131 -1
vertex 0.5 -1.224646853e-16 -1

endloop
endfacet
facet normal -0 0 -1
outer loop
vertex 0 0 1
vertex 0.5 -1.224646853e-16 1
vertex 0.4619397521 -0.1913417131 1

endloop
endfacet
endsolid
