solid 
facet normal -0.980785 -0.19509 -0
outer loop
vertex 1 0 -0.1000000015
vertex 1 0 0.1000000015
vertex 0.9238795042 0.3826834261 0.1000000015

endloop
endfacet
facet normal -0.9807852507 -0.1950903982 0
outer loop
vertex 0.9238795042 0.3826834261 0.1000000015
vertex 0.9238795042 0.3826834261 -0.1000000015
vertex 1 0 -0.1000000015

endloop
endfacet
facet normal 0 0 1
outer loop
vertex 0 0 -0.1000000015
vertex 1 0 -0.1000000015
vertex 0.9238795042 0.3826834261 -0.1000000015

endloop
endfacet
facet normal 0 -0 -1
outer loop
vertex 0 0 0.1000000015
vertex 0.9238795042 0.3826834261 0.1000000015
vertex 1 0 0.1000000015

endloop
endfacet
facet normal -0.8314695954 -0.5555701852 -0
outer loop
vertex 0.9238795042 0.3826834261 -0.1000000015
vertex 0.9238795042 0.3826834261 0.1000000015
vertex 0.7071067691 0.7071067691 0.1000000015

endloop
endfacet
facet normal -0.8314695954 -0.5555701852 0
outer loop
vertex 0.7071067691 0.7071067691 0.1000000015
vertex 0.7071067691 0.7071067691 -0.1000000015
vertex 0.9238795042 0.3826834261 -0.1000000015

endloop
endfacet
facet normal 0 0 1
outer loop
vertex 0 0 -0.1000000015
vertex 0.9238795042 0.3826834261 -0.1000000015
vertex 0.7071067691 0.7071067691 -0.1000000015

endloop
endfacet
facet normal 0 -0 -1
outer loop
vertex 0 0 0.1000000015
vertex 0.7071067691 0.7071067691 0.1000000015
vertex 0.9238795042 0.3826834261 0.1000000015

endloop
endfacet
facet normal -0.5555701852 -0.8314695954 -0
outer loop
vertex 0.7071067691 0.7071067691 -0.1000000015
vertex 0.7071067691 0.7071067691 0.1000000015
vertex 0.3826834261 0.9238795042 0.1000000015

endloop
endfacet
facet normal -0.5555701852 -0.8314695954 0
outer loop
vertex 0.3826834261 0.9238795042 0.1000000015
vertex 0.3826834261 0.9238795042 -0.1000000015
vertex 0.7071067691 0.7071067691 -0.1000000015

endloop
endfacet
facet normal 0 0 1
outer loop
vertex 0 0 -0.1000000015
vertex 0.7071067691 0.7071067691 -0.1000000015
vertex 0.3826834261 0.9238795042 -0.1000000015

endloop
endfacet
facet normal 0 -0 -1
outer loop
vertex 0 0 0.1000000015
vertex 0.3826834261 0.9238795042 0.1000000015
vertex 0.7071067691 0.7071067691 0.1000000015

endloop
endfacet
facet normal -0.1950903982 -0.9807852507 -0
outer loop
vertex 0.3826834261 0.9238795042 -0.1000000015
vertex 0.3826834261 0.9238795042 0.1000000015
vertex 6.123234263e-17 1 0.1000000015

endloop
endfacet
facet normal -0.1950903982 -0.9807852507 0
outer loop
vertex 6.123234263e-17 1 0.1000000015
vertex 6.123234263e-17 1 -0.1000000015
vertex 0.3826834261 0.9238795042 -0.1000000015

endloop
endfacet
facet normal 0 0 1
outer loop
vertex 0 0 -0.1000000015
vertex 0.3826834261 0.9238795042 -0.1000000015
vertex 6.123234263e-17 1 -0.1000000015

endloop
endfacet
facet normal 0 -0 -1
outer loop
vertex 0 0 0.1000000015
vertex 6.123234263e-17 1 0.1000000015
vertex 0.3826834261 0.9238795042 0.1000000015

endloop
endfacet
facet normal 0.1950903982 -0.9807852507 0
outer loop
vertex 6.123234263e-17 1 -0.1000000015
vertex 6.123234263e-17 1 0.1000000015
vertex -0.3826834261 0.9238795042 0.1000000015

endloop
endfacet
facet normal 0.1950903982 -0.9807852507 0
outer loop
vertex -0.3826834261 0.9238795042 0.1000000015
vertex -0.3826834261 0.9238795042 -0.1000000015
vertex 6.123234263e-17 1 -0.1000000015

endloop
endfacet
facet normal 0 0 1
outer loop
vertex 0 0 -0.1000000015
vertex 6.123234263e-17 1 -0.1000000015
vertex -0.3826834261 0.9238795042 -0.1000000015

endloop
endfacet
facet normal 0 0 -1
outer loop
vertex 0 0 0.1000000015
vertex -0.3826834261 0.9238795042 0.1000000015
vertex 6.123234263e-17 1 0.1000000015

endloop
endfacet
facet normal 0.5555701852 -0.8314695954 0
outer loop
vertex -0.3826834261 0.9238795042 -0.1000000015
vertex -0.3826834261 0.9238795042 0.1000000015
vertex -0.7071067691 0.7071067691 0.1000000015

endloop
endfacet
facet normal 0.5555701852 -0.8314695954 0
outer loop
vertex -0.7071067691 0.7071067691 0.1000000015
vertex -0.7071067691 0.7071067691 -0.1000000015
vertex -0.3826834261 0.9238795042 -0.1000000015

endloop
endfacet
facet normal 0 0 1
outer loop
vertex 0 0 -0.1000000015
vertex -0.3826834261 0.9238795042 -0.1000000015
vertex -0.7071067691 0.7071067691 -0.1000000015

endloop
endfacet
facet normal 0 0 -1
outer loop
vertex 0 0 0.1000000015
vertex -0.7071067691 0.7071067691 0.1000000015
vertex -0.3826834261 0.9238795042 0.1000000015

endloop
endfacet
facet normal 0.8314695954 -0.5555701852 0
outer loop
vertex -0.7071067691 0.7071067691 -0.1000000015
vertex -0.7071067691 0.7071067691 0.1000000015
vertex -0.9238795042 0.3826834261 0.1000000015

endloop
endfacet
facet normal 0.8314695954 -0.5555701852 0
outer loop
vertex -0.9238795042 0.3826834261 0.1000000015
vertex -0.9238795042 0.3826834261 -0.1000000015
vertex -0.7071067691 0.7071067691 -0.1000000015

endloop
endfacet
facet normal 0 0 1
outer loop
vertex 0 0 -0.1000000015
vertex -0.7071067691 0.7071067691 -0.1000000015
vertex -0.9238795042 0.3826834261 -0.1000000015

endloop
endfacet
facet normal 0 0 -1
outer loop
vertex 0 0 0.1000000015
vertex -0.9238795042 0.3826834261 0.1000000015
vertex -0.7071067691 0.7071067691 0.1000000015

endloop
endfacet
facet normal 0.9807852507 -0.1950903982 0
outer loop
vertex -0.9238795042 0.3826834261 -0.1000000015
vertex -0.9238795042 0.3826834261 0.1000000015
vertex -1 1.224646853e-16 0.1000000015

endloop
endfacet
facet normal 0.9807852507 -0.1950903982 0
outer loop
vertex -1 1.224646853e-16 0.1000000015
vertex -1 1.224646853e-16 -0.1000000015
vertex -0.9238795042 0.3826834261 -0.1000000015

endloop
endfacet
facet normal 0 0 1
outer loop
vertex 0 0 -0.1000000015
vertex -0.9238795042 0.3826834261 -0.1000000015
vertex -1 1.224646853e-16 -0.1000000015

endloop
endfacet
facet normal 0 0 -1
outer loop
vertex 0 0 0.1000000015
vertex -1 1.224646853e-16 0.1000000015
vertex -0.9238795042 0.3826834261 0.1000000015

endloop
endfacet
facet normal 0.9807852507 0.1950903982 0
outer loop
vertex -1 1.224646853e-16 -0.1000000015
vertex -1 1.224646853e-16 0.1000000015
vertex -0.9238795042 -0.3826834261 0.1000000015

endloop
endfacet
facet normal 0.9807852507 0.1950903982 -0
outer loop
vertex -0.9238795042 -0.3826834261 0.1000000015
vertex -0.9238795042 -0.3826834261 -0.1000000015
vertex -1 1.224646853e-16 -0.1000000015

endloop
endfacet
facet normal 0 0 1
outer loop
vertex 0 0 -0.1000000015
vertex -1 1.224646853e-16 -0.1000000015
vertex -0.9238795042 -0.3826834261 -0.1000000015

endloop
endfacet
facet normal 0 0 -1
outer loop
vertex 0 0 0.1000000015
vertex -0.9238795042 -0.3826834261 0.1000000015
vertex -1 1.224646853e-16 0.1000000015

endloop
endfacet
facet normal 0.8314695954 0.5555701852 0
outer loop
vertex -0.9238795042 -0.3826834261 -0.1000000015
vertex -0.9238795042 -0.3826834261 0.1000000015
vertex -0.7071067691 -0.7071067691 0.1000000015

endloop
endfacet
facet normal 0.8314695954 0.5555701852 -0
outer loop
vertex -0.7071067691 -0.7071067691 0.1000000015
vertex -0.7071067691 -0.7071067691 -0.1000000015
vertex -0.9238795042 -0.3826834261 -0.1000000015

endloop
endfacet
facet normal -0 0 1
outer loop
vertex 0 0 -0.1000000015
vertex -0.9238795042 -0.3826834261 -0.1000000015
vertex -0.7071067691 -0.7071067691 -0.1000000015

endloop
endfacet
facet normal 0 0 -1
outer loop
vertex 0 0 0.1000000015
vertex -0.7071067691 -0.7071067691 0.1000000015
vertex -0.9238795042 -0.3826834261 0.1000000015

endloop
endfacet
facet normal 0.5555701852 0.8314695954 0
outer loop
vertex -0.7071067691 -0.7071067691 -0.1000000015
vertex -0.7071067691 -0.7071067691 0.1000000015
vertex -0.3826834261 -0.9238795042 0.1000000015

endloop
endfacet
facet normal 0.5555701852 0.8314695954 -0
outer loop
vertex -0.3826834261 -0.9238795042 0.1000000015
vertex -0.3826834261 -0.9238795042 -0.1000000015
vertex -0.7071067691 -0.7071067691 -0.1000000015

endloop
endfacet
facet normal -0 0 1
outer loop
vertex 0 0 -0.1000000015
vertex -0.7071067691 -0.7071067691 -0.1000000015
vertex -0.3826834261 -0.9238795042 -0.1000000015

endloop
endfacet
facet normal 0 0 -1
outer loop
vertex 0 0 0.1000000015
vertex -0.3826834261 -0.9238795042 0.1000000015
vertex -0.7071067691 -0.7071067691 0.1000000015

endloop
endfacet
facet normal 0.1950903982 0.9807852507 0
outer loop
vertex -0.3826834261 -0.9238795042 -0.1000000015
vertex -0.3826834261 -0.9238795042 0.1000000015
vertex -1.836970147e-16 -1 0.1000000015

endloop
endfacet
facet normal 0.1950903982 0.9807852507 -0
outer loop
vertex -1.836970147e-16 -1 0.1000000015
vertex -1.836970147e-16 -1 -0.1000000015
vertex -0.3826834261 -0.9238795042 -0.1000000015

endloop
endfacet
facet normal -0 0 1
outer loop
vertex 0 0 -0.1000000015
vertex -0.3826834261 -0.9238795042 -0.1000000015
vertex -1.836970147e-16 -1 -0.1000000015

endloop
endfacet
facet normal 0 0 -1
outer loop
vertex 0 0 0.1000000015
vertex -1.836970147e-16 -1 0.1000000015
vertex -0.3826834261 -0.9238795042 0.1000000015

endloop
endfacet
facet normal -0.1950903982 0.9807852507 0
outer loop
vertex -1.836970147e-16 -1 -0.1000000015
vertex -1.836970147e-16 -1 0.1000000015
vertex 0.3826834261 -0.9238795042 0.1000000015

endloop
endfacet
facet normal -0.1950903982 0.9807852507 0
outer loop
vertex 0.3826834261 -0.9238795042 0.1000000015
vertex 0.3826834261 -0.9238795042 -0.1000000015
vertex -1.836970147e-16 -1 -0.1000000015

endloop
endfacet
facet normal 0 0 1
outer loop
vertex 0 0 -0.1000000015
vertex -1.836970147e-16 -1 -0.1000000015
vertex 0.3826834261 -0.9238795042 -0.1000000015

endloop
endfacet
facet normal -0 0 -1
outer loop
vertex 0 0 0.1000000015
vertex 0.3826834261 -0.9238795042 0.1000000015
vertex -1.836970147e-16 -1 0.1000000015

endloop
endfacet
facet normal -0.5555701852 0.8314695954 0
outer loop
vertex 0.3826834261 -0.9238795042 -0.1000000015
vertex 0.3826834261 -0.9238795042 0.1000000015
vertex 0.7071067691 -0.7071067691 0.1000000015

endloop
endfacet
facet normal -0.5555701852 0.8314695954 0
outer loop
vertex 0.7071067691 -0.7071067691 0.1000000015
vertex 0.7071067691 -0.7071067691 -0.1000000015
vertex 0.3826834261 -0.9238795042 -0.1000000015

endloop
endfacet
facet normal 0 -0 1
outer loop
vertex 0 0 -0.1000000015
vertex 0.3826834261 -0.9238795042 -0.1000000015
vertex 0.7071067691 -0.7071067691 -0.1000000015

endloop
endfacet
facet normal -0 0 -1
outer loop
vertex 0 0 0.1000000015
vertex 0.7071067691 -0.7071067691 0.1000000015
vertex 0.3826834261 -0.9238795042 0.1000000015

endloop
endfacet
facet normal -0.8314695954 0.5555701852 0
outer loop
vertex 0.7071067691 -0.7071067691 -0.1000000015
vertex 0.7071067691 -0.7071067691 0.1000000015
vertex 0.9238795042 -0.3826834261 0.1000000015

endloop
endfacet
facet normal -0.8314695954 0.5555701852 0
outer loop
vertex 0.9238795042 -0.3826834261 0.1000000015
vertex 0.9238795042 -0.3826834261 -0.1000000015
vertex 0.7071067691 -0.7071067691 -0.1000000015

endloop
endfacet
facet normal 0 -0 1
outer loop
vertex 0 0 -0.1000000015
vertex 0.7071067691 -0.7071067691 -0.1000000015
vertex 0.9238795042 -0.3826834261 -0.1000000015

endloop
endfacet
facet normal -0 0 -1
outer loop
vertex 0 0 0.1000000015
vertex 0.9238795042 -0.3826834261 0.1000000015
vertex 0.7071067691 -0.7071067691 0.1000000015

endloop
endfacet
facet normal -0.9807852507 0.1950903982 0
outer loop
vertex 0.9238795042 -0.3826834261 -0.1000000015
vertex 0.9238795042 -0.3826834261 0.1000000015
vertex 1 -2.449293705e-16 0.1000000015

endloop
endfacet
facet normal -0.9807852507 0.1950903982 0
outer loop
vertex 1 -2.449293705e-16 0.1000000015
vertex 1 -2.449293705e-16 -0.1000000015
vertex 0.9238795042 -0.3826834261 -0.1000000015

endloop
endfacet
facet normal 0 -0 1
outer loop
vertex 0 0 -0.1000000015
vertex 0.9238795042 -0.3826834261 -0.1000000015
vertex 1 -2.449293705e-16 -0.1000000015

endloop
endfacet
facet normal -0 0 -1
outer loop
vertex 0 0 0.1000000015
vertex 1 -2.449293705e-16 0.1000000015
vertex 0.9238795042 -0.3826834261 0.1000000015

endloop
endfacet
endsolid
