solid 
facet normal -0.980785 -0.19509 -0
outer loop
vertex 0.8000000119 0 -0.1000000015
vertex 0.8000000119 0 0.1000000015
vertex 0.7391036153 0.3061467409 0.1000000015

endloop
endfacet
facet normal -0.9807852507 -0.1950903982 0
outer loop
vertex 0.7391036153 0.3061467409 0.1000000015
vertex 0.7391036153 0.3061467409 -0.1000000015
vertex 0.8000000119 0 -0.1000000015

endloop
endfacet
facet normal 0 0 1
outer loop
vertex 0 0 -0.1000000015
vertex 0.8000000119 0 -0.1000000015
vertex 0.7391036153 0.3061467409 -0.1000000015

endloop
endfacet
facet normal 0 -0 -1
outer loop
vertex 0 0 0.1000000015
vertex 0.7391036153 0.3061467409 0.1000000015
vertex 0.8000000119 0 0.1000000015

endloop
endfacet
facet normal -0.8314697146 -0.555570066 -0
outer loop
vertex 0.7391036153 0.3061467409 -0.1000000015
vertex 0.7391036153 0.3061467409 0.1000000015
vertex 0.565685451 0.565685451 0.1000000015

endloop
endfacet
facet normal -0.8314697146 -0.555570066 0
outer loop
vertex 0.565685451 0.565685451 0.1000000015
vertex 0.565685451 0.565685451 -0.1000000015
vertex 0.7391036153 0.3061467409 -0.1000000015

endloop
endfacet
facet normal 0 0 1
outer loop
vertex 0 0 -0.1000000015
vertex 0.7391036153 0.3061467409 -0.1000000015
vertex 0.565685451 0.565685451 -0.1000000015

endloop
endfacet
facet normal 0 -0 -1
outer loop
vertex 0 0 0.1000000015
vertex 0.565685451 0.565685451 0.1000000015
vertex 0.7391036153 0.3061467409 0.1000000015

endloop
endfacet
facet normal -0.555570066 -0.8314697146 -0
outer loop
vertex 0.565685451 0.565685451 -0.1000000015
vertex 0.565685451 0.565685451 0.1000000015
vertex 0.3061467409 0.7391036153 0.1000000015

endloop
endfacet
facet normal -0.555570066 -0.8314697146 0
outer loop
vertex 0.3061467409 0.7391036153 0.1000000015
vertex 0.3061467409 0.7391036153 -0.1000000015
vertex 0.565685451 0.565685451 -0.1000000015

endloop
endfacet
facet normal 0 0 1
outer loop
vertex 0 0 -0.1000000015
vertex 0.565685451 0.565685451 -0.1000000015
vertex 0.3061467409 0.7391036153 -0.1000000015

endloop
endfacet
facet normal 0 -0 -1
outer loop
vertex 0 0 0.1000000015
vertex 0.3061467409 0.7391036153 0.1000000015
vertex 0.565685451 0.565685451 0.1000000015

endloop
endfacet
facet normal -0.1950903982 -0.9807852507 -0
outer loop
vertex 0.3061467409 0.7391036153 -0.1000000015
vertex 0.3061467409 0.7391036153 0.1000000015
vertex 4.898587079e-17 0.8000000119 0.1000000015

endloop
endfacet
facet normal -0.1950903982 -0.9807852507 0
outer loop
vertex 4.898587079e-17 0.8000000119 0.1000000015
vertex 4.898587079e-17 0.8000000119 -0.1000000015
vertex 0.3061467409 0.7391036153 -0.1000000015

endloop
endfacet
facet normal 0 0 1
outer loop
vertex 0 0 -0.1000000015
vertex 0.3061467409 0.7391036153 -0.1000000015
vertex 4.898587079e-17 0.8000000119 -0.1000000015

endloop
endfacet
facet normal 0 -0 -1
outer loop
vertex 0 0 0.1000000015
vertex 4.898587079e-17 0.8000000119 0.1000000015
vertex 0.3061467409 0.7391036153 0.1000000015

endloop
endfacet
facet normal 0.1950903982 -0.9807852507 0
outer loop
vertex 4.898587079e-17 0.8000000119 -0.1000000015
vertex 4.898587079e-17 0.8000000119 0.1000000015
vertex -0.3061467409 0.7391036153 0.1000000015

endloop
endfacet
facet normal 0.1950903982 -0.9807852507 0
outer loop
vertex -0.3061467409 0.7391036153 0.1000000015
vertex -0.3061467409 0.7391036153 -0.1000000015
vertex 4.898587079e-17 0.8000000119 -0.1000000015

endloop
endfacet
facet normal 0 0 1
outer loop
vertex 0 0 -0.1000000015
vertex 4.898587079e-17 0.8000000119 -0.1000000015
vertex -0.3061467409 0.7391036153 -0.1000000015

endloop
endfacet
facet normal 0 0 -1
outer loop
vertex 0 0 0.1000000015
vertex -0.3061467409 0.7391036153 0.1000000015
vertex 4.898587079e-17 0.8000000119 0.1000000015

endloop
endfacet
facet normal 0.555570066 -0.8314697146 0
outer loop
vertex -0.3061467409 0.7391036153 -0.1000000015
vertex -0.3061467409 0.7391036153 0.1000000015
vertex -0.565685451 0.565685451 0.1000000015

endloop
endfacet
facet normal 0.555570066 -0.8314697146 0
outer loop
vertex -0.565685451 0.565685451 0.1000000015
vertex -0.565685451 0.565685451 -0.1000000015
vertex -0.3061467409 0.7391036153 -0.1000000015

endloop
endfacet
facet normal 0 0 1
outer loop
vertex 0 0 -0.1000000015
vertex -0.3061467409 0.7391036153 -0.1000000015
vertex -0.565685451 0.565685451 -0.1000000015

endloop
endfacet
facet normal 0 0 -1
outer loop
vertex 0 0 0.1000000015
vertex -0.565685451 0.565685451 0.1000000015
vertex -0.3061467409 0.7391036153 0.1000000015

endloop
endfacet
facet normal 0.8314697146 -0.555570066 0
outer loop
vertex -0.565685451 0.565685451 -0.1000000015
vertex -0.565685451 0.565685451 0.1000000015
vertex -0.7391036153 0.3061467409 0.1000000015

endloop
endfacet
facet normal 0.8314697146 -0.555570066 0
outer loop
vertex -0.7391036153 0.3061467409 0.1000000015
vertex -0.7391036153 0.3061467409 -0.1000000015
vertex -0.565685451 0.565685451 -0.1000000015

endloop
endfacet
facet normal 0 0 1
outer loop
vertex 0 0 -0.1000000015
vertex -0.565685451 0.565685451 -0.1000000015
vertex -0.7391036153 0.3061467409 -0.1000000015

endloop
endfacet
facet normal 0 0 -1
outer loop
vertex 0 0 0.1000000015
vertex -0.7391036153 0.3061467409 0.1000000015
vertex -0.565685451 0.565685451 0.1000000015

endloop
endfacet
facet normal 0.9807852507 -0.1950903982 0
outer loop
vertex -0.7391036153 0.3061467409 -0.1000000015
vertex -0.7391036153 0.3061467409 0.1000000015
vertex -0.8000000119 9.797174159e-17 0.1000000015

endloop
endfacet
facet normal 0.9807852507 -0.1950903982 0
outer loop
vertex -0.8000000119 9.797174159e-17 0.1000000015
vertex -0.8000000119 9.797174159e-17 -0.1000000015
vertex -0.7391036153 0.3061467409 -0.1000000015

endloop
endfacet
facet normal 0 0 1
outer loop
vertex 0 0 -0.1000000015
vertex -0.7391036153 0.3061467409 -0.1000000015
vertex -0.8000000119 9.797174159e-17 -0.1000000015

endloop
endfacet
facet normal 0 0 -1
outer loop
vertex 0 0 0.1000000015
vertex -0.8000000119 9.797174159e-17 0.1000000015
vertex -0.7391036153 0.3061467409 0.1000000015

endloop
endfacet
facet normal 0.9807852507 0.1950903982 0
outer loop
vertex -0.8000000119 9.797174159e-17 -0.1000000015
vertex -0.8000000119 9.797174159e-17 0.1000000015
vertex -0.7391036153 -0.3061467409 0.1000000015

endloop
endfacet
facet normal 0.9807852507 0.1950903982 -0
outer loop
vertex -0.7391036153 -0.3061467409 0.1000000015
vertex -0.7391036153 -0.3061467409 -0.1000000015
vertex -0.8000000119 9.797174159e-17 -0.1000000015

endloop
endfacet
facet normal 0 0 1
outer loop
vertex 0 0 -0.1000000015
vertex -0.8000000119 9.797174159e-17 -0.1000000015
vertex -0.7391036153 -0.3061467409 -0.1000000015

endloop
endfacet
facet normal 0 0 -1
outer loop
vertex 0 0 0.1000000015
vertex -0.7391036153 -0.3061467409 0.1000000015
vertex -0.8000000119 9.797174159e-17 0.1000000015

endloop
endfacet
facet normal 0.8314697146 0.555570066 0
outer loop
vertex -0.7391036153 -0.3061467409 -0.1000000015
vertex -0.7391036153 -0.3061467409 0.1000000015
vertex -0.565685451 -0.565685451 0.1000000015

endloop
endfacet
facet normal 0.8314697146 0.555570066 -0
outer loop
vertex -0.565685451 -0.565685451 0.1000000015
vertex -0.565685451 -0.565685451 -0.1000000015
vertex -0.7391036153 -0.3061467409 -0.1000000015

endloop
endfacet
facet normal -0 0 1
outer loop
vertex 0 0 -0.1000000015
vertex -0.7391036153 -0.3061467409 -0.1000000015
vertex -0.565685451 -0.565685451 -0.1000000015

endloop
endfacet
facet normal 0 0 -1
outer loop
vertex 0 0 0.1000000015
vertex -0.565685451 -0.565685451 0.1000000015
vertex -0.7391036153 -0.3061467409 0.1000000015

endloop
endfacet
facet normal 0.555570066 0.8314697146 0
outer loop
vertex -0.565685451 -0.565685451 -0.1000000015
vertex -0.565685451 -0.565685451 0.1000000015
vertex -0.3061467409 -0.7391036153 0.1000000015

endloop
endfacet
facet normal 0.555570066 0.8314697146 -0
outer loop
vertex -0.3061467409 -0.7391036153 0.1000000015
vertex -0.3061467409 -0.7391036153 -0.1000000015
vertex -0.565685451 -0.565685451 -0.1000000015

endloop
endfacet
facet normal -0 0 1
outer loop
vertex 0 0 -0.1000000015
vertex -0.565685451 -0.565685451 -0.1000000015
vertex -0.3061467409 -0.7391036153 -0.1000000015

endloop
endfacet
facet normal 0 0 -1
outer loop
vertex 0 0 0.1000000015
vertex -0.3061467409 -0.7391036153 0.1000000015
vertex -0.565685451 -0.565685451 0.1000000015

endloop
endfacet
facet normal 0.1950903982 0.9807852507 0
outer loop
vertex -0.3061467409 -0.7391036153 -0.1000000015
vertex -0.3061467409 -0.7391036153 0.1000000015
vertex -1.469576223e-16 -0.8000000119 0.1000000015

endloop
endfacet
facet normal 0.1950903982 0.9807852507 -0
outer loop
vertex -1.469576223e-16 -0.8000000119 0.1000000015
vertex -1.469576223e-16 -0.8000000119 -0.1000000015
vertex -0.3061467409 -0.7391036153 -0.1000000015

endloop
endfacet
facet normal -0 0 1
outer loop
vertex 0 0 -0.1000000015
vertex -0.3061467409 -0.7391036153 -0.1000000015
vertex -1.469576223e-16 -0.8000000119 -0.1000000015

endloop
endfacet
facet normal 0 0 -1
outer loop
vertex 0 0 0.1000000015
vertex -1.469576223e-16 -0.8000000119 0.1000000015
vertex -0.3061467409 -0.7391036153 0.1000000015

endloop
endfacet
facet normal -0.1950903982 0.9807852507 0
outer loop
vertex -1.469576223e-16 -0.8000000119 -0.1000000015
vertex -1.469576223e-16 -0.8000000119 0.1000000015
vertex 0.3061467409 -0.7391036153 0.1000000015

endloop
endfacet
facet normal -0.1950903982 0.9807852507 0
outer loop
vertex 0.3061467409 -0.7391036153 0.1000000015
vertex 0.3061467409 -0.7391036153 -0.1000000015
vertex -1.469576223e-16 -0.8000000119 -0.1000000015

endloop
endfacet
facet normal 0 0 1
outer loop
vertex 0 0 -0.1000000015
vertex -1.469576223e-16 -0.8000000119 -0.1000000015
vertex 0.3061467409 -0.7391036153 -0.1000000015

endloop
endfacet
facet normal -0 0 -1
outer loop
vertex 0 0 0.1000000015
vertex 0.3061467409 -0.7391036153 0.1000000015
vertex -1.469576223e-16 -0.8000000119 0.1000000015

endloop
endfacet
facet normal -0.555570066 0.8314697146 0
outer loop
vertex 0.3061467409 -0.7391036153 -0.1000000015
vertex 0.3061467409 -0.7391036153 0.1000000015
vertex 0.565685451 -0.565685451 0.1000000015

endloop
endfacet
facet normal -0.555570066 0.8314697146 0
outer loop
vertex 0.565685451 -0.565685451 0.1000000015
vertex 0.565685451 -0.565685451 -0.1000000015
vertex 0.3061467409 -0.7391036153 -0.1000000015

endloop
endfacet
facet normal 0 -0 1
outer loop
vertex 0 0 -0.1000000015
vertex 0.3061467409 -0.7391036153 -0.1000000015
vertex 0.565685451 -0.565685451 -0.1000000015

endloop
endfacet
facet normal -0 0 -1
outer loop
vertex 0 0 0.1000000015
vertex 0.565685451 -0.565685451 0.1000000015
vertex 0.3061467409 -0.7391036153 0.1000000015

endloop
endfacet
facet normal -0.8314697146 0.555570066 0
outer loop
vertex 0.565685451 -0.565685451 -0.1000000015
vertex 0.565685451 -0.565685451 0.1000000015
vertex 0.7391036153 -0.3061467409 0.1000000015

endloop
endfacet
facet normal -0.8314697146 0.555570066 0
outer loop
vertex 0.7391036153 -0.3061467409 0.1000000015
vertex 0.7391036153 -0.3061467409 -0.1000000015
vertex 0.565685451 -0.565685451 -0.1000000015

endloop
endfacet
facet normal 0 -0 1
outer loop
vertex 0 0 -0.1000000015
vertex 0.565685451 -0.565685451 -0.1000000015
vertex 0.7391036153 -0.3061467409 -0.1000000015

endloop
endfacet
facet normal -0 0 -1
outer loop
vertex 0 0 0.1000000015
vertex 0.7391036153 -0.3061467409 0.1000000015
vertex 0.565685451 -0.565685451 0.1000000015

endloop
endfacet
facet normal -0.9807852507 0.1950903982 0
outer loop
vertex 0.7391036153 -0.3061467409 -0.1000000015
vertex 0.7391036153 -0.3061467409 0.1000000015
vertex 0.8000000119 -1.959434832e-16 0.1000000015

endloop
endfacet
facet normal -0.9807852507 0.1950903982 0
outer loop
vertex 0.8000000119 -1.959434832e-16 0.1000000015
vertex 0.8000000119 -1.959434832e-16 -0.1000000015
vertex 0.7391036153 -0.3061467409 -0.1000000015

endloop
endfacet
facet normal 0 -0 1
outer loop
vertex 0 0 -0.1000000015
vertex 0.7391036153 -0.3061467409 -0.1000000015
vertex 0.8000000119 -1.959434832e-16 -0.1000000015

endloop
endfacet
facet normal -0 0 -1
outer loop
vertex 0 0 0.1000000015
vertex 0.8000000119 -1.959434832e-16 0.1000000015
vertex 0.7391036153 -0.3061467409 0.1000000015

endloop
endfacet
endsolid
