solid 
facet normal -0.980785 -0.19509 -0
outer loop
vertex 4.949999809 0 -0.1000000015
vertex 4.949999809 0 0.1000000015
vertex 4.573203564 1.894282937 0.1000000015

endloop
endfacet
facet normal -0.9807853103 -0.195090279 0
outer loop
vertex 4.573203564 1.894282937 0.1000000015
vertex 4.573203564 1.894282937 -0.1000000015
vertex 4.949999809 0 -0.1000000015

endloop
endfacet
facet normal 0 0 1
outer loop
vertex 0 0 -0.1000000015
vertex 4.949999809 0 -0.1000000015
vertex 4.573203564 1.894282937 -0.1000000015

endloop
endfacet
facet normal 0 -0 -1
outer loop
vertex 0 0 0.1000000015
vertex 4.573203564 1.894282937 0.1000000015
vertex 4.949999809 0 0.1000000015

endloop
endfacet
facet normal -0.831469655 -0.5555701852 -0
outer loop
vertex 4.573203564 1.894282937 -0.1000000015
vertex 4.573203564 1.894282937 0.1000000015
vertex 3.500178576 3.500178576 0.1000000015

endloop
endfacet
facet normal -0.831469655 -0.5555701852 0
outer loop
vertex 3.500178576 3.500178576 0.1000000015
vertex 3.500178576 3.500178576 -0.1000000015
vertex 4.573203564 1.894282937 -0.1000000015

endloop
endfacet
facet normal 0 0 1
outer loop
vertex 0 0 -0.1000000015
vertex 4.573203564 1.894282937 -0.1000000015
vertex 3.500178576 3.500178576 -0.1000000015

endloop
endfacet
facet normal 0 -0 -1
outer loop
vertex 0 0 0.1000000015
vertex 3.500178576 3.500178576 0.1000000015
vertex 4.573203564 1.894282937 0.1000000015

endloop
endfacet
facet normal -0.5555701852 -0.831469655 -0
outer loop
vertex 3.500178576 3.500178576 -0.1000000015
vertex 3.500178576 3.500178576 0.1000000015
vertex 1.894282937 4.573203564 0.1000000015

endloop
endfacet
facet normal -0.5555701852 -0.831469655 0
outer loop
vertex 1.894282937 4.573203564 0.1000000015
vertex 1.894282937 4.573203564 -0.1000000015
vertex 3.500178576 3.500178576 -0.1000000015

endloop
endfacet
facet normal 0 0 1
outer loop
vertex 0 0 -0.1000000015
vertex 3.500178576 3.500178576 -0.1000000015
vertex 1.894282937 4.573203564 -0.1000000015

endloop
endfacet
facet normal 0 -0 -1
outer loop
vertex 0 0 0.1000000015
vertex 1.894282937 4.573203564 0.1000000015
vertex 3.500178576 3.500178576 0.1000000015

endloop
endfacet
facet normal -0.195090279 -0.9807853103 -0
outer loop
vertex 1.894282937 4.573203564 -0.1000000015
vertex 1.894282937 4.573203564 0.1000000015
vertex 3.031000729e-16 4.949999809 0.1000000015

endloop
endfacet
facet normal -0.195090279 -0.9807853103 0
outer loop
vertex 3.031000729e-16 4.949999809 0.1000000015
vertex 3.031000729e-16 4.949999809 -0.1000000015
vertex 1.894282937 4.573203564 -0.1000000015

endloop
endfacet
facet normal 0 0 1
outer loop
vertex 0 0 -0.1000000015
vertex 1.894282937 4.573203564 -0.1000000015
vertex 3.031000729e-16 4.949999809 -0.1000000015

endloop
endfacet
facet normal 0 -0 -1
outer loop
vertex 0 0 0.1000000015
vertex 3.031000729e-16 4.949999809 0.1000000015
vertex 1.894282937 4.573203564 0.1000000015

endloop
endfacet
facet normal 0.195090279 -0.9807853103 0
outer loop
vertex 3.031000729e-16 4.949999809 -0.1000000015
vertex 3.031000729e-16 4.949999809 0.1000000015
vertex -1.894282937 4.573203564 0.1000000015

endloop
endfacet
facet normal 0.195090279 -0.9807853103 0
outer loop
vertex -1.894282937 4.573203564 0.1000000015
vertex -1.894282937 4.573203564 -0.1000000015
vertex 3.031000729e-16 4.949999809 -0.1000000015

endloop
endfacet
facet normal 0 0 1
outer loop
vertex 0 0 -0.1000000015
vertex 3.031000729e-16 4.949999809 -0.1000000015
vertex -1.894282937 4.573203564 -0.1000000015

endloop
endfacet
facet normal 0 0 -1
outer loop
vertex 0 0 0.1000000015
vertex -1.894282937 4.573203564 0.1000000015
vertex 3.031000729e-16 4.949999809 0.1000000015

endloop
endfacet
facet normal 0.5555701852 -0.831469655 0
outer loop
vertex -1.894282937 4.573203564 -0.1000000015
vertex -1.894282937 4.573203564 0.1000000015
vertex -3.500178576 3.500178576 0.1000000015

endloop
endfacet
facet normal 0.5555701852 -0.831469655 0
outer loop
vertex -3.500178576 3.500178576 0.1000000015
vertex -3.500178576 3.500178576 -0.1000000015
vertex -1.894282937 4.573203564 -0.1000000015

endloop
endfacet
facet normal 0 0 1
outer loop
vertex 0 0 -0.1000000015
vertex -1.894282937 4.573203564 -0.1000000015
vertex -3.500178576 3.500178576 -0.1000000015

endloop
endfacet
facet normal 0 0 -1
outer loop
vertex 0 0 0.1000000015
vertex -3.500178576 3.500178576 0.1000000015
vertex -1.894282937 4.573203564 0.1000000015

endloop
endfacet
facet normal 0.831469655 -0.5555701852 0
outer loop
vertex -3.500178576 3.500178576 -0.1000000015
vertex -3.500178576 3.500178576 0.1000000015
vertex -4.573203564 1.894282937 0.1000000015

endloop
endfacet
facet normal 0.831469655 -0.5555701852 0
outer loop
vertex -4.573203564 1.894282937 0.1000000015
vertex -4.573203564 1.894282937 -0.1000000015
vertex -3.500178576 3.500178576 -0.1000000015

endloop
endfacet
facet normal 0 0 1
outer loop
vertex 0 0 -0.1000000015
vertex -3.500178576 3.500178576 -0.1000000015
vertex -4.573203564 1.894282937 -0.1000000015

endloop
endfacet
facet normal 0 0 -1
outer loop
vertex 0 0 0.1000000015
vertex -4.573203564 1.894282937 0.1000000015
vertex -3.500178576 3.500178576 0.1000000015

endloop
endfacet
facet normal 0.9807853103 -0.195090279 0
outer loop
vertex -4.573203564 1.894282937 -0.1000000015
vertex -4.573203564 1.894282937 0.1000000015
vertex -4.949999809 6.062001457e-16 0.1000000015

endloop
endfacet
facet normal 0.9807853103 -0.195090279 0
outer loop
vertex -4.949999809 6.062001457e-16 0.1000000015
vertex -4.949999809 6.062001457e-16 -0.1000000015
vertex -4.573203564 1.894282937 -0.1000000015

endloop
endfacet
facet normal 0 0 1
outer loop
vertex 0 0 -0.1000000015
vertex -4.573203564 1.894282937 -0.1000000015
vertex -4.949999809 6.062001457e-16 -0.1000000015

endloop
endfacet
facet normal 0 0 -1
outer loop
vertex 0 0 0.1000000015
vertex -4.949999809 6.062001457e-16 0.1000000015
vertex -4.573203564 1.894282937 0.1000000015

endloop
endfacet
facet normal 0.9807853103 0.195090279 0
outer loop
vertex -4.949999809 6.062001457e-16 -0.1000000015
vertex -4.949999809 6.062001457e-16 0.1000000015
vertex -4.573203564 -1.894282937 0.1000000015

endloop
endfacet
facet normal 0.9807853103 0.195090279 -0
outer loop
vertex -4.573203564 -1.894282937 0.1000000015
vertex -4.573203564 -1.894282937 -0.1000000015
vertex -4.949999809 6.062001457e-16 -0.1000000015

endloop
endfacet
facet normal 0 0 1
outer loop
vertex 0 0 -0.1000000015
vertex -4.949999809 6.062001457e-16 -0.1000000015
vertex -4.573203564 -1.894282937 -0.1000000015

endloop
endfacet
facet normal 0 0 -1
outer loop
vertex 0 0 0.1000000015
vertex -4.573203564 -1.894282937 0.1000000015
vertex -4.949999809 6.062001457e-16 0.1000000015

endloop
endfacet
facet normal 0.831469655 0.5555701852 0
outer loop
vertex -4.573203564 -1.894282937 -0.1000000015
vertex -4.573203564 -1.894282937 0.1000000015
vertex -3.500178576 -3.500178576 0.1000000015

endloop
endfacet
facet normal 0.831469655 0.5555701852 -0
outer loop
vertex -3.500178576 -3.500178576 0.1000000015
vertex -3.500178576 -3.500178576 -0.1000000015
vertex -4.573203564 -1.894282937 -0.1000000015

endloop
endfacet
facet normal -0 0 1
outer loop
vertex 0 0 -0.1000000015
vertex -4.573203564 -1.894282937 -0.1000000015
vertex -3.500178576 -3.500178576 -0.1000000015

endloop
endfacet
facet normal 0 0 -1
outer loop
vertex 0 0 0.1000000015
vertex -3.500178576 -3.500178576 0.1000000015
vertex -4.573203564 -1.894282937 0.1000000015

endloop
endfacet
facet normal 0.5555701852 0.831469655 0
outer loop
vertex -3.500178576 -3.500178576 -0.1000000015
vertex -3.500178576 -3.500178576 0.1000000015
vertex -1.894282937 -4.573203564 0.1000000015

endloop
endfacet
facet normal 0.5555701852 0.831469655 -0
outer loop
vertex -1.894282937 -4.573203564 0.1000000015
vertex -1.894282937 -4.573203564 -0.1000000015
vertex -3.500178576 -3.500178576 -0.1000000015

endloop
endfacet
facet normal -0 0 1
outer loop
vertex 0 0 -0.1000000015
vertex -3.500178576 -3.500178576 -0.1000000015
vertex -1.894282937 -4.573203564 -0.1000000015

endloop
endfacet
facet normal 0 0 -1
outer loop
vertex 0 0 0.1000000015
vertex -1.894282937 -4.573203564 0.1000000015
vertex -3.500178576 -3.500178576 0.1000000015

endloop
endfacet
facet normal 0.195090279 0.9807853103 0
outer loop
vertex -1.894282937 -4.573203564 -0.1000000015
vertex -1.894282937 -4.573203564 0.1000000015
vertex -9.09300245e-16 -4.949999809 0.1000000015

endloop
endfacet
facet normal 0.195090279 0.9807853103 -0
outer loop
vertex -9.09300245e-16 -4.949999809 0.1000000015
vertex -9.09300245e-16 -4.949999809 -0.1000000015
vertex -1.894282937 -4.573203564 -0.1000000015

endloop
endfacet
facet normal -0 0 1
outer loop
vertex 0 0 -0.1000000015
vertex -1.894282937 -4.573203564 -0.1000000015
vertex -9.09300245e-16 -4.949999809 -0.1000000015

endloop
endfacet
facet normal 0 0 -1
outer loop
vertex 0 0 0.1000000015
vertex -9.09300245e-16 -4.949999809 0.1000000015
vertex -1.894282937 -4.573203564 0.1000000015

endloop
endfacet
facet normal -0.195090279 0.9807853103 0
outer loop
vertex -9.09300245e-16 -4.949999809 -0.1000000015
vertex -9.09300245e-16 -4.949999809 0.1000000015
vertex 1.894282937 -4.573203564 0.1000000015

endloop
endfacet
facet normal -0.195090279 0.9807853103 0
outer loop
vertex 1.894282937 -4.573203564 0.1000000015
vertex 1.894282937 -4.573203564 -0.1000000015
vertex -9.09300245e-16 -4.949999809 -0.1000000015

endloop
endfacet
facet normal 0 0 1
outer loop
vertex 0 0 -0.1000000015
vertex -9.09300245e-16 -4.949999809 -0.1000000015
vertex 1.894282937 -4.573203564 -0.1000000015

endloop
endfacet
facet normal -0 0 -1
outer loop
vertex 0 0 0.1000000015
vertex 1.894282937 -4.573203564 0.1000000015
vertex -9.09300245e-16 -4.949999809 0.1000000015

endloop
endfacet
facet normal -0.5555701852 0.831469655 0
outer loop
vertex 1.894282937 -4.573203564 -0.1000000015
vertex 1.894282937 -4.573203564 0.1000000015
vertex 3.500178576 -3.500178576 0.1000000015

endloop
endfacet
facet normal -0.5555701852 0.831469655 0
outer loop
vertex 3.500178576 -3.500178576 0.1000000015
vertex 3.500178576 -3.500178576 -0.1000000015
vertex 1.894282937 -4.573203564 -0.1000000015

endloop
endfacet
facet normal 0 -0 1
outer loop
vertex 0 0 -0.1000000015
vertex 1.894282937 -4.573203564 -0.1000000015
vertex 3.500178576 -3.500178576 -0.1000000015

endloop
endfacet
facet normal -0 0 -1
outer loop
vertex 0 0 0.1000000015
vertex 3.500178576 -3.500178576 0.1000000015
vertex 1.894282937 -4.573203564 0.1000000015

endloop
endfacet
facet normal -0.831469655 0.5555701852 0
outer loop
vertex 3.500178576 -3.500178576 -0.1000000015
vertex 3.500178576 -3.500178576 0.1000000015
vertex 4.573203564 -1.894282937 0.1000000015

endloop
endfacet
facet normal -0.831469655 0.5555701852 0
outer loop
vertex 4.573203564 -1.894282937 0.1000000015
vertex 4.573203564 -1.894282937 -0.1000000015
vertex 3.500178576 -3.500178576 -0.1000000015

endloop
endfacet
facet normal 0 -0 1
outer loop
vertex 0 0 -0.1000000015
vertex 3.500178576 -3.500178576 -0.1000000015
vertex 4.573203564 -1.894282937 -0.1000000015

endloop
endfacet
facet normal -0 0 -1
outer loop
vertex 0 0 0.1000000015
vertex 4.573203564 -1.894282937 0.1000000015
vertex 3.500178576 -3.500178576 0.1000000015

endloop
endfacet
facet normal -0.9807853103 0.195090279 0
outer loop
vertex 4.573203564 -1.894282937 -0.1000000015
vertex 4.573203564 -1.894282937 0.1000000015
vertex 4.949999809 -1.212400291e-15 0.1000000015

endloop
endfacet
facet normal -0.9807853103 0.195090279 0
outer loop
vertex 4.949999809 -1.212400291e-15 0.1000000015
vertex 4.949999809 -1.212400291e-15 -0.1000000015
vertex 4.573203564 -1.894282937 -0.1000000015

endloop
endfacet
facet normal 0 -0 1
outer loop
vertex 0 0 -0.1000000015
vertex 4.573203564 -1.894282937 -0.1000000015
vertex 4.949999809 -1.212400291e-15 -0.1000000015

endloop
endfacet
facet normal -0 0 -1
outer loop
vertex 0 0 0.1000000015
vertex 4.949999809 -1.212400291e-15 0.1000000015
vertex 4.573203564 -1.894282937 0.1000000015

endloop
endfacet
endsolid
