solid 
facet normal -0.991445 -0.130526 -0
outer loop
vertex 0.8000000119 0 -0.1000000015
vertex 0.8000000119 0 0.1000000015
vertex 0.7727406621 0.2070552409 0.1000000015

endloop
endfacet
facet normal -0.9914448857 -0.1305262446 0
outer loop
vertex 0.7727406621 0.2070552409 0.1000000015
vertex 0.7727406621 0.2070552409 -0.1000000015
vertex 0.8000000119 0 -0.1000000015

endloop
endfacet
facet normal 0 0 1
outer loop
vertex 0 0 -0.1000000015
vertex 0.8000000119 0 -0.1000000015
vertex 0.7727406621 0.2070552409 -0.1000000015

endloop
endfacet
facet normal 0 -0 -1
outer loop
vertex 0 0 0.1000000015
vertex 0.7727406621 0.2070552409 0.1000000015
vertex 0.8000000119 0 0.1000000015

endloop
endfacet
facet normal -0.9238795042 -0.3826835155 -0
outer loop
vertex 0.7727406621 0.2070552409 -0.1000000015
vertex 0.7727406621 0.2070552409 0.1000000015
vertex 0.6928203106 0.400000006 0.1000000015

endloop
endfacet
facet normal -0.9238795042 -0.3826835155 0
outer loop
vertex 0.6928203106 0.400000006 0.1000000015
vertex 0.6928203106 0.400000006 -0.1000000015
vertex 0.7727406621 0.2070552409 -0.1000000015

endloop
endfacet
facet normal 0 0 1
outer loop
vertex 0 0 -0.1000000015
vertex 0.7727406621 0.2070552409 -0.1000000015
vertex 0.6928203106 0.400000006 -0.1000000015

endloop
endfacet
facet normal 0 -0 -1
outer loop
vertex 0 0 0.1000000015
vertex 0.6928203106 0.400000006 0.1000000015
vertex 0.7727406621 0.2070552409 0.1000000015

endloop
endfacet
facet normal -0.7933534384 -0.608761251 -0
outer loop
vertex 0.6928203106 0.400000006 -0.1000000015
vertex 0.6928203106 0.400000006 0.1000000015
vertex 0.565685451 0.565685451 0.1000000015

endloop
endfacet
facet normal -0.7933534384 -0.608761251 0
outer loop
vertex 0.565685451 0.565685451 0.1000000015
vertex 0.565685451 0.565685451 -0.1000000015
vertex 0.6928203106 0.400000006 -0.1000000015

endloop
endfacet
facet normal 0 0 1
outer loop
vertex 0 0 -0.1000000015
vertex 0.6928203106 0.400000006 -0.1000000015
vertex 0.565685451 0.565685451 -0.1000000015

endloop
endfacet
facet normal 0 -0 -1
outer loop
vertex 0 0 0.1000000015
vertex 0.565685451 0.565685451 0.1000000015
vertex 0.6928203106 0.400000006 0.1000000015

endloop
endfacet
facet normal -0.608761251 -0.7933534384 -0
outer loop
vertex 0.565685451 0.565685451 -0.1000000015
vertex 0.565685451 0.565685451 0.1000000015
vertex 0.400000006 0.6928203106 0.1000000015

endloop
endfacet
facet normal -0.608761251 -0.7933534384 0
outer loop
vertex 0.400000006 0.6928203106 0.1000000015
vertex 0.400000006 0.6928203106 -0.1000000015
vertex 0.565685451 0.565685451 -0.1000000015

endloop
endfacet
facet normal 0 0 1
outer loop
vertex 0 0 -0.1000000015
vertex 0.565685451 0.565685451 -0.1000000015
vertex 0.400000006 0.6928203106 -0.1000000015

endloop
endfacet
facet normal 0 -0 -1
outer loop
vertex 0 0 0.1000000015
vertex 0.400000006 0.6928203106 0.1000000015
vertex 0.565685451 0.565685451 0.1000000015

endloop
endfacet
facet normal -0.3826835155 -0.9238795042 -0
outer loop
vertex 0.400000006 0.6928203106 -0.1000000015
vertex 0.400000006 0.6928203106 0.1000000015
vertex 0.2070552409 0.7727406621 0.1000000015

endloop
endfacet
facet normal -0.3826835155 -0.9238795042 0
outer loop
vertex 0.2070552409 0.7727406621 0.1000000015
vertex 0.2070552409 0.7727406621 -0.1000000015
vertex 0.400000006 0.6928203106 -0.1000000015

endloop
endfacet
facet normal 0 0 1
outer loop
vertex 0 0 -0.1000000015
vertex 0.400000006 0.6928203106 -0.1000000015
vertex 0.2070552409 0.7727406621 -0.1000000015

endloop
endfacet
facet normal 0 -0 -1
outer loop
vertex 0 0 0.1000000015
vertex 0.2070552409 0.7727406621 0.1000000015
vertex 0.400000006 0.6928203106 0.1000000015

endloop
endfacet
facet normal -0.1305262446 -0.9914448857 -0
outer loop
vertex 0.2070552409 0.7727406621 -0.1000000015
vertex 0.2070552409 0.7727406621 0.1000000015
vertex 4.898587079e-17 0.8000000119 0.1000000015

endloop
endfacet
facet normal -0.1305262446 -0.9914448857 0
outer loop
vertex 4.898587079e-17 0.8000000119 0.1000000015
vertex 4.898587079e-17 0.8000000119 -0.1000000015
vertex 0.2070552409 0.7727406621 -0.1000000015

endloop
endfacet
facet normal 0 0 1
outer loop
vertex 0 0 -0.1000000015
vertex 0.2070552409 0.7727406621 -0.1000000015
vertex 4.898587079e-17 0.8000000119 -0.1000000015

endloop
endfacet
facet normal 0 -0 -1
outer loop
vertex 0 0 0.1000000015
vertex 4.898587079e-17 0.8000000119 0.1000000015
vertex 0.2070552409 0.7727406621 0.1000000015

endloop
endfacet
facet normal -1 6.123233601e-17 0
outer loop
vertex 0 0 0.1000000015
vertex 4.898587079e-17 0.8000000119 0.1000000015
vertex 4.898587079e-17 0.8000000119 -0.1000000015

endloop
endfacet
facet normal -1 6.123233601e-17 0
outer loop
vertex 0 0 -0.1000000015
vertex 0 0 0.1000000015
vertex 4.898587079e-17 0.8000000119 -0.1000000015

endloop
endfacet
facet normal 0.9659258723 0.2588190734 -0
outer loop
vertex 0 0 0.1000000015
vertex -0.2070552409 0.7727406621 -0.1000000015
vertex -0.2070552409 0.7727406621 0.1000000015

endloop
endfacet
facet normal 0.9659258723 0.2588190734 -0
outer loop
vertex 0 0 0.1000000015
vertex 0 0 -0.1000000015
vertex -0.2070552409 0.7727406621 -0.1000000015

endloop
endfacet
facet normal 0.3826835155 -0.9238795042 0
outer loop
vertex -0.2070552409 0.7727406621 -0.1000000015
vertex -0.2070552409 0.7727406621 0.1000000015
vertex -0.400000006 0.6928203106 0.1000000015

endloop
endfacet
facet normal 0.3826835155 -0.9238795042 0
outer loop
vertex -0.400000006 0.6928203106 0.1000000015
vertex -0.400000006 0.6928203106 -0.1000000015
vertex -0.2070552409 0.7727406621 -0.1000000015

endloop
endfacet
facet normal 0 0 1
outer loop
vertex 0 0 -0.1000000015
vertex -0.2070552409 0.7727406621 -0.1000000015
vertex -0.400000006 0.6928203106 -0.1000000015

endloop
endfacet
facet normal 0 0 -1
outer loop
vertex 0 0 0.1000000015
vertex -0.400000006 0.6928203106 0.1000000015
vertex -0.2070552409 0.7727406621 0.1000000015

endloop
endfacet
facet normal 0.608761251 -0.7933534384 0
outer loop
vertex -0.400000006 0.6928203106 -0.1000000015
vertex -0.400000006 0.6928203106 0.1000000015
vertex -0.565685451 0.565685451 0.1000000015

endloop
endfacet
facet normal 0.608761251 -0.7933534384 0
outer loop
vertex -0.565685451 0.565685451 0.1000000015
vertex -0.565685451 0.565685451 -0.1000000015
vertex -0.400000006 0.6928203106 -0.1000000015

endloop
endfacet
facet normal 0 0 1
outer loop
vertex 0 0 -0.1000000015
vertex -0.400000006 0.6928203106 -0.1000000015
vertex -0.565685451 0.565685451 -0.1000000015

endloop
endfacet
facet normal 0 0 -1
outer loop
vertex 0 0 0.1000000015
vertex -0.565685451 0.565685451 0.1000000015
vertex -0.400000006 0.6928203106 0.1000000015

endloop
endfacet
facet normal 0.7933534384 -0.608761251 0
outer loop
vertex -0.565685451 0.565685451 -0.1000000015
vertex -0.565685451 0.565685451 0.1000000015
vertex -0.6928203106 0.400000006 0.1000000015

endloop
endfacet
facet normal 0.7933534384 -0.608761251 0
outer loop
vertex -0.6928203106 0.400000006 0.1000000015
vertex -0.6928203106 0.400000006 -0.1000000015
vertex -0.565685451 0.565685451 -0.1000000015

endloop
endfacet
facet normal 0 0 1
outer loop
vertex 0 0 -0.1000000015
vertex -0.565685451 0.565685451 -0.1000000015
vertex -0.6928203106 0.400000006 -0.1000000015

endloop
endfacet
facet normal 0 0 -1
outer loop
vertex 0 0 0.1000000015
vertex -0.6928203106 0.400000006 0.1000000015
vertex -0.565685451 0.565685451 0.1000000015

endloop
endfacet
facet normal 0.9238795042 -0.3826835155 0
outer loop
vertex -0.6928203106 0.400000006 -0.1000000015
vertex -0.6928203106 0.400000006 0.1000000015
vertex -0.7727406621 0.2070552409 0.1000000015

endloop
endfacet
facet normal 0.9238795042 -0.3826835155 0
outer loop
vertex -0.7727406621 0.2070552409 0.1000000015
vertex -0.7727406621 0.2070552409 -0.1000000015
vertex -0.6928203106 0.400000006 -0.1000000015

endloop
endfacet
facet normal 0 0 1
outer loop
vertex 0 0 -0.1000000015
vertex -0.6928203106 0.400000006 -0.1000000015
vertex -0.7727406621 0.2070552409 -0.1000000015

endloop
endfacet
facet normal 0 0 -1
outer loop
vertex 0 0 0.1000000015
vertex -0.7727406621 0.2070552409 0.1000000015
vertex -0.6928203106 0.400000006 0.1000000015

endloop
endfacet
facet normal 0.9914448857 -0.1305262446 0
outer loop
vertex -0.7727406621 0.2070552409 -0.1000000015
vertex -0.7727406621 0.2070552409 0.1000000015
vertex -0.8000000119 9.797174159e-17 0.1000000015

endloop
endfacet
facet normal 0.9914448857 -0.1305262446 0
outer loop
vertex -0.8000000119 9.797174159e-17 0.1000000015
vertex -0.8000000119 9.797174159e-17 -0.1000000015
vertex -0.7727406621 0.2070552409 -0.1000000015

endloop
endfacet
facet normal 0 0 1
outer loop
vertex 0 0 -0.1000000015
vertex -0.7727406621 0.2070552409 -0.1000000015
vertex -0.8000000119 9.797174159e-17 -0.1000000015

endloop
endfacet
facet normal 0 0 -1
outer loop
vertex 0 0 0.1000000015
vertex -0.8000000119 9.797174159e-17 0.1000000015
vertex -0.7727406621 0.2070552409 0.1000000015

endloop
endfacet
facet normal 0.9914448857 0.1305262446 0
outer loop
vertex -0.8000000119 9.797174159e-17 -0.1000000015
vertex -0.8000000119 9.797174159e-17 0.1000000015
vertex -0.7727406621 -0.2070552409 0.1000000015

endloop
endfacet
facet normal 0.9914448857 0.1305262446 -0
outer loop
vertex -0.7727406621 -0.2070552409 0.1000000015
vertex -0.7727406621 -0.2070552409 -0.1000000015
vertex -0.8000000119 9.797174159e-17 -0.1000000015

endloop
endfacet
facet normal 0 0 1
outer loop
vertex 0 0 -0.1000000015
vertex -0.8000000119 9.797174159e-17 -0.1000000015
vertex -0.7727406621 -0.2070552409 -0.1000000015

endloop
endfacet
facet normal 0 0 -1
outer loop
vertex 0 0 0.1000000015
vertex -0.7727406621 -0.2070552409 0.1000000015
vertex -0.8000000119 9.797174159e-17 0.1000000015

endloop
endfacet
facet normal 0.9238795042 0.3826835155 0
outer loop
vertex -0.7727406621 -0.2070552409 -0.1000000015
vertex -0.7727406621 -0.2070552409 0.1000000015
vertex -0.6928203106 -0.400000006 0.1000000015

endloop
endfacet
facet normal 0.9238795042 0.3826835155 -0
outer loop
vertex -0.6928203106 -0.400000006 0.1000000015
vertex -0.6928203106 -0.400000006 -0.1000000015
vertex -0.7727406621 -0.2070552409 -0.1000000015

endloop
endfacet
facet normal -0 0 1
outer loop
vertex 0 0 -0.1000000015
vertex -0.7727406621 -0.2070552409 -0.1000000015
vertex -0.6928203106 -0.400000006 -0.1000000015

endloop
endfacet
facet normal 0 0 -1
outer loop
vertex 0 0 0.1000000015
vertex -0.6928203106 -0.400000006 0.1000000015
vertex -0.7727406621 -0.2070552409 0.1000000015

endloop
endfacet
facet normal 0.7933534384 0.608761251 0
outer loop
vertex -0.6928203106 -0.400000006 -0.1000000015
vertex -0.6928203106 -0.400000006 0.1000000015
vertex -0.565685451 -0.565685451 0.1000000015

endloop
endfacet
facet normal 0.7933534384 0.608761251 -0
outer loop
vertex -0.565685451 -0.565685451 0.1000000015
vertex -0.565685451 -0.565685451 -0.1000000015
vertex -0.6928203106 -0.400000006 -0.1000000015

endloop
endfacet
facet normal -0 0 1
outer loop
vertex 0 0 -0.1000000015
vertex -0.6928203106 -0.400000006 -0.1000000015
vertex -0.565685451 -0.565685451 -0.1000000015

endloop
endfacet
facet normal 0 0 -1
outer loop
vertex 0 0 0.1000000015
vertex -0.565685451 -0.565685451 0.1000000015
vertex -0.6928203106 -0.400000006 0.1000000015

endloop
endfacet
facet normal 0.608761251 0.7933534384 0
outer loop
vertex -0.565685451 -0.565685451 -0.1000000015
vertex -0.565685451 -0.565685451 0.1000000015
vertex -0.400000006 -0.6928203106 0.1000000015

endloop
endfacet
facet normal 0.608761251 0.7933534384 -0
outer loop
vertex -0.400000006 -0.6928203106 0.1000000015
vertex -0.400000006 -0.6928203106 -0.1000000015
vertex -0.565685451 -0.565685451 -0.1000000015

endloop
endfacet
facet normal -0 0 1
outer loop
vertex 0 0 -0.1000000015
vertex -0.565685451 -0.565685451 -0.1000000015
vertex -0.400000006 -0.6928203106 -0.1000000015

endloop
endfacet
facet normal 0 0 -1
outer loop
vertex 0 0 0.1000000015
vertex -0.400000006 -0.6928203106 0.1000000015
vertex -0.565685451 -0.565685451 0.1000000015

endloop
endfacet
facet normal 0.3826835155 0.9238795042 0
outer loop
vertex -0.400000006 -0.6928203106 -0.1000000015
vertex -0.400000006 -0.6928203106 0.1000000015
vertex -0.2070552409 -0.7727406621 0.1000000015

endloop
endfacet
facet normal 0.3826835155 0.9238795042 -0
outer loop
vertex -0.2070552409 -0.7727406621 0.1000000015
vertex -0.2070552409 -0.7727406621 -0.1000000015
vertex -0.400000006 -0.6928203106 -0.1000000015

endloop
endfacet
facet normal -0 0 1
outer loop
vertex 0 0 -0.1000000015
vertex -0.400000006 -0.6928203106 -0.1000000015
vertex -0.2070552409 -0.7727406621 -0.1000000015

endloop
endfacet
facet normal 0 0 -1
outer loop
vertex 0 0 0.1000000015
vertex -0.2070552409 -0.7727406621 0.1000000015
vertex -0.400000006 -0.6928203106 0.1000000015

endloop
endfacet
facet normal 0.1305262446 0.9914448857 0
outer loop
vertex -0.2070552409 -0.7727406621 -0.1000000015
vertex -0.2070552409 -0.7727406621 0.1000000015
vertex -1.469576223e-16 -0.8000000119 0.1000000015

endloop
endfacet
facet normal 0.1305262446 0.9914448857 -0
outer loop
vertex -1.469576223e-16 -0.8000000119 0.1000000015
vertex -1.469576223e-16 -0.8000000119 -0.1000000015
vertex -0.2070552409 -0.7727406621 -0.1000000015

endloop
endfacet
facet normal -0 0 1
outer loop
vertex 0 0 -0.1000000015
vertex -0.2070552409 -0.7727406621 -0.1000000015
vertex -1.469576223e-16 -0.8000000119 -0.1000000015

endloop
endfacet
facet normal 0 0 -1
outer loop
vertex 0 0 0.1000000015
vertex -1.469576223e-16 -0.8000000119 0.1000000015
vertex -0.2070552409 -0.7727406621 0.1000000015

endloop
endfacet
facet normal -0.1305262446 0.9914448857 0
outer loop
vertex -1.469576223e-16 -0.8000000119 -0.1000000015
vertex -1.469576223e-16 -0.8000000119 0.1000000015
vertex 0.2070552409 -0.7727406621 0.1000000015

endloop
endfacet
facet normal -0.1305262446 0.9914448857 0
outer loop
vertex 0.2070552409 -0.7727406621 0.1000000015
vertex 0.2070552409 -0.7727406621 -0.1000000015
vertex -1.469576223e-16 -0.8000000119 -0.1000000015

endloop
endfacet
facet normal 0 0 1
outer loop
vertex 0 0 -0.1000000015
vertex -1.469576223e-16 -0.8000000119 -0.1000000015
vertex 0.2070552409 -0.7727406621 -0.1000000015

endloop
endfacet
facet normal -0 0 -1
outer loop
vertex 0 0 0.1000000015
vertex 0.2070552409 -0.7727406621 0.1000000015
vertex -1.469576223e-16 -0.8000000119 0.1000000015

endloop
endfacet
facet normal -0.3826835155 0.9238795042 0
outer loop
vertex 0.2070552409 -0.7727406621 -0.1000000015
vertex 0.2070552409 -0.7727406621 0.1000000015
vertex 0.400000006 -0.6928203106 0.1000000015

endloop
endfacet
facet normal -0.3826835155 0.9238795042 0
outer loop
vertex 0.400000006 -0.6928203106 0.1000000015
vertex 0.400000006 -0.6928203106 -0.1000000015
vertex 0.2070552409 -0.7727406621 -0.1000000015

endloop
endfacet
facet normal 0 -0 1
outer loop
vertex 0 0 -0.1000000015
vertex 0.2070552409 -0.7727406621 -0.1000000015
vertex 0.400000006 -0.6928203106 -0.1000000015

endloop
endfacet
facet normal -0 0 -1
outer loop
vertex 0 0 0.1000000015
vertex 0.400000006 -0.6928203106 0.1000000015
vertex 0.2070552409 -0.7727406621 0.1000000015

endloop
endfacet
facet normal -0.608761251 0.7933534384 0
outer loop
vertex 0.400000006 -0.6928203106 -0.1000000015
vertex 0.400000006 -0.6928203106 0.1000000015
vertex 0.565685451 -0.565685451 0.1000000015

endloop
endfacet
facet normal -0.608761251 0.7933534384 0
outer loop
vertex 0.565685451 -0.565685451 0.1000000015
vertex 0.565685451 -0.565685451 -0.1000000015
vertex 0.400000006 -0.6928203106 -0.1000000015

endloop
endfacet
facet normal 0 -0 1
outer loop
vertex 0 0 -0.1000000015
vertex 0.400000006 -0.6928203106 -0.1000000015
vertex 0.565685451 -0.565685451 -0.1000000015

endloop
endfacet
facet normal -0 0 -1
outer loop
vertex 0 0 0.1000000015
vertex 0.565685451 -0.565685451 0.1000000015
vertex 0.400000006 -0.6928203106 0.1000000015

endloop
endfacet
facet normal -0.7933534384 0.608761251 0
outer loop
vertex 0.565685451 -0.565685451 -0.1000000015
vertex 0.565685451 -0.565685451 0.1000000015
vertex 0.6928203106 -0.400000006 0.1000000015

endloop
endfacet
facet normal -0.7933534384 0.608761251 0
outer loop
vertex 0.6928203106 -0.400000006 0.1000000015
vertex 0.6928203106 -0.400000006 -0.1000000015
vertex 0.565685451 -0.565685451 -0.1000000015

endloop
endfacet
facet normal 0 -0 1
outer loop
vertex 0 0 -0.1000000015
vertex 0.565685451 -0.565685451 -0.1000000015
vertex 0.6928203106 -0.400000006 -0.1000000015

endloop
endfacet
facet normal -0 0 -1
outer loop
vertex 0 0 0.1000000015
vertex 0.6928203106 -0.400000006 0.1000000015
vertex 0.565685451 -0.565685451 0.1000000015

endloop
endfacet
facet normal -0.9238795042 0.3826835155 0
outer loop
vertex 0.6928203106 -0.400000006 -0.1000000015
vertex 0.6928203106 -0.400000006 0.1000000015
vertex 0.7727406621 -0.2070552409 0.1000000015

endloop
endfacet
facet normal -0.9238795042 0.3826835155 0
outer loop
vertex 0.7727406621 -0.2070552409 0.1000000015
vertex 0.7727406621 -0.2070552409 -0.1000000015
vertex 0.6928203106 -0.400000006 -0.1000000015

endloop
endfacet
facet normal 0 -0 1
outer loop
vertex 0 0 -0.1000000015
vertex 0.6928203106 -0.400000006 -0.1000000015
vertex 0.7727406621 -0.2070552409 -0.1000000015

endloop
endfacet
facet normal -0 0 -1
outer loop
vertex 0 0 0.1000000015
vertex 0.7727406621 -0.2070552409 0.1000000015
vertex 0.6928203106 -0.400000006 0.1000000015

endloop
endfacet
facet normal -0.9914448857 0.1305262446 0
outer loop
vertex 0.7727406621 -0.2070552409 -0.1000000015
vertex 0.7727406621 -0.2070552409 0.1000000015
vertex 0.8000000119 -1.959434832e-16 0.1000000015

endloop
endfacet
facet normal -0.9914448857 0.1305262446 0
outer loop
vertex 0.8000000119 -1.959434832e-16 0.1000000015
vertex 0.8000000119 -1.959434832e-16 -0.1000000015
vertex 0.7727406621 -0.2070552409 -0.1000000015

endloop
endfacet
facet normal 0 -0 1
outer loop
vertex 0 0 -0.1000000015
vertex 0.7727406621 -0.2070552409 -0.1000000015
vertex 0.8000000119 -1.959434832e-16 -0.1000000015

endloop
endfacet
facet normal -0 0 -1
outer loop
vertex 0 0 0.1000000015
vertex 0.8000000119 -1.959434832e-16 0.1000000015
vertex 0.7727406621 -0.2070552409 0.1000000015

endloop
endfacet
endsolid
