solid 
facet normal -0.980785 -0.19509 -0
outer loop
vertex 4.849999905 0 -0.1000000015
vertex 4.849999905 0 0.1000000015
vertex 4.480815887 1.856014609 0.1000000015

endloop
endfacet
facet normal -0.9807853103 -0.1950902045 0
outer loop
vertex 4.480815887 1.856014609 0.1000000015
vertex 4.480815887 1.856014609 -0.1000000015
vertex 4.849999905 0 -0.1000000015

endloop
endfacet
facet normal 0 0 1
outer loop
vertex 0 0 -0.1000000015
vertex 4.849999905 0 -0.1000000015
vertex 4.480815887 1.856014609 -0.1000000015

endloop
endfacet
facet normal 0 -0 -1
outer loop
vertex 0 0 0.1000000015
vertex 4.480815887 1.856014609 0.1000000015
vertex 4.849999905 0 0.1000000015

endloop
endfacet
facet normal -0.8314695954 -0.5555702448 -0
outer loop
vertex 4.480815887 1.856014609 -0.1000000015
vertex 4.480815887 1.856014609 0.1000000015
vertex 3.429467916 3.429467916 0.1000000015

endloop
endfacet
facet normal -0.8314695954 -0.5555702448 0
outer loop
vertex 3.429467916 3.429467916 0.1000000015
vertex 3.429467916 3.429467916 -0.1000000015
vertex 4.480815887 1.856014609 -0.1000000015

endloop
endfacet
facet normal 0 0 1
outer loop
vertex 0 0 -0.1000000015
vertex 4.480815887 1.856014609 -0.1000000015
vertex 3.429467916 3.429467916 -0.1000000015

endloop
endfacet
facet normal 0 -0 -1
outer loop
vertex 0 0 0.1000000015
vertex 3.429467916 3.429467916 0.1000000015
vertex 4.480815887 1.856014609 0.1000000015

endloop
endfacet
facet normal -0.5555702448 -0.8314695954 -0
outer loop
vertex 3.429467916 3.429467916 -0.1000000015
vertex 3.429467916 3.429467916 0.1000000015
vertex 1.856014609 4.480815887 0.1000000015

endloop
endfacet
facet normal -0.5555702448 -0.8314695954 0
outer loop
vertex 1.856014609 4.480815887 0.1000000015
vertex 1.856014609 4.480815887 -0.1000000015
vertex 3.429467916 3.429467916 -0.1000000015

endloop
endfacet
facet normal 0 0 1
outer loop
vertex 0 0 -0.1000000015
vertex 3.429467916 3.429467916 -0.1000000015
vertex 1.856014609 4.480815887 -0.1000000015

endloop
endfacet
facet normal 0 -0 -1
outer loop
vertex 0 0 0.1000000015
vertex 1.856014609 4.480815887 0.1000000015
vertex 3.429467916 3.429467916 0.1000000015

endloop
endfacet
facet normal -0.1950902045 -0.9807853103 -0
outer loop
vertex 1.856014609 4.480815887 -0.1000000015
vertex 1.856014609 4.480815887 0.1000000015
vertex 2.969768452e-16 4.849999905 0.1000000015

endloop
endfacet
facet normal -0.1950902045 -0.9807853103 0
outer loop
vertex 2.969768452e-16 4.849999905 0.1000000015
vertex 2.969768452e-16 4.849999905 -0.1000000015
vertex 1.856014609 4.480815887 -0.1000000015

endloop
endfacet
facet normal 0 0 1
outer loop
vertex 0 0 -0.1000000015
vertex 1.856014609 4.480815887 -0.1000000015
vertex 2.969768452e-16 4.849999905 -0.1000000015

endloop
endfacet
facet normal 0 -0 -1
outer loop
vertex 0 0 0.1000000015
vertex 2.969768452e-16 4.849999905 0.1000000015
vertex 1.856014609 4.480815887 0.1000000015

endloop
endfacet
facet normal 0.1950902045 -0.9807853103 0
outer loop
vertex 2.969768452e-16 4.849999905 -0.1000000015
vertex 2.969768452e-16 4.849999905 0.1000000015
vertex -1.856014609 4.480815887 0.1000000015

endloop
endfacet
facet normal 0.1950902045 -0.9807853103 0
outer loop
vertex -1.856014609 4.480815887 0.1000000015
vertex -1.856014609 4.480815887 -0.1000000015
vertex 2.969768452e-16 4.849999905 -0.1000000015

endloop
endfacet
facet normal 0 0 1
outer loop
vertex 0 0 -0.1000000015
vertex 2.969768452e-16 4.849999905 -0.1000000015
vertex -1.856014609 4.480815887 -0.1000000015

endloop
endfacet
facet normal 0 0 -1
outer loop
vertex 0 0 0.1000000015
vertex -1.856014609 4.480815887 0.1000000015
vertex 2.969768452e-16 4.849999905 0.1000000015

endloop
endfacet
facet normal 0.5555702448 -0.8314695954 0
outer loop
vertex -1.856014609 4.480815887 -0.1000000015
vertex -1.856014609 4.480815887 0.1000000015
vertex -3.429467916 3.429467916 0.1000000015

endloop
endfacet
facet normal 0.5555702448 -0.8314695954 0
outer loop
vertex -3.429467916 3.429467916 0.1000000015
vertex -3.429467916 3.429467916 -0.1000000015
vertex -1.856014609 4.480815887 -0.1000000015

endloop
endfacet
facet normal 0 0 1
outer loop
vertex 0 0 -0.1000000015
vertex -1.856014609 4.480815887 -0.1000000015
vertex -3.429467916 3.429467916 -0.1000000015

endloop
endfacet
facet normal 0 0 -1
outer loop
vertex 0 0 0.1000000015
vertex -3.429467916 3.429467916 0.1000000015
vertex -1.856014609 4.480815887 0.1000000015

endloop
endfacet
facet normal 0.8314695954 -0.5555702448 0
outer loop
vertex -3.429467916 3.429467916 -0.1000000015
vertex -3.429467916 3.429467916 0.1000000015
vertex -4.480815887 1.856014609 0.1000000015

endloop
endfacet
facet normal 0.8314695954 -0.5555702448 0
outer loop
vertex -4.480815887 1.856014609 0.1000000015
vertex -4.480815887 1.856014609 -0.1000000015
vertex -3.429467916 3.429467916 -0.1000000015

endloop
endfacet
facet normal 0 0 1
outer loop
vertex 0 0 -0.1000000015
vertex -3.429467916 3.429467916 -0.1000000015
vertex -4.480815887 1.856014609 -0.1000000015

endloop
endfacet
facet normal 0 0 -1
outer loop
vertex 0 0 0.1000000015
vertex -4.480815887 1.856014609 0.1000000015
vertex -3.429467916 3.429467916 0.1000000015

endloop
endfacet
facet normal 0.9807853103 -0.1950902045 0
outer loop
vertex -4.480815887 1.856014609 -0.1000000015
vertex -4.480815887 1.856014609 0.1000000015
vertex -4.849999905 5.939536904e-16 0.1000000015

endloop
endfacet
facet normal 0.9807853103 -0.1950902045 0
outer loop
vertex -4.849999905 5.939536904e-16 0.1000000015
vertex -4.849999905 5.939536904e-16 -0.1000000015
vertex -4.480815887 1.856014609 -0.1000000015

endloop
endfacet
facet normal 0 0 1
outer loop
vertex 0 0 -0.1000000015
vertex -4.480815887 1.856014609 -0.1000000015
vertex -4.849999905 5.939536904e-16 -0.1000000015

endloop
endfacet
facet normal 0 0 -1
outer loop
vertex 0 0 0.1000000015
vertex -4.849999905 5.939536904e-16 0.1000000015
vertex -4.480815887 1.856014609 0.1000000015

endloop
endfacet
facet normal 0.9807853103 0.1950902045 0
outer loop
vertex -4.849999905 5.939536904e-16 -0.1000000015
vertex -4.849999905 5.939536904e-16 0.1000000015
vertex -4.480815887 -1.856014609 0.1000000015

endloop
endfacet
facet normal 0.9807853103 0.1950902045 -0
outer loop
vertex -4.480815887 -1.856014609 0.1000000015
vertex -4.480815887 -1.856014609 -0.1000000015
vertex -4.849999905 5.939536904e-16 -0.1000000015

endloop
endfacet
facet normal 0 0 1
outer loop
vertex 0 0 -0.1000000015
vertex -4.849999905 5.939536904e-16 -0.1000000015
vertex -4.480815887 -1.856014609 -0.1000000015

endloop
endfacet
facet normal 0 0 -1
outer loop
vertex 0 0 0.1000000015
vertex -4.480815887 -1.856014609 0.1000000015
vertex -4.849999905 5.939536904e-16 0.1000000015

endloop
endfacet
facet normal 0.8314695954 0.5555702448 0
outer loop
vertex -4.480815887 -1.856014609 -0.1000000015
vertex -4.480815887 -1.856014609 0.1000000015
vertex -3.429467916 -3.429467916 0.1000000015

endloop
endfacet
facet normal 0.8314695954 0.5555702448 -0
outer loop
vertex -3.429467916 -3.429467916 0.1000000015
vertex -3.429467916 -3.429467916 -0.1000000015
vertex -4.480815887 -1.856014609 -0.1000000015

endloop
endfacet
facet normal -0 0 1
outer loop
vertex 0 0 -0.1000000015
vertex -4.480815887 -1.856014609 -0.1000000015
vertex -3.429467916 -3.429467916 -0.1000000015

endloop
endfacet
facet normal 0 0 -1
outer loop
vertex 0 0 0.1000000015
vertex -3.429467916 -3.429467916 0.1000000015
vertex -4.480815887 -1.856014609 0.1000000015

endloop
endfacet
facet normal 0.5555702448 0.8314695954 0
outer loop
vertex -3.429467916 -3.429467916 -0.1000000015
vertex -3.429467916 -3.429467916 0.1000000015
vertex -1.856014609 -4.480815887 0.1000000015

endloop
endfacet
facet normal 0.5555702448 0.8314695954 -0
outer loop
vertex -1.856014609 -4.480815887 0.1000000015
vertex -1.856014609 -4.480815887 -0.1000000015
vertex -3.429467916 -3.429467916 -0.1000000015

endloop
endfacet
facet normal -0 0 1
outer loop
vertex 0 0 -0.1000000015
vertex -3.429467916 -3.429467916 -0.1000000015
vertex -1.856014609 -4.480815887 -0.1000000015

endloop
endfacet
facet normal 0 0 -1
outer loop
vertex 0 0 0.1000000015
vertex -1.856014609 -4.480815887 0.1000000015
vertex -3.429467916 -3.429467916 0.1000000015

endloop
endfacet
facet normal 0.1950902045 0.9807853103 0
outer loop
vertex -1.856014609 -4.480815887 -0.1000000015
vertex -1.856014609 -4.480815887 0.1000000015
vertex -8.909305356e-16 -4.849999905 0.1000000015

endloop
endfacet
facet normal 0.1950902045 0.9807853103 -0
outer loop
vertex -8.909305356e-16 -4.849999905 0.1000000015
vertex -8.909305356e-16 -4.849999905 -0.1000000015
vertex -1.856014609 -4.480815887 -0.1000000015

endloop
endfacet
facet normal -0 0 1
outer loop
vertex 0 0 -0.1000000015
vertex -1.856014609 -4.480815887 -0.1000000015
vertex -8.909305356e-16 -4.849999905 -0.1000000015

endloop
endfacet
facet normal 0 0 -1
outer loop
vertex 0 0 0.1000000015
vertex -8.909305356e-16 -4.849999905 0.1000000015
vertex -1.856014609 -4.480815887 0.1000000015

endloop
endfacet
facet normal -0.1950902045 0.9807853103 0
outer loop
vertex -8.909305356e-16 -4.849999905 -0.1000000015
vertex -8.909305356e-16 -4.849999905 0.1000000015
vertex 1.856014609 -4.480815887 0.1000000015

endloop
endfacet
facet normal -0.1950902045 0.9807853103 0
outer loop
vertex 1.856014609 -4.480815887 0.1000000015
vertex 1.856014609 -4.480815887 -0.1000000015
vertex -8.909305356e-16 -4.849999905 -0.1000000015

endloop
endfacet
facet normal 0 0 1
outer loop
vertex 0 0 -0.1000000015
vertex -8.909305356e-16 -4.849999905 -0.1000000015
vertex 1.856014609 -4.480815887 -0.1000000015

endloop
endfacet
facet normal -0 0 -1
outer loop
vertex 0 0 0.1000000015
vertex 1.856014609 -4.480815887 0.1000000015
vertex -8.909305356e-16 -4.849999905 0.1000000015

endloop
endfacet
facet normal -0.5555702448 0.8314695954 0
outer loop
vertex 1.856014609 -4.480815887 -0.1000000015
vertex 1.856014609 -4.480815887 0.1000000015
vertex 3.429467916 -3.429467916 0.1000000015

endloop
endfacet
facet normal -0.5555702448 0.8314695954 0
outer loop
vertex 3.429467916 -3.429467916 0.1000000015
vertex 3.429467916 -3.429467916 -0.1000000015
vertex 1.856014609 -4.480815887 -0.1000000015

endloop
endfacet
facet normal 0 -0 1
outer loop
vertex 0 0 -0.1000000015
vertex 1.856014609 -4.480815887 -0.1000000015
vertex 3.429467916 -3.429467916 -0.1000000015

endloop
endfacet
facet normal -0 0 -1
outer loop
vertex 0 0 0.1000000015
vertex 3.429467916 -3.429467916 0.1000000015
vertex 1.856014609 -4.480815887 0.1000000015

endloop
endfacet
facet normal -0.8314695954 0.5555702448 0
outer loop
vertex 3.429467916 -3.429467916 -0.1000000015
vertex 3.429467916 -3.429467916 0.1000000015
vertex 4.480815887 -1.856014609 0.1000000015

endloop
endfacet
facet normal -0.8314695954 0.5555702448 0
outer loop
vertex 4.480815887 -1.856014609 0.1000000015
vertex 4.480815887 -1.856014609 -0.1000000015
vertex 3.429467916 -3.429467916 -0.1000000015

endloop
endfacet
facet normal 0 -0 1
outer loop
vertex 0 0 -0.1000000015
vertex 3.429467916 -3.429467916 -0.1000000015
vertex 4.480815887 -1.856014609 -0.1000000015

endloop
endfacet
facet normal -0 0 -1
outer loop
vertex 0 0 0.1000000015
vertex 4.480815887 -1.856014609 0.1000000015
vertex 3.429467916 -3.429467916 0.1000000015

endloop
endfacet
facet normal -0.9807853103 0.1950902045 0
outer loop
vertex 4.480815887 -1.856014609 -0.1000000015
vertex 4.480815887 -1.856014609 0.1000000015
vertex 4.849999905 -1.187907381e-15 0.1000000015

endloop
endfacet
facet normal -0.9807853103 0.1950902045 0
outer loop
vertex 4.849999905 -1.187907381e-15 0.1000000015
vertex 4.849999905 -1.187907381e-15 -0.1000000015
vertex 4.480815887 -1.856014609 -0.1000000015

endloop
endfacet
facet normal 0 -0 1
outer loop
vertex 0 0 -0.1000000015
vertex 4.480815887 -1.856014609 -0.1000000015
vertex 4.849999905 -1.187907381e-15 -0.1000000015

endloop
endfacet
facet normal -0 0 -1
outer loop
vertex 0 0 0.1000000015
vertex 4.849999905 -1.187907381e-15 0.1000000015
vertex 4.480815887 -1.856014609 0.1000000015

endloop
endfacet
endsolid
