solid OpenSCAD_Model
  facet normal -1 0 0
    outer loop
      vertex -5 -0.5 5
      vertex -5 -0.5 15
      vertex -5 0.5 5
    endloop
  endfacet
  facet normal -1 0 0
    outer loop
      vertex -5 0.5 5
      vertex -5 -0.5 15
      vertex -5 0.5 15
    endloop
  endfacet
  facet normal 0 -1 0
    outer loop
      vertex -5 -0.5 15
      vertex -5 -0.5 5
      vertex 5 -0.5 5
    endloop
  endfacet
  facet normal 0 -1 0
    outer loop
      vertex 5 -0.5 15
      vertex -5 -0.5 15
      vertex 5 -0.5 5
    endloop
  endfacet
  facet normal 0 0 -1
    outer loop
      vertex -5 -0.5 5
      vertex -5 0.5 5
      vertex 5 -0.5 5
    endloop
  endfacet
  facet normal 0 0 -1
    outer loop
      vertex 5 -0.5 5
      vertex -5 0.5 5
      vertex 5 0.5 5
    endloop
  endfacet
  facet normal 0 1 0
    outer loop
      vertex -5 0.5 5
      vertex -5 0.5 15
      vertex 5 0.5 5
    endloop
  endfacet
  facet normal 0 1 0
    outer loop
      vertex 5 0.5 5
      vertex -5 0.5 15
      vertex 5 0.5 15
    endloop
  endfacet
  facet normal 0 0 1
    outer loop
      vertex -5 0.5 15
      vertex -5 -0.5 15
      vertex 5 -0.5 15
    endloop
  endfacet
  facet normal 0 0 1
    outer loop
      vertex 5 0.5 15
      vertex -5 0.5 15
      vertex 5 -0.5 15
    endloop
  endfacet
  facet normal 1 0 0
    outer loop
      vertex 5 -0.5 15
      vertex 5 -0.5 5
      vertex 5 0.5 5
    endloop
  endfacet
  facet normal 1 0 0
    outer loop
      vertex 5 0.5 15
      vertex 5 -0.5 15
      vertex 5 0.5 5
    endloop
  endfacet
  facet normal -1 0 0
    outer loop
      vertex 0 0 3
      vertex 0 0 4
      vertex 0 5 3
    endloop
  endfacet
  facet normal -1 0 0
    outer loop
      vertex 0 5 3
      vertex 0 0 4
      vertex 0 5 4
    endloop
  endfacet
  facet normal 0 -1 0
    outer loop
      vertex 0 0 4
      vertex 0 0 3
      vertex 10 0 3
    endloop
  endfacet
  facet normal 0 -1 0
    outer loop
      vertex 10 0 4
      vertex 0 0 4
      vertex 10 0 3
    endloop
  endfacet
  facet normal 0 0 -1
    outer loop
      vertex 0 0 3
      vertex 0 5 3
      vertex 10 0 3
    endloop
  endfacet
  facet normal 0 0 -1
    outer loop
      vertex 10 0 3
      vertex 0 5 3
      vertex 10 5 3
    endloop
  endfacet
  facet normal 0 1 0
    outer loop
      vertex 0 5 3
      vertex 0 5 4
      vertex 10 5 3
    endloop
  endfacet
  facet normal 0 1 0
    outer loop
      vertex 10 5 3
      vertex 0 5 4
      vertex 10 5 4
    endloop
  endfacet
  facet normal 0 0 1
    outer loop
      vertex 0 5 4
      vertex 0 0 4
      vertex 10 0 4
    endloop
  endfacet
  facet normal 0 0 1
    outer loop
      vertex 10 5 4
      vertex 0 5 4
      vertex 10 0 4
    endloop
  endfacet
  facet normal 1 0 0
    outer loop
      vertex 10 0 4
      vertex 10 0 3
      vertex 10 5 3
    endloop
  endfacet
  facet normal 1 0 0
    outer loop
      vertex 10 5 4
      vertex 10 0 4
      vertex 10 5 3
    endloop
  endfacet
endsolid OpenSCAD_Model
