solid OpenSCAD_Model
  facet normal -1 0 0
    outer loop
      vertex -0.5 -10 0.5
      vertex -0.5 -10 10
      vertex -0.5 -5 0.5
    endloop
  endfacet
  facet normal -1 0 0
    outer loop
      vertex -0.5 -4 2
      vertex -0.5 -10 10
      vertex -0.5 10 10
    endloop
  endfacet
  facet normal -1 0 0
    outer loop
      vertex -0.5 -4 0.5
      vertex -0.5 10 10
      vertex -0.5 10 0.5
    endloop
  endfacet
  facet normal -1 0 0
    outer loop
      vertex -0.5 -5 2
      vertex -0.5 -10 10
      vertex -0.5 -4 2
    endloop
  endfacet
  facet normal -1 0 0
    outer loop
      vertex -0.5 -5 0.5
      vertex -0.5 -10 10
      vertex -0.5 -5 2
    endloop
  endfacet
  facet normal -1 0 0
    outer loop
      vertex -0.5 -4 2
      vertex -0.5 10 10
      vertex -0.5 -4 0.5
    endloop
  endfacet
  facet normal 0 -1 0
    outer loop
      vertex -0.5 -10 10
      vertex -0.5 -10 0.5
      vertex 0.5 -10 0.5
    endloop
  endfacet
  facet normal 0 -1 0
    outer loop
      vertex 0.5 -10 10
      vertex -0.5 -10 10
      vertex 0.5 -10 0.5
    endloop
  endfacet
  facet normal 0 0 -1
    outer loop
      vertex 0.5 -5 0.5
      vertex 0.5 -10 0.5
      vertex -0.5 -5 0.5
    endloop
  endfacet
  facet normal 0 0 -1
    outer loop
      vertex -0.5 -5 0.5
      vertex 0.5 -10 0.5
      vertex -0.5 -10 0.5
    endloop
  endfacet
  facet normal 0 1 0
    outer loop
      vertex 0.5 -5 2
      vertex 0.5 -5 0.5
      vertex -0.5 -5 2
    endloop
  endfacet
  facet normal 0 1 0
    outer loop
      vertex -0.5 -5 2
      vertex 0.5 -5 0.5
      vertex -0.5 -5 0.5
    endloop
  endfacet
  facet normal 0 0 -1
    outer loop
      vertex 0.5 -4 2
      vertex 0.5 -5 2
      vertex -0.5 -4 2
    endloop
  endfacet
  facet normal 0 0 -1
    outer loop
      vertex -0.5 -4 2
      vertex 0.5 -5 2
      vertex -0.5 -5 2
    endloop
  endfacet
  facet normal 0 -1 0
    outer loop
      vertex 0.5 -4 0.5
      vertex 0.5 -4 2
      vertex -0.5 -4 2
    endloop
  endfacet
  facet normal 0 -1 0
    outer loop
      vertex -0.5 -4 0.5
      vertex 0.5 -4 0.5
      vertex -0.5 -4 2
    endloop
  endfacet
  facet normal 0 0 -1
    outer loop
      vertex 0.5 10 0.5
      vertex 0.5 -4 0.5
      vertex -0.5 10 0.5
    endloop
  endfacet
  facet normal 0 0 -1
    outer loop
      vertex -0.5 10 0.5
      vertex 0.5 -4 0.5
      vertex -0.5 -4 0.5
    endloop
  endfacet
  facet normal 0 1 0
    outer loop
      vertex -0.5 10 0.5
      vertex -0.5 10 10
      vertex 0.5 10 0.5
    endloop
  endfacet
  facet normal 0 1 0
    outer loop
      vertex 0.5 10 0.5
      vertex -0.5 10 10
      vertex 0.5 10 10
    endloop
  endfacet
  facet normal 0 0 1
    outer loop
      vertex -0.5 10 10
      vertex -0.5 -10 10
      vertex 0.5 -10 10
    endloop
  endfacet
  facet normal 0 0 1
    outer loop
      vertex 0.5 10 10
      vertex -0.5 10 10
      vertex 0.5 -10 10
    endloop
  endfacet
  facet normal 1 0 0
    outer loop
      vertex 0.5 -10 10
      vertex 0.5 -10 0.5
      vertex 0.5 -5 0.5
    endloop
  endfacet
  facet normal 1 0 0
    outer loop
      vertex 0.5 -4 2
      vertex 0.5 -10 10
      vertex 0.5 -5 2
    endloop
  endfacet
  facet normal 1 0 0
    outer loop
      vertex 0.5 -5 2
      vertex 0.5 -10 10
      vertex 0.5 -5 0.5
    endloop
  endfacet
  facet normal 1 0 0
    outer loop
      vertex 0.5 10 0.5
      vertex 0.5 -10 10
      vertex 0.5 -4 2
    endloop
  endfacet
  facet normal 1 0 0
    outer loop
      vertex 0.5 10 0.5
      vertex 0.5 -4 2
      vertex 0.5 -4 0.5
    endloop
  endfacet
  facet normal 1 0 0
    outer loop
      vertex 0.5 10 10
      vertex 0.5 -10 10
      vertex 0.5 10 0.5
    endloop
  endfacet
  facet normal -1 0 0
    outer loop
      vertex -0.5 -10 -10
      vertex -0.5 -10 -0.5
      vertex -0.5 10 -10
    endloop
  endfacet
  facet normal -1 0 0
    outer loop
      vertex -0.5 -5 -2
      vertex -0.5 -10 -0.5
      vertex -0.5 -5 -0.5
    endloop
  endfacet
  facet normal -1 0 0
    outer loop
      vertex -0.5 10 -10
      vertex -0.5 -10 -0.5
      vertex -0.5 -5 -2
    endloop
  endfacet
  facet normal -1 0 0
    outer loop
      vertex -0.5 10 -10
      vertex -0.5 -5 -2
      vertex -0.5 -4 -2
    endloop
  endfacet
  facet normal -1 0 0
    outer loop
      vertex -0.5 10 -10
      vertex -0.5 -4 -0.5
      vertex -0.5 10 -0.5
    endloop
  endfacet
  facet normal -1 0 0
    outer loop
      vertex -0.5 -4 -0.5
      vertex -0.5 10 -10
      vertex -0.5 -4 -2
    endloop
  endfacet
  facet normal 0 -1 0
    outer loop
      vertex -0.5 -10 -0.5
      vertex -0.5 -10 -10
      vertex 0.5 -10 -10
    endloop
  endfacet
  facet normal 0 -1 0
    outer loop
      vertex 0.5 -10 -0.5
      vertex -0.5 -10 -0.5
      vertex 0.5 -10 -10
    endloop
  endfacet
  facet normal 0 0 -1
    outer loop
      vertex -0.5 -10 -10
      vertex -0.5 10 -10
      vertex 0.5 -10 -10
    endloop
  endfacet
  facet normal 0 0 -1
    outer loop
      vertex 0.5 -10 -10
      vertex -0.5 10 -10
      vertex 0.5 10 -10
    endloop
  endfacet
  facet normal 0 1 0
    outer loop
      vertex -0.5 10 -10
      vertex -0.5 10 -0.5
      vertex 0.5 10 -10
    endloop
  endfacet
  facet normal 0 1 0
    outer loop
      vertex 0.5 10 -10
      vertex -0.5 10 -0.5
      vertex 0.5 10 -0.5
    endloop
  endfacet
  facet normal 0 0 1
    outer loop
      vertex 0.5 -4 -0.5
      vertex 0.5 10 -0.5
      vertex -0.5 10 -0.5
    endloop
  endfacet
  facet normal 0 0 1
    outer loop
      vertex -0.5 -4 -0.5
      vertex 0.5 -4 -0.5
      vertex -0.5 10 -0.5
    endloop
  endfacet
  facet normal 0 -1 0
    outer loop
      vertex 0.5 -4 -2
      vertex 0.5 -4 -0.5
      vertex -0.5 -4 -0.5
    endloop
  endfacet
  facet normal 0 -1 0
    outer loop
      vertex -0.5 -4 -2
      vertex 0.5 -4 -2
      vertex -0.5 -4 -0.5
    endloop
  endfacet
  facet normal 0 0 1
    outer loop
      vertex 0.5 -5 -2
      vertex 0.5 -4 -2
      vertex -0.5 -4 -2
    endloop
  endfacet
  facet normal 0 0 1
    outer loop
      vertex -0.5 -5 -2
      vertex 0.5 -5 -2
      vertex -0.5 -4 -2
    endloop
  endfacet
  facet normal 0 1 0
    outer loop
      vertex 0.5 -5 -0.5
      vertex 0.5 -5 -2
      vertex -0.5 -5 -0.5
    endloop
  endfacet
  facet normal 0 1 0
    outer loop
      vertex -0.5 -5 -0.5
      vertex 0.5 -5 -2
      vertex -0.5 -5 -2
    endloop
  endfacet
  facet normal 0 0 1
    outer loop
      vertex 0.5 -10 -0.5
      vertex 0.5 -5 -0.5
      vertex -0.5 -5 -0.5
    endloop
  endfacet
  facet normal 0 0 1
    outer loop
      vertex -0.5 -10 -0.5
      vertex 0.5 -10 -0.5
      vertex -0.5 -5 -0.5
    endloop
  endfacet
  facet normal 1 0 0
    outer loop
      vertex 0.5 -10 -0.5
      vertex 0.5 -10 -10
      vertex 0.5 10 -10
    endloop
  endfacet
  facet normal 1 0 0
    outer loop
      vertex 0.5 -5 -2
      vertex 0.5 -10 -0.5
      vertex 0.5 10 -10
    endloop
  endfacet
  facet normal 1 0 0
    outer loop
      vertex 0.5 10 -0.5
      vertex 0.5 -4 -0.5
      vertex 0.5 10 -10
    endloop
  endfacet
  facet normal 1 0 0
    outer loop
      vertex 0.5 -4 -0.5
      vertex 0.5 -4 -2
      vertex 0.5 10 -10
    endloop
  endfacet
  facet normal 1 0 0
    outer loop
      vertex 0.5 -4 -2
      vertex 0.5 -5 -2
      vertex 0.5 10 -10
    endloop
  endfacet
  facet normal 1 0 0
    outer loop
      vertex 0.5 -5 -2
      vertex 0.5 -5 -0.5
      vertex 0.5 -10 -0.5
    endloop
  endfacet
endsolid OpenSCAD_Model
