# Blender v2.80 (sub 75) OBJ File: 'tori.blend'
# www.blender.org
mtllib tori.mtl
o Cube
v 0.300000 4.285760 -2.900000
v 0.300000 -0.833700 -2.900000
v 0.300000 4.285760 -2.100000
v 0.300000 -0.833700 -2.100000
v -0.300000 4.285760 -2.900000
v -0.300000 -0.833700 -2.900000
v -0.300000 4.285760 -2.100000
v -0.300000 -0.833700 -2.100000
vt 0.375000 0.000000
vt 0.625000 0.000000
vt 0.625000 0.250000
vt 0.375000 0.250000
vt 0.375000 0.250000
vt 0.625000 0.250000
vt 0.625000 0.500000
vt 0.375000 0.500000
vt 0.625000 0.750000
vt 0.375000 0.750000
vt 0.625000 0.750000
vt 0.625000 1.000000
vt 0.375000 1.000000
vt 0.125000 0.500000
vt 0.375000 0.500000
vt 0.375000 0.750000
vt 0.125000 0.750000
vt 0.625000 0.500000
vt 0.875000 0.500000
vt 0.875000 0.750000
vn 0.0000 1.0000 0.0000
vn 0.0000 0.0000 1.0000
vn -1.0000 0.0000 0.0000
vn 0.0000 -1.0000 0.0000
vn 1.0000 0.0000 0.0000
vn 0.0000 0.0000 -1.0000
usemtl Material
s off
f 1/1/1 5/2/1 7/3/1 3/4/1
f 4/5/2 3/6/2 7/7/2 8/8/2
f 8/8/3 7/7/3 5/9/3 6/10/3
f 6/10/4 2/11/4 4/12/4 8/13/4
f 2/14/5 1/15/5 3/16/5 4/17/5
f 6/18/6 5/19/6 1/20/6 2/11/6
o Cube.001
v 0.300000 5.099999 3.300000
v 0.300000 5.100000 -3.300000
v 0.300000 4.300000 3.300000
v 0.300000 4.300000 -3.300000
v -0.300000 5.099999 3.300000
v -0.300000 5.100000 -3.300000
v -0.300000 4.300000 3.300000
v -0.300000 4.300000 -3.300000
vt 0.375000 0.000000
vt 0.625000 0.000000
vt 0.625000 0.250000
vt 0.375000 0.250000
vt 0.375000 0.250000
vt 0.625000 0.250000
vt 0.625000 0.500000
vt 0.375000 0.500000
vt 0.625000 0.750000
vt 0.375000 0.750000
vt 0.625000 0.750000
vt 0.625000 1.000000
vt 0.375000 1.000000
vt 0.125000 0.500000
vt 0.375000 0.500000
vt 0.375000 0.750000
vt 0.125000 0.750000
vt 0.625000 0.500000
vt 0.875000 0.500000
vt 0.875000 0.750000
vn 0.0000 0.0000 1.0000
vn 0.0000 -1.0000 -0.0000
vn -1.0000 0.0000 0.0000
vn 0.0000 0.0000 -1.0000
vn 1.0000 0.0000 0.0000
vn 0.0000 1.0000 0.0000
usemtl Material.001
s off
f 9/21/7 13/22/7 15/23/7 11/24/7
f 12/25/8 11/26/8 15/27/8 16/28/8
f 16/28/9 15/27/9 13/29/9 14/30/9
f 14/30/10 10/31/10 12/32/10 16/33/10
f 10/34/11 9/35/11 11/36/11 12/37/11
f 14/38/12 13/39/12 9/40/12 10/31/12
o Cube.002
v 0.300000 4.285760 2.100000
v 0.300000 -0.833700 2.100000
v 0.300000 4.285760 2.900000
v 0.300000 -0.833700 2.900000
v -0.300000 4.285760 2.100000
v -0.300000 -0.833700 2.100000
v -0.300000 4.285760 2.900000
v -0.300000 -0.833700 2.900000
vt 0.375000 0.000000
vt 0.625000 0.000000
vt 0.625000 0.250000
vt 0.375000 0.250000
vt 0.375000 0.250000
vt 0.625000 0.250000
vt 0.625000 0.500000
vt 0.375000 0.500000
vt 0.625000 0.750000
vt 0.375000 0.750000
vt 0.625000 0.750000
vt 0.625000 1.000000
vt 0.375000 1.000000
vt 0.125000 0.500000
vt 0.375000 0.500000
vt 0.375000 0.750000
vt 0.125000 0.750000
vt 0.625000 0.500000
vt 0.875000 0.500000
vt 0.875000 0.750000
vn 0.0000 1.0000 0.0000
vn 0.0000 0.0000 1.0000
vn -1.0000 0.0000 0.0000
vn 0.0000 -1.0000 0.0000
vn 1.0000 0.0000 0.0000
vn 0.0000 0.0000 -1.0000
usemtl Material.002
s off
f 17/41/13 21/42/13 23/43/13 19/44/13
f 20/45/14 19/46/14 23/47/14 24/48/14
f 24/48/15 23/47/15 21/49/15 22/50/15
f 22/50/16 18/51/16 20/52/16 24/53/16
f 18/54/17 17/55/17 19/56/17 20/57/17
f 22/58/18 21/59/18 17/60/18 18/51/18
o Plane
v -7.431720 -0.833695 6.622195
v 6.364964 -0.833695 6.622195
v -7.431720 -0.833695 -7.174489
v 6.364964 -0.833695 -7.174489
vt 0.000000 0.000000
vt 1.000000 0.000000
vt 1.000000 1.000000
vt 0.000000 1.000000
vn 0.0000 1.0000 0.0000
usemtl None
s off
f 25/61/19 26/62/19 28/63/19 27/64/19
o Cube.003
v 0.300000 3.800000 2.100000
v 0.300000 3.800000 -2.100000
v 0.300000 3.200000 2.100000
v 0.300000 3.200000 -2.100000
v -0.300000 3.800000 2.100000
v -0.300000 3.800000 -2.100000
v -0.300000 3.200000 2.100000
v -0.300000 3.200000 -2.100000
vt 0.375000 0.000000
vt 0.625000 0.000000
vt 0.625000 0.250000
vt 0.375000 0.250000
vt 0.375000 0.250000
vt 0.625000 0.250000
vt 0.625000 0.500000
vt 0.375000 0.500000
vt 0.625000 0.750000
vt 0.375000 0.750000
vt 0.625000 0.750000
vt 0.625000 1.000000
vt 0.375000 1.000000
vt 0.125000 0.500000
vt 0.375000 0.500000
vt 0.375000 0.750000
vt 0.125000 0.750000
vt 0.625000 0.500000
vt 0.875000 0.500000
vt 0.875000 0.750000
vn 0.0000 0.0000 1.0000
vn 0.0000 -1.0000 -0.0000
vn -1.0000 0.0000 0.0000
vn 0.0000 0.0000 -1.0000
vn 1.0000 0.0000 0.0000
vn 0.0000 1.0000 0.0000
usemtl Material.003
s off
f 29/65/20 33/66/20 35/67/20 31/68/20
f 32/69/21 31/70/21 35/71/21 36/72/21
f 36/72/22 35/71/22 33/73/22 34/74/22
f 34/74/23 30/75/23 32/76/23 36/77/23
f 30/78/24 29/79/24 31/80/24 32/81/24
f 34/82/25 33/83/25 29/84/25 30/75/25
